<?xml version="1.0" encoding="utf-8"?>
<svg xmlns="http://www.w3.org/2000/svg" viewBox="0 0 477.451 39.731">
  <path style="fill: none; stroke-width: 7px; stroke-linecap: round; stroke: rgb(102, 102, 102);" d="M 5.75 16.955 C 51.438 16.955 97.015 16.02 142.842 15.941 C 158.425 15.915 173.761 15.801 189.324 15.724 C 191.256 15.715 198.377 15.463 199.914 15.652 C 200.628 15.74 198.737 16.159 198.737 16.159"/>
  <path style="fill: none; stroke-width: 7px; stroke-linecap: round; stroke: rgb(102, 102, 102);" d="M 274.544 13.583 C 320.232 13.583 365.809 12.648 411.636 12.569 C 427.219 12.543 442.555 12.429 458.118 12.352 C 460.05 12.343 467.171 12.091 468.708 12.28 C 469.422 12.368 467.531 12.787 467.531 12.787"/>
  <path style="stroke-width: 6px; fill: none; stroke: rgb(102, 102, 102);" d="M 245.001 5.222 C 233.307 3.623 228.531 4.634 224.382 13.543 C 221.708 19.284 220.995 26.563 227.528 29.829 C 236.001 34.065 245.826 29.843 252.144 20.76 C 255.577 15.824 251.681 7.631 245.001 5.222 Z"/>
</svg>