<?xml version="1.0" encoding="utf-8"?>
<svg version="1.0" xmlns="http://www.w3.org/2000/svg" width="300.000000pt" height="300.000000pt" viewBox="0 0 300.000000 300.000000" preserveAspectRatio="xMidYMid meet">
  <g transform="translate(0.000000,300.000000) scale(0.100000,-0.100000)" fill="#000000" stroke="none">
    <path d="M1390 2784 c-175 -15 -382 -70 -511 -134 -308 -154 -549 -440 -657 -780 -50 -158 -65 -278 -59 -464 7 -215 44 -369 124 -531 73 -145 196 -308 276 -366 75 -54 70 -29 -10 54 -317 331 -432 772 -318 1222 110 434 410 760 828 899 144 48 236 60 437 60 201 0 293 -12 437 -60 437 -146 745 -498 844 -967 29 -134 31 -390 5 -512 -86 -397 -312 -694 -663 -869 -70 -35 -170 -76 -186 -76 -4 0 -5 82 -1 183 6 165 -1 276 -21 329 -4 9 24 22 83 41 116 37 201 87 283 168 109 108 176 244 200 409 25 173 -21 394 -105 505 -22 28 -23 36 -14 81 12 61 3 205 -18 274 -8 28 -27 65 -43 82 -55 62 -179 47 -363 -45 l-108 -54 -72 15 c-101 21 -416 21 -517 0 l-73 -15 -84 42 c-215 110 -363 123 -408 37 -38 -74 -61 -273 -41 -354 5 -18 -3 -41 -29 -84 -20 -32 -48 -95 -63 -139 -24 -72 -27 -95 -27 -225 -1 -123 3 -157 22 -224 28 -98 90 -218 139 -271 54 -59 54 -27 0 55 -92 137 -130 266 -130 435 -1 133 17 208 75 325 l43 85 0 130 c0 147 18 223 63 264 24 21 32 23 92 18 73 -6 80 -8 233 -80 l108 -51 72 13 c125 23 363 26 491 6 l111 -18 82 42 c125 62 181 81 260 88 68 5 73 4 96 -20 40 -44 52 -100 53 -249 l0 -136 46 -94 c66 -133 82 -211 75 -361 -3 -79 -12 -143 -25 -183 -67 -211 -210 -358 -417 -429 -44 -16 -91 -38 -104 -50 -22 -21 -23 -26 -12 -74 6 -29 11 -146 11 -260 0 -194 1 -209 20 -226 28 -26 69 -14 215 59 144 73 250 149 350 250 371 375 463 982 225 1484 -188 396 -524 652 -950 726 -90 15 -294 26 -370 20z" style="visibility: hidden;"/>
    <path d="M429 997 c-39 -26 -59 -60 -59 -100 0 -21 19 -48 78 -111 59 -62 91 -108 131 -184 28 -56 56 -102 62 -102 11 0 8 15 -22 95 -27 72 -69 135 -144 215 -73 78 -81 105 -39 147 24 24 29 25 102 19 42 -3 97 -9 122 -12 40 -5 43 -4 30 9 -24 24 -106 47 -169 47 -44 0 -66 -6 -92 -23z"/>
    <path d="M858 879 c-30 -17 -21 -50 26 -95 65 -61 169 -79 219 -36 20 18 22 46 5 59 -7 5 -58 24 -113 43 -55 18 -104 34 -110 36 -5 2 -18 -1 -27 -7z m51 -34 c27 -13 78 -32 113 -41 96 -25 96 -25 73 -34 -68 -28 -174 4 -223 68 -30 38 -26 39 37 7z"/>
    <path d="M895 351 c-17 -7 -15 -10 20 -20 22 -6 64 -11 93 -11 51 0 52 0 52 -30 0 -16 -4 -30 -10 -30 -5 0 -44 14 -86 30 -116 46 -113 17 4 -36 63 -29 84 -30 105 -6 23 25 21 65 -4 88 -23 20 -138 31 -174 15z"/>
  </g>
  <path style="stroke: rgb(0, 0, 0); stroke-width: 2px; fill: rgb(80, 176, 207);" d="M 44.941 246.776 L 26.449 221.885 L 18.59 199.342 L 18.013 170.156 L 16.713 139.83 L 24.511 109.071 L 34.909 88.71 L 50.072 67.048 L 60.56 53.414 C 63.767 48.078 99.953 21.115 127.122 16.64 C 156.338 11.828 188.434 23.914 203.966 31.251 L 234.626 50.152 L 257.587 74.846 L 271.451 101.273 L 279.682 124.234 L 283.148 153.26 L 280.115 184.886 C 280.115 184.886 270.151 210.446 270.151 210.013 C 270.151 209.58 260.225 235.43 260.225 235.43 L 243.17 253.685 L 223.363 263.711 C 223.363 263.711 203.001 270.665 203.001 271.098 C 203.001 271.531 193.903 273.697 193.903 273.697 L 192.17 256.802 L 191.304 233.841 L 191.737 222.143 L 217.297 210.013 L 229.428 199.616 L 238.959 183.153 L 247.19 157.159 L 246.324 135.065 L 236.793 115.57 L 235.493 100.407 L 234.193 82.644 L 232.027 70.081 L 222.063 66.615 C 222.063 66.615 210.799 63.582 209.499 65.749 C 208.199 67.916 184.037 78.209 184.037 78.209 L 172.675 77.012 L 151.447 75.713 L 118.484 77.396 L 107.889 73.259 L 98.16 69.214 C 98.16 69.214 82.564 66.182 82.131 66.182 C 81.698 66.182 69.567 64.882 69.567 64.882 L 65.235 78.312 L 63.935 95.641 L 63.069 109.504 C 63.069 109.504 56.57 125.534 56.137 125.534 C 55.704 125.534 51.805 145.462 51.805 146.329 C 51.805 147.196 53.104 163.225 53.104 163.225 C 53.104 163.225 57.87 184.019 58.303 184.019 C 58.736 184.019 69.134 201.782 69.134 201.349 C 69.134 200.916 51.805 196.583 51.805 196.583 C 41.407 200.049 47.565 206.647 47.565 206.647 L 50.597 216.983 C 50.597 216.983 51.682 227.744 52.981 228.177 C 54.28 228.61 59.17 236.873 59.17 236.873 L 69.079 259.055 L 44.941 246.776 Z"/>
  <g style="visibility: hidden;">
    <path style="fill: rgb(216, 216, 216); stroke: rgb(0, 0, 0); stroke-width: 3px; stroke-linecap: round;" d="M 50.826 241.756 C 52.32 239.017 54.555 236.927 55.907 234.222 C 55.995 234.046 56.959 232.119 56.959 232.119"/>
    <path style="fill: rgb(216, 216, 216); stroke: rgb(0, 0, 0); stroke-width: 3px; stroke-linecap: round;" d="M 44.518 232.294 C 45.259 231.924 50.476 224.591 50.476 223.534"/>
    <path style="fill: rgb(216, 216, 216); stroke: rgb(0, 0, 0); stroke-width: 3px; stroke-linecap: round;" d="M 37.334 223.008 C 38.844 220.994 40.523 219.119 42.416 217.226 C 42.668 216.973 43.429 215.474 43.467 215.474"/>
    <path style="fill: rgb(216, 216, 216); stroke: rgb(0, 0, 0); stroke-width: 3px; stroke-linecap: round;" d="M 32.428 215.649 C 33.556 212.265 38.43 207.544 41.014 204.96"/>
    <path style="fill: rgb(216, 216, 216); stroke: rgb(0, 0, 0); stroke-width: 3px; stroke-linecap: round;" d="M 27.347 206.187 C 34.798 200.392 43.035 195.772 50.3 189.717 C 51.373 188.823 55.56 183.934 57.309 183.934"/>
    <path style="fill: rgb(216, 216, 216); stroke: rgb(0, 0, 0); stroke-width: 3px; stroke-linecap: round;" d="M 24.894 197.777 C 26.967 196.948 27.245 195.251 28.749 193.747 C 30.31 192.186 33.707 189.886 35.407 188.49 C 39.413 185.2 43.895 181.676 48.198 179.028 C 51.194 177.185 54.138 176.066 56.608 173.597"/>
    <path style="fill: rgb(216, 216, 216); stroke: rgb(0, 0, 0); stroke-width: 3px; stroke-linecap: round;" d="M 21.915 189.016 C 28.589 181.674 38.147 176.229 46.095 170.267 C 48.039 168.809 49.857 167.008 51.352 165.887 C 51.429 165.829 53.454 165.011 53.454 165.011"/>
    <path style="fill: rgb(216, 216, 216); stroke: rgb(0, 0, 0); stroke-width: 3px; stroke-linecap: round;" d="M 61.527 188.18 C 57.028 191.68 51.717 194.26 47.894 198.083"/>
    <path style="fill: rgb(216, 216, 216); stroke: rgb(0, 0, 0); stroke-width: 3px; stroke-linecap: round;" d="M 19.192 179.283 C 20.484 176.698 25.066 174.203 27.372 172.538 C 33.446 168.151 39.511 164.1 46.172 160.77 C 47.948 159.882 50.168 158.175 51.769 156.895 C 51.937 156.76 53.491 155.747 53.491 155.747"/>
    <path style="fill: rgb(216, 216, 216); stroke: rgb(0, 0, 0); stroke-width: 3px; stroke-linecap: round;" d="M 17.47 167.998 C 20.293 167.998 22.114 166.394 24.645 165.128 C 32.305 161.298 38.987 155.661 46.459 151.925 C 47.504 151.402 50.095 149.198 51.195 149.198"/>
    <path style="fill: rgb(216, 216, 216); stroke: rgb(0, 0, 0); stroke-width: 3px; stroke-linecap: round;" d="M 16.608 159.181 C 19.685 158.412 21.978 156.568 24.789 155.163 C 30.296 152.409 36.812 150.802 42.153 148.131 C 44.691 146.862 46.854 144.88 49.329 143.395 C 49.473 143.308 51.912 141.816 51.912 141.816"/>
    <path style="fill: rgb(216, 216, 216); stroke: rgb(0, 0, 0); stroke-width: 3px; stroke-linecap: round;" d="M 16.465 148.418 C 20.093 148.418 22.863 145.506 25.937 143.969 C 32.3 140.788 39.736 137.559 46.316 134.927 C 48.585 134.02 51.758 132.344 54.209 132.344"/>
    <path style="fill: rgb(216, 216, 216); stroke: rgb(0, 0, 0); stroke-width: 3px; stroke-linecap: round;" d="M 17.039 136.507 C 23.946 135.125 29.808 131.506 36.269 129.044 C 39.15 127.947 42.303 127.646 45.167 126.604 C 48.344 125.449 53.371 123.734 56.792 123.734"/>
    <path style="fill: rgb(216, 216, 216); stroke: rgb(0, 0, 0); stroke-width: 3px; stroke-linecap: round;" d="M 20.053 126.463 C 29.845 126.463 42.59 120.912 51.769 117.853 C 54.691 116.879 58.544 114.121 61.671 114.121"/>
    <path style="fill: rgb(216, 216, 216); stroke: rgb(0, 0, 0); stroke-width: 3px; stroke-linecap: round;" d="M 21.631 118.283 C 26.482 114.818 31.905 113.408 37.418 111.251 C 45.366 108.141 53.79 104.506 62.388 104.506"/>
    <path style="fill: rgb(216, 216, 216); stroke: rgb(0, 0, 0); stroke-width: 3px; stroke-linecap: round;" d="M 24.932 109.098 C 28.92 106.44 36.197 105.467 40.862 104.363 C 46.569 103.011 52.415 101.318 58.227 100.488 C 59.705 100.277 62.082 100.398 63.537 99.914 C 64.129 99.716 64.886 99.053 65.546 99.053"/>
    <path style="fill: rgb(216, 216, 216); stroke: rgb(0, 0, 0); stroke-width: 3px; stroke-linecap: round;" d="M 29.524 99.758 C 41.332 95.822 54.739 97.619 66.407 93.73"/>
    <path style="fill: rgb(216, 216, 216); stroke: rgb(0, 0, 0); stroke-width: 3px; stroke-linecap: round;" d="M 34.117 90.054 C 41.618 89.713 49.15 88.724 56.648 88.189 C 57.197 88.149 62.962 87.184 62.962 87.184 C 62.963 87.433 65.689 86.897 65.689 86.897"/>
    <path style="fill: rgb(216, 216, 216); stroke: rgb(0, 0, 0); stroke-width: 3px; stroke-linecap: round;" d="M 39.427 81.157 C 48.383 82.436 57.073 78.143 65.976 78.143"/>
    <path style="fill: rgb(216, 216, 216); stroke: rgb(0, 0, 0); stroke-width: 3px; stroke-linecap: round;" d="M 45.167 72.976 C 52.175 71.808 59.725 71.685 66.837 71.685"/>
    <path style="fill: rgb(216, 216, 216); stroke: rgb(0, 0, 0); stroke-width: 3px; stroke-linecap: round;" d="M 52.917 64.079 C 57.055 62.837 61.84 63.935 66.12 63.935 C 66.309 63.935 69.564 64.222 69.564 64.222"/>
    <path style="fill: rgb(216, 216, 216); stroke: rgb(0, 0, 0); stroke-width: 3px; stroke-linecap: round;" d="M 59.94 55.014 C 64.448 54.113 73.595 58.737 77.583 61.13 C 78.606 61.744 81.446 65.6 82.288 65.6"/>
    <path style="fill: rgb(216, 216, 216); stroke: rgb(0, 0, 0); stroke-width: 3px; stroke-linecap: round;" d="M 77.112 43.958 C 78.687 47.894 79.751 51.392 81.817 55.249 C 83.6 58.578 87.698 62.409 87.698 66.305"/>
    <path style="fill: rgb(216, 216, 216); stroke: rgb(0, 0, 0); stroke-width: 3px; stroke-linecap: round;" d="M 82.052 40.194 C 81.555 44.671 84.661 46.813 86.992 50.309 C 90.467 55.522 96.872 62.675 96.872 69.363"/>
    <path style="fill: rgb(216, 216, 216); stroke: rgb(0, 0, 0); stroke-width: 3px; stroke-linecap: round;" d="M 90.05 37.607 C 90.05 44.17 95.723 51.567 97.813 57.837 C 98.668 60.403 99.93 64.691 99.93 67.246 C 99.93 67.677 100.165 71.01 100.165 71.01"/>
    <path style="fill: rgb(216, 216, 216); stroke: rgb(0, 0, 0); stroke-width: 3px; stroke-linecap: round;" d="M 95.696 34.078 C 102.185 42.73 107.062 51.631 110.045 62.071 C 110.67 64.259 111.692 66.371 111.692 68.658 C 111.692 69.057 111.692 72.421 111.692 72.421"/>
    <path style="fill: rgb(216, 216, 216); stroke: rgb(0, 0, 0); stroke-width: 3px; stroke-linecap: round;" d="M 105.34 30.55 C 108.281 37.608 110.668 44.352 112.633 51.721 C 114.621 59.178 119.219 66.021 119.219 73.833"/>
    <path style="fill: rgb(216, 216, 216); stroke: rgb(0, 0, 0); stroke-width: 3px; stroke-linecap: round;" d="M 112.397 29.609 C 115.099 41.768 121.126 53.23 124.159 65.364 C 125.198 69.519 129.099 72.406 129.099 76.891"/>
    <path style="fill: rgb(216, 216, 216); stroke: rgb(0, 0, 0); stroke-width: 3px; stroke-linecap: round;" d="M 121.572 27.256 C 123.717 33.694 126.974 39.464 129.099 45.84 C 131.192 52.119 131.269 58.648 134.274 64.659 C 134.506 65.122 137.567 75.479 137.567 75.479"/>
    <path style="fill: rgb(216, 216, 216); stroke: rgb(0, 0, 0); stroke-width: 3px; stroke-linecap: round;" d="M 129.099 24.434 C 130.486 29.057 133.098 32.98 134.98 37.372 C 136.937 41.937 137.488 46.883 139.214 51.486 C 141.959 58.804 146.977 67.942 146.977 75.479"/>
    <path style="fill: rgb(216, 216, 216); stroke: rgb(0, 0, 0); stroke-width: 3px; stroke-linecap: round;" d="M 137.567 23.728 C 137.567 28.392 140.216 34.186 141.802 38.548 C 146.118 50.416 151.211 63.91 151.211 76.656"/>
    <path style="fill: rgb(216, 216, 216); stroke: rgb(0, 0, 0); stroke-width: 3px; stroke-linecap: round;" d="M 149.094 23.493 C 149.094 34.426 154.563 45.368 155.916 56.19 C 156.667 62.203 155.916 68.674 155.916 74.774"/>
    <path style="fill: rgb(216, 216, 216); stroke: rgb(0, 0, 0); stroke-width: 3px; stroke-linecap: round;" d="M 160.856 24.198 C 160.392 29.296 162.302 33.755 162.973 38.783 C 164.098 47.225 164.167 56.101 162.502 64.423 C 162.053 66.671 161.091 69.184 161.091 71.48 C 161.091 72.745 160.62 75.244 160.62 75.244"/>
    <path style="fill: rgb(216, 216, 216); stroke: rgb(0, 0, 0); stroke-width: 3px; stroke-linecap: round;" d="M 174.029 27.256 C 175.585 44.377 164.619 60.216 164.619 76.656"/>
    <path style="fill: rgb(216, 216, 216); stroke: rgb(0, 0, 0); stroke-width: 3px; stroke-linecap: round;" d="M 188.378 27.727 C 182.851 37.4 180.858 48.648 175.911 58.543 C 173.41 63.543 169.089 70.14 169.089 75.715"/>
    <path style="fill: rgb(216, 216, 216); stroke: rgb(0, 0, 0); stroke-width: 3px; stroke-linecap: round;" d="M 195.905 31.961 C 191.881 43.028 189.81 56.894 183.909 67.011 C 183.892 67.04 178.498 76.42 178.498 76.42"/>
    <path style="fill: rgb(216, 216, 216); stroke: rgb(0, 0, 0); stroke-width: 3px; stroke-linecap: round;" d="M 203.198 33.137 C 204.894 41.618 200.473 55.335 197.082 63.247 C 196.022 65.719 192.377 70.698 192.377 73.362"/>
    <path style="fill: rgb(216, 216, 216); stroke: rgb(0, 0, 0); stroke-width: 3px; stroke-linecap: round;" d="M 212.137 36.901 C 210.427 42.598 210.059 49.131 209.079 55.014 C 208.335 59.479 205.785 63.816 205.785 67.952"/>
    <path style="fill: rgb(216, 216, 216); stroke: rgb(0, 0, 0); stroke-width: 3px; stroke-linecap: round;" d="M 225.31 44.899 C 221.123 53.273 229.008 37.604 222.722 49.604 C 220.759 53.352 219.563 57.501 218.017 61.365 C 217.783 61.953 214.254 66.07 214.254 66.07"/>
    <path style="fill: rgb(216, 216, 216); stroke: rgb(0, 0, 0); stroke-width: 3px; stroke-linecap: round;" d="M 234.954 51.956 C 234.391 53.365 233.58 54.782 232.602 55.955 C 229.933 59.158 227.8 62.514 225.31 65.835 C 225.051 66.18 223.663 68.422 223.663 68.422"/>
    <path style="fill: rgb(216, 216, 216); stroke: rgb(0, 0, 0); stroke-width: 3px; stroke-linecap: round;" d="M 242.011 59.013 C 243.183 63.7 230.955 66.841 230.955 70.304"/>
    <path style="fill: rgb(216, 216, 216); stroke: rgb(0, 0, 0); stroke-width: 3px; stroke-linecap: round;" d="M 204.968 270.885 C 203.203 264.708 195.273 261.66 191.56 257.947"/>
    <path style="fill: rgb(216, 216, 216); stroke: rgb(0, 0, 0); stroke-width: 3px; stroke-linecap: round;" d="M 214.142 265.474 C 211.568 260.326 202.668 256.103 197.911 252.536 C 196.964 251.826 191.56 249.11 191.56 248.302"/>
    <path style="fill: rgb(216, 216, 216); stroke: rgb(0, 0, 0); stroke-width: 3px; stroke-linecap: round;" d="M 223.552 260.064 C 216.261 257.633 209.505 251.405 203.086 247.126 C 200.801 245.602 198.011 242.858 195.324 242.186 C 195.095 242.129 192.03 241.01 192.03 241.01"/>
    <path style="fill: rgb(216, 216, 216); stroke: rgb(0, 0, 0); stroke-width: 3px; stroke-linecap: round;" d="M 232.726 254.889 C 229.913 251.607 226.037 250.071 222.611 247.596 C 215.645 242.566 208.463 237.112 200.734 233.247 C 200.042 232.901 191.325 227.837 191.325 227.837"/>
    <path style="fill: rgb(216, 216, 216); stroke: rgb(0, 0, 0); stroke-width: 3px; stroke-linecap: round;" d="M 242.37 247.832 C 241.347 243.739 235.437 242.362 232.02 240.539 C 223.322 235.9 215.402 229.76 206.85 225.484 C 204.408 224.263 200.992 222.684 199.087 220.78 C 198.92 220.613 196.735 219.604 196.735 219.604"/>
    <path style="fill: rgb(216, 216, 216); stroke: rgb(0, 0, 0); stroke-width: 3px; stroke-linecap: round;" d="M 250.604 237.717 C 238.595 233.714 228.221 225.702 216.965 220.074 C 215.107 219.145 208.14 215.84 206.38 215.84"/>
    <path style="fill: rgb(216, 216, 216); stroke: rgb(0, 0, 0); stroke-width: 3px; stroke-linecap: round;" d="M 257.661 231.365 C 247.773 227.275 246.619 226.018 234.796 219.149 C 233.119 218.175 223.924 215.135 221.48 213.999 C 218.511 212.618 215.317 210.604 212.496 209.724"/>
    <path style="fill: rgb(216, 216, 216); stroke: rgb(0, 0, 0); stroke-width: 3px; stroke-linecap: round;" d="M 263.071 221.956 C 257.086 219.391 250.578 218.802 244.487 216.31 C 238.894 214.022 232.972 209.141 227.551 206.43 C 225.629 205.47 224.282 203.608 221.905 203.608"/>
    <path style="fill: rgb(216, 216, 216); stroke: rgb(0, 0, 0); stroke-width: 3px; stroke-linecap: round;" d="M 269.187 212.782 C 258.047 206.593 244.638 196.08 231.55 196.08"/>
    <path style="fill: rgb(216, 216, 216); stroke: rgb(0, 0, 0); stroke-width: 3px; stroke-linecap: round;" d="M 274.597 200.55 C 269.688 199.077 264.623 197.93 259.778 196.315 C 251.707 193.625 243.48 188.082 235.313 188.082"/>
    <path style="fill: rgb(216, 216, 216); stroke: rgb(0, 0, 0); stroke-width: 3px; stroke-linecap: round;" d="M 277.655 189.258 C 275.014 188.906 272.543 188.584 270.128 187.376 C 267.68 186.153 265.4 184.575 263.071 183.142 C 260.689 181.677 258.438 180.358 255.779 179.379 C 253.51 178.543 242.135 179.037 242.135 174.909"/>
    <path style="fill: rgb(216, 216, 216); stroke: rgb(0, 0, 0); stroke-width: 3px; stroke-linecap: round;" d="M 281.184 179.143 C 271.95 175.45 262.385 174.968 253.662 169.734 C 251.47 168.419 247.499 169.875 244.958 169.028 C 244.917 169.014 242.37 168.558 242.37 168.558"/>
    <path style="fill: rgb(216, 216, 216); stroke: rgb(0, 0, 0); stroke-width: 3px; stroke-linecap: round;" d="M 281.654 170.204 C 272.943 165.848 264.523 161.913 255.308 159.148 C 253.208 158.518 249.69 156.796 247.546 156.796"/>
    <path style="fill: rgb(216, 216, 216); stroke: rgb(0, 0, 0); stroke-width: 3px; stroke-linecap: round;" d="M 283.066 156.09 C 273.382 152.863 263.089 150.922 253.662 147.152 C 253.321 147.015 245.899 145.505 245.899 145.505"/>
    <path style="fill: rgb(216, 216, 216); stroke: rgb(0, 0, 0); stroke-width: 3px; stroke-linecap: round;" d="M 281.654 143.388 C 273.152 139.987 262.807 140.565 253.662 140.565 C 253.554 140.565 245.428 139.624 245.428 139.624"/>
    <path style="fill: rgb(216, 216, 216); stroke: rgb(0, 0, 0); stroke-width: 3px; stroke-linecap: round;" d="M 281.419 133.042 C 276.639 129.217 268.791 129.767 263.071 128.337 C 255.246 126.381 248.178 123.397 240.018 123.397"/>
    <path style="fill: rgb(216, 216, 216); stroke: rgb(0, 0, 0); stroke-width: 3px; stroke-linecap: round;" d="M 277.185 115.87 C 264.252 112.174 250.044 110.694 236.49 110.694"/>
    <path style="fill: rgb(216, 216, 216); stroke: rgb(0, 0, 0); stroke-width: 3px; stroke-linecap: round;" d="M 271.775 102.932 C 263.347 99.561 252.302 101.991 243.311 101.991 C 242.787 101.991 235.549 102.226 235.549 102.226"/>
    <path style="fill: rgb(216, 216, 216); stroke: rgb(0, 0, 0); stroke-width: 3px; stroke-linecap: round;" d="M 268.481 94.401 C 261.708 90.168 250.822 91.108 243.076 91.108 C 242.903 91.108 235.078 90.873 235.078 90.873"/>
    <path style="fill: rgb(216, 216, 216); stroke: rgb(0, 0, 0); stroke-width: 3px; stroke-linecap: round;" d="M 261.66 82.404 C 251.977 82.404 242.405 79.582 232.961 79.582"/>
  </g>
  <path style="stroke: rgb(0, 0, 0); stroke-linecap: round; stroke-linejoin: bevel; fill: rgba(202, 120, 120, 0); stroke-width: 8px;" d="M 108.633 284.126 C 97.521 284.126 86.759 276.559 77.546 271.598 C 73.973 269.674 47.609 258.976 44.582 256.381 C 22.07 237.085 17.36 218.454 11.51 189.202 C 8.448 173.89 7.456 156.376 8.654 140.801 C 9.238 133.2 10.792 126.036 12.042 118.536 C 15.875 96.35 15.537 105.991 27.109 80.617 C 45.883 56.285 47.465 49.223 58.128 42.825 C 72.897 31.581 106.386 14.557 108.447 13.525 C 134.311 0.594 174.922 11.29 201.475 20.141 C 216.034 21.574 231.431 36.299 253.094 56.862 C 268.586 75.727 269.757 79.507 273.339 87.277 C 286.004 114.75 288.007 128.619 288.411 129.185 C 292.152 134.421 289.142 141.549 290.348 147.577 C 295.127 171.475 289.257 174.444 282.603 200.818 C 259.756 271.466 227.888 268.577 220.166 273.419 C 213.696 277.476 202.601 280.404 194.514 283.1 C 184.372 286.48 184.745 271.765 184.833 264.223 C 184.988 250.926 183.499 236.62 183.381 217.758 C 183.269 199.832 178.63 224.313 220.166 195.01 C 240.139 180.919 243.276 157.25 237.59 134.509 C 235.064 124.402 227.021 115.948 224.522 105.952 C 222.589 98.219 231.209 75.601 220.986 73.897 C 209.657 72.009 195.403 82.559 185.058 86.008 C 179.297 87.928 155.802 82.93 150.334 82.941 C 123.378 82.993 135.973 84.553 112.314 86.228 C 107.217 86.589 86.707 69.743 80.771 74.491 C 73.506 80.303 69.704 88.46 72.93 105.027 C 74.38 112.474 70.072 113.382 67.583 119.604 C 60.984 136.102 58.976 130.051 60.917 155.225 C 58.406 169.175 74.272 195.314 79.851 199.211 C 96.034 210.512 108.789 211.313 115.357 213.502 C 120.541 215.23 123.352 215.928 119.918 222.795 C 110.18 242.271 86.509 230.597 77.867 219.794 C 75.948 217.396 65.566 208.845 62.154 210.551 C 58.181 212.538 61.102 220.705 62.379 224.535 C 65.92 235.157 71.992 247.556 77.867 256.369 C 78.652 257.546 113.162 257.897 113.162 257.897 C 114.749 258.847 114.144 262.341 113.885 264.152 C 113.206 268.905 115.905 273.971 114.748 278.601 C 114.031 281.47 108.633 284.126 108.633 284.126 Z"/>
</svg>