<?xml version="1.0" encoding="utf-8"?>
<svg xmlns="http://www.w3.org/2000/svg" viewBox="0 0 124.715 134.484">
  <defs>
    <path id="path-0" d="M 59.53164127749484 97.73918379700272 L 98.6524394945439 123.81972495341957" style="fill: none;"/>
    <path id="path-1" d="M 67.025 43.006 C 92.678 52.289 98.148 52.08 114.591 39.748 L 118.175 38.445 C 133.038 33.04 148.054 33.232 163.46 33.232" style="fill: none;"/>
  </defs>
  <path style="stroke: rgb(0, 0, 0); fill: rgb(80, 176, 207); stroke-width: 4px;" d="M 9.619 7.717 C 10.701 10.962 57.011 0.952 113.839 10.595 C 122.358 29.141 119.687 110.769 121.25 124.706 C 120.302 133.81 9.583 132.527 10.22 126.412 C 1.187 129.667 2.743 10.194 9.619 7.717 Z"/>
  <path style="fill: rgb(216, 216, 216); stroke: rgb(0, 0, 0); stroke-width: 4px;" d="M 23.302 54.349 C 21.257 56.27 22.489 60.628 22.958 63.695 C 23.107 64.668 22.023 126.05 45.536 113.644 C 50.235 111.166 42.897 98.352 42.469 96.556 C 39.093 82.405 39.471 66.621 33.602 53.697 C 31.956 50.072 26.01 51.805 23.302 54.349 Z"/>
  <path style="fill: rgb(216, 216, 216); stroke: rgb(0, 0, 0); stroke-width: 4px;" d="M 20.542 24.547 C 21.841 22.049 25.471 24.523 27.888 25.028 C 34.285 26.365 36.103 34.778 30.692 39.947 C 29.855 40.747 28.506 40.175 27.487 39.786 C 25.513 39.032 22.871 38.76 21.877 36.578 C 20.259 33.029 18.756 27.978 20.542 24.547 Z"/>
  <path style="fill: rgb(216, 216, 216); stroke: rgb(0, 0, 0); stroke-width: 4px;" d="M 58.474 58.876 C 59.938 65.546 55.979 73.281 58.34 79.569 C 59.833 83.547 59.605 70.746 61.545 67.057 C 65.605 59.342 74.622 55.772 81.847 56.63 C 93.93 58.066 101.399 72.339 104.954 84.702 C 106.411 89.769 109.287 99.83 105.889 105.396 C 103.513 109.286 96.488 108.797 94.803 104.112 C 90.642 92.544 95.882 71.935 80.779 68.982 C 67.149 66.317 66.111 94.004 65.151 104.754 C 64.748 109.267 63.001 118.154 56.604 114.86 C 53.489 113.256 50.777 97.255 50.325 94.969 C 49.589 91.234 44.131 62.582 48.723 59.357 C 49.617 58.729 58.077 57.066 58.474 58.876 Z"/>
</svg>