<?xml version="1.0" encoding="utf-8"?>
<svg xmlns="http://www.w3.org/2000/svg" viewBox="0 0 500 500">
  <rect x="142.458" y="351.752" width="192.111" height="39.91" style="stroke: rgb(0, 0, 0); fill: rgb(247, 158, 0);"/>
  <path style="stroke: rgb(0, 0, 0); fill: rgb(242, 143, 34);" d="M 193.871 170.837 L 177.882 202.222 L 349.906 285.42 L 368.263 253.74 L 193.871 170.837 Z"/>
  <path style="stroke: rgb(0, 0, 0); fill: rgb(242, 143, 34);" d="M 158.341 262.809 L 148.866 298.635 L 338.062 339.494 L 347.537 307.518 L 158.341 262.809 Z"/>
  <path style="stroke: rgb(0, 0, 0); fill: rgb(242, 143, 34); stroke-width: 1px;" d="M 252.643 89.033 L 229.252 118.642 L 376.405 237.666 L 400.092 211.611 L 252.643 89.033 Z"/>
  <path style="stroke: rgb(0, 0, 0); fill: rgb(242, 143, 34); stroke-width: 1px;" d="M 326.071 20.131 L 299.423 42.634 L 416.968 192.747 L 444.8 171.725 L 326.071 20.131 Z"/>
  <g transform="matrix(0.175202, 0, 0, -0.175202, -23.792307, 509.523468)" fill="#000000" stroke="none" style="">
    <path d="M1935 2798 c-70 -46 -125 -102 -125 -126 0 -22 12 -39 398 -539 193 -250 271 -343 289 -348 20 -5 39 3 81 31 29 21 67 50 83 65 56 52 54 55 -228 421 -365 475 -382 496 -406 513 -30 21 -37 19 -92 -17z m193 -175 c66 -87 210 -275 321 -418 110 -143 201 -263 201 -267 0 -9 -127 -108 -139 -108 -13 0 -651 827 -651 843 1 14 119 107 136 107 6 0 65 -71 132 -157z" style="stroke-width: 11.4154px; stroke: rgb(0, 0, 0);"/>
    <path d="M1532 2405 c-77 -65 -127 -156 -104 -191 4 -6 193 -163 420 -348 413 -336 440 -355 477 -328 18 12 102 116 114 140 7 13 10 34 7 46 -3 14 -135 128 -343 297 -503 409 -502 409 -523 409 -10 0 -32 -11 -48 -25z m196 -138 c75 -62 257 -211 405 -331 147 -119 267 -222 267 -228 0 -12 -100 -138 -109 -138 -6 0 -791 637 -820 665 -11 11 -5 24 40 79 29 36 59 66 66 66 7 0 75 -51 151 -113z" style="stroke-width: 11.4154px; stroke: rgb(0, 0, 0);"/>
    <path d="M1212 1943 c-11 -10 -37 -55 -57 -100 -34 -74 -36 -84 -23 -108 11 -23 95 -66 492 -256 264 -126 492 -229 506 -229 36 0 52 20 96 118 l37 83 -20 27 c-14 19 -151 89 -494 254 -261 125 -484 227 -495 227 -12 1 -31 -7 -42 -16z m518 -254 c256 -122 469 -225 474 -230 10 -9 -52 -155 -69 -162 -11 -5 -942 436 -960 454 -12 12 59 159 78 159 7 0 222 -100 477 -221z" style="stroke: rgb(14, 14, 14); stroke-width: 11.4154px;"/>
    <path d="M1024 1422 c-18 -12 -31 -43 -49 -126 -18 -84 -12 -117 24 -131 9 -4 247 -57 529 -120 533 -118 548 -120 570 -78 6 10 18 57 28 106 l18 87 -24 24 c-21 20 -98 40 -528 135 -491 109 -545 118 -568 103z m544 -146 c282 -62 515 -116 519 -120 9 -8 -18 -143 -32 -162 -9 -14 -67 -3 -485 89 -261 58 -492 109 -513 112 -21 4 -41 14 -44 21 -7 18 29 174 40 174 1 0 233 -51 515 -114z" style="stroke: rgb(14, 14, 14); stroke-width: 11.4154px;"/>
    <path d="M931 884 c-17 -22 -21 -41 -21 -105 0 -88 11 -122 47 -138 34 -15 1052 -15 1086 0 36 16 47 50 47 138 0 64 -4 83 -21 105 l-20 26 -549 0 -549 0 -20 -26z m1104 -109 l0 -90 -535 0 -535 0 -3 79 c-2 44 -1 85 2 93 5 11 99 13 538 11 l533 -3 0 -90z" style="stroke-width: 17.1231px; stroke: rgb(0, 0, 0);"/>
    <path style="stroke: rgb(0, 0, 0); fill: rgb(80, 176, 207); stroke-linecap: round; stroke-linejoin: round; stroke-width: 57.077px;" d="M 474.005 1145.32 L 697.939 1117.47 C 701.45 1117.47 707.263 430.223 697.939 430.223 C 655.717 462.687 1097.04 497.397 1521.29 465.728 C 1908.11 436.854 2263.07 447.973 2280.93 434.084 L 2319.01 839.756 L 2292.51 1125.19 L 2524.17 1125.19 C 2491.87 1103.58 2497.12 116.051 2531.89 148.374 C 2538.01 133.082 523.883 97.033 481.726 202.427 C 552.632 202.427 475.725 1145.32 474.005 1145.32 Z"/>
  </g>
</svg>