<?xml version="1.0" ?><!DOCTYPE svg  PUBLIC '-//W3C//DTD SVG 1.1//EN'  'http://www.w3.org/Graphics/SVG/1.1/DTD/svg11.dtd'><svg height="512px" style="enable-background:new 0 0 512 512;" version="1.1" viewBox="0 0 512 512" width="512px" xml:space="preserve" xmlns="http://www.w3.org/2000/svg" xmlns:xlink="http://www.w3.org/1999/xlink"><g id="soundcloud__x2C__icons__x2C_social__x2C__media_x2C_"><g><g><g><path d="M118.095,374.935      L55.5,335.821l37.277,18.126c0,0-42.786-25.963-42.439-26.519c0,0,31.7,16.059,31.908,15.727      c0.627-1.003-36.87-23.039-36.87-23.039c0.426-0.681,31.511,16.593,31.511,16.593s-33.253-20.738-33.235-20.768l27.355,12.514      L40.61,309.461c0.394-0.63,23.833,9.828,23.833,9.828c0.537-0.859-27.016-16.175-26.699-16.684l24.375,11.659      c0,0-27.072-16.035-26.676-16.669l23.142,9.737c0.372-0.595-26.449-15.663-26.061-16.285l22.623,9.006      c0.386-0.617-24.274-14.487-23.968-14.977l20.659,8.102c0,0-22.15-13.822-22.142-13.836c0.393-0.629,21.15,10.101,21.319,9.83      l-22.806-14.251c0.145-0.232,20.625,9.818,20.647,9.781c0.435-0.695-20.406-12.751-20.406-12.751      c0.064-0.103,19.875,9.276,19.875,9.276l-20.448-12.777l18.692,7.971c0.068-0.108-18.405-11.501-18.405-11.501l18.585,7.972      C47,272.49,27.412,260.81,27.412,260.81l17.479,6.408c0.25-0.399-19.114-11.944-19.114-11.944l18.768,8.355l-17.735-11.083      c0.197-0.316,17.379,6.849,17.587,6.517C44.435,259.002,27.01,248.2,27.01,248.2l16.989,5.538      c0.098-0.157-17.563-10.975-17.563-10.975c0.249-0.398,16.7,6.3,16.999,5.822L26.57,238.046l17.971,8.01l-17.456-10.907      l17.487,6.659l-17.619-11.009c0.238-0.38,16.539,5.469,16.539,5.469s-16.138-9.728-15.978-9.984      c0.097-0.156,16.91,7.304,17.12,6.968L28.421,223.12l16.855,7.017l-16.297-10.184c0,0,15.682,6.771,15.797,6.587      c0.198-0.316-16.014-10.006-16.014-10.006l16.841,5.765c0.229-0.367-15.28-9.472-15.246-9.526l16.658,7.03      c0.017-0.027-15.666-9.789-15.666-9.789c0.223-0.357,14.793,5.672,14.793,5.672c0.167-0.267-15.173-9.173-15.035-9.395      c0,0,16.877,7.636,17.122,7.245c0,0-16.136-9.424-15.84-9.897c0.275-0.44,15.335,5.828,15.335,5.828      c0.305-0.488-14.056-8.513-13.935-8.708c0,0,14.357,6.054,14.625,5.625l-13.411-8.38c0.154-0.247,15.15,5.003,15.359,4.668      c0.044-0.071-14.896-9.308-14.896-9.308l16.622,5.229c0,0-14.126-8.188-13.839-8.648c0.025-0.04,14.924,4.89,15.108,4.596      c0,0-14.414-8.552-14.209-8.879c0.277-0.443,14.732,6.522,14.944,6.184l-14.748-9.215c0.31-0.496,17.247,5.978,17.247,5.978      c0.309-0.495-15.406-9.29-15.254-9.532c0.014-0.023,15.108,5.498,15.276,5.229l-13.613-8.506l15.644,6.129l-13.645-8.526      c0,0,15.208,6.005,15.391,5.712l-13.312-8.318l13.872,5.012l-13.01-8.129c0.062-0.099,14.633,5.119,14.645,5.102      c0.19-0.304-13.567-8.478-13.567-8.478c0.086-0.138,14.981,5.323,15.007,5.281c0,0-12.908-8.035-12.894-8.057      c0.149-0.239,15.308,6.506,15.37,6.407c0,0-13.636-8.196-13.49-8.43l14.979,5.651c0.283-0.453-13.59-8.492-13.59-8.492      l15.677,4.713c0,0-13.022-7.585-12.774-7.982c0.21-0.336,13.541,5.548,13.773,5.175l-12.334-7.708      c0.013-0.02,14.663,4.644,14.792,4.437c0.03-0.048-12.471-7.793-12.471-7.793l14.149,5.219c0,0-13.033-7.663-12.816-8.009      c0.23-0.369,15.157,5.738,15.263,5.568c0.227-0.363-13.187-8.24-13.187-8.24s16.06,5.915,16.167,5.744      c0,0-14.575-9.058-14.553-9.094c0.314-0.502,16.545,5.253,16.545,5.253s-12.746-7.761-12.655-7.907l14.929,4.925l-13.622-8.512      l15.496,6.052c0,0-12.848-7.694-12.698-7.935c0.203-0.324,16.297,5.302,16.407,5.125l-14.313-8.944      c0,0,15.861,7.029,16.143,6.579c0.275-0.441-13.5-8.436-13.5-8.436c0.017-0.027,16.221,6.311,16.412,6.006l-13.901-8.687      l15.036,5.701c0,0-12.1-7.536-12.089-7.554c0.208-0.333,15.074,5.213,15.074,5.213l-12.764-7.976c0,0,15.397,5.402,15.502,5.235      c0,0-13.197-8.076-13.121-8.199c0.093-0.148,15.414,6.004,15.414,6.004c0.021-0.033-12.738-7.379-12.478-7.797      c0.041-0.064,16.327,5.504,16.418,5.358c0.099-0.159-14.369-8.334-14.079-8.797c0,0,16.79,6.342,16.813,6.304      c0.178-0.285-12.919-8.073-12.919-8.073c0.069-0.111,15.077,6.35,15.323,5.956l-13.018-8.134c0,0,15.634,5.456,15.836,5.131      c0,0-13.688-8.324-13.585-8.489c0,0,15.826,6.506,15.883,6.415l-13.011-8.13c0,0,17.433,5.985,17.499,5.88      c0.031-0.051-14.505-9.063-14.505-9.063c0.278-0.446,17.424,7.051,17.75,6.528c0.142-0.226-14.34-8.961-14.34-8.961      s15.89,6.891,16.074,6.597c0,0-13.741-8.242-13.586-8.49l16.568,6.728l-13.399-8.373c0.043-0.069,16.739,5.36,16.739,5.36      c0.101-0.161-13.524-8.451-13.524-8.451c0.146-0.232,17.051,7.438,17.206,7.19c0.192-0.307-14.269-8.916-14.269-8.916      c0.324-0.52,17.266,7.095,17.413,6.859c0.231-0.369-13.444-8.295-13.396-8.371c0.082-0.131,15.879,5.663,15.879,5.663      c0.205-0.328-12.334-7.708-12.334-7.708c0.262-0.42,16.707,6.172,16.707,6.172L133.76,80.1c0,0,16.167,7.639,16.45,7.186      c0.14-0.224-14.48-8.924-14.424-9.013l18.456,6.976c0.303-0.484-14.515-9.07-14.515-9.07l18.123,7.392      c0.235-0.375-15.159-8.849-14.879-9.297c0.269-0.431,18.2,6.854,18.27,6.743l-13.142-8.211      c0.271-0.433,18.625,6.664,18.625,6.664l-13.994-8.744c0,0,17.847,7.205,17.996,6.968c0.185-0.296-15.445-9.651-15.445-9.651      c0.057-0.091,19.796,7.307,19.796,7.307c0.214-0.343-15.139-9.46-15.139-9.46l20.787,8.005      c0.333-0.532-15.872-9.444-15.659-9.785c0.258-0.413,21.09,8.017,21.09,8.017c0.037-0.059-15.592-9.743-15.592-9.743      c0.094-0.151,19.145,8.392,19.145,8.392c0.044-0.07-16.008-10.003-16.008-10.003c0.221-0.354,18.715,8.124,18.761,8.051      c0.316-0.506-15.958-9.377-15.691-9.804c0.081-0.128,22.036,8.716,22.036,8.716s-17.444-10.142-17.104-10.687      c0,0,21.626,8.768,21.71,8.634c0.162-0.259-15.659-9.785-15.659-9.785c0.348-0.557,20.851,8.915,20.851,8.915      c0.05-0.08-18.199-11.213-18.127-11.328c0.333-0.532,22.819,10.306,22.819,10.306c0.271-0.434-17.699-10.882-17.619-11.01      c0.112-0.179,21.208,8.8,21.208,8.8c0.203-0.326-17.423-10.201-17.114-10.694c0,0,21.202,10.799,21.545,10.251      c0.348-0.557-17-9.846-16.65-10.404c0.133-0.214,22.075,9.518,22.357,9.067c0.165-0.264-18.486-11.552-18.486-11.552      c0.436-0.698,24.651,10.552,24.72,10.442c0.043-0.069-17.76-11.098-17.76-11.098l24.196,10.08      c0.313-0.5-17.944-11.212-17.944-11.212l23.567,10.928c0.154-0.246-19.241-12.023-19.241-12.023      c0.372-0.595,24.183,11.861,24.438,11.454c0,0-20.776-12.886-20.732-12.955l26.013,12.695l-19.798-12.371l24.62,12.063      c0.251-0.401-21.976-13.229-21.75-13.59l28.591,13.479c0.444-0.712-22.449-14.027-22.449-14.027s31.375,14.874,31.402,14.833      c0.365-0.585-23.462-14.634-23.45-14.653c0,0,30.204,14.806,30.423,14.458c0.434-0.695-24.423-15.261-24.423-15.261      s30.436,16.208,30.949,15.386l-25.895-16.181l33.179,17.438c0.309-0.496-26.856-16.782-26.856-16.782      s34.239,18.749,34.897,17.694c0.046-0.073-28.528-17.827-28.528-17.827c0.167-0.268,39.286,19.707,39.286,19.707      c0.027-0.043-32.623-19.575-32.259-20.157c0,0,43,23.157,43.157,22.905l-35.522-22.197c0.572-0.916,47.245,26.021,47.245,26.021      c0.119-0.19-39.557-24.718-39.557-24.718c0.838-1.341,57.536,32.665,58.197,31.606l-49.708-31.061" style="fill:none;stroke:#231F20;stroke-width:2;stroke-linecap:round;stroke-linejoin:round;"/><path d="M133.724,402.984      l-25.395-15.868c0.57-0.912,57.765,31.38,57.765,31.38c0.567-0.907-83.451-52.146-83.451-52.146s97.183,60.247,98.792,57.671      c0,0-111.865-65.417-109.85-68.642c0.435-0.695,124.683,73.108,124.683,73.108c1.646-2.635-135.889-79.341-133.385-83.348      l142.547,85.963c0,0-148.294-92.186-148.079-92.53c2.285-3.656,157.708,94.571,157.708,94.571      c0.946-1.514-52.333-32.327-52.165-32.597c0.13-0.208,60.3,35.428,60.742,34.721l-45.139-28.206      c0.367-0.588,54.437,30.31,54.674,29.931c0,0-40.543-24.526-40.18-25.107l49.61,26.326c0.71-1.137-35.938-22.456-35.938-22.456      l42.475,22.766c0,0-31.77-19.379-31.557-19.719c0.121-0.193,38.414,20.411,38.414,20.411      c0.337-0.539-29.464-18.411-29.464-18.411c0.676-1.082,36.124,19.36,36.124,19.36c0.051-0.081-30.239-18.543-30.081-18.797      c0.707-1.131,37.204,19.008,37.285,18.878c0,0-27.479-16.267-27.073-16.917l33.463,16.524l-26.49-16.553      c0.058-0.092,32.969,16.944,32.969,16.944l-25.517-15.944l30.362,15.429l-24.79-15.49c0.123-0.197,31.653,15.204,31.653,15.204      c0.065-0.104-23.979-13.916-23.499-14.684c0,0,28.851,14.928,29.146,14.455c0,0-22.598-13.094-22.137-13.833      c0.495-0.792,27.452,13.992,27.585,13.78c0.46-0.736-23.361-14.598-23.361-14.598s29.443,14.28,29.751,13.788      c0.249-0.398-21.64-13.521-21.64-13.521l25.624,12.262l-20.624-12.888l24.62,11.959l-20.193-12.617      c0.27-0.431,27.367,12.037,27.367,12.037l-19.954-12.469l24.284,10.843c0.235-0.376-19.205-11.191-18.841-11.773      c0.317-0.509,24.644,11.76,25.044,11.119c0.064-0.103-20.978-12.691-20.79-12.99c0.095-0.152,24.661,11.488,24.661,11.488      s-19.525-12.129-19.493-12.181l24.817,11.276c0.291-0.466-20.207-12.627-20.207-12.627l24.576,10.666      c0,0-18.018-10.703-17.768-11.102c0,0,21.458,10.156,21.895,9.458c0,0-18.911-11.167-18.619-11.635l23.516,10.573      c0.11-0.177-19.125-11.313-18.839-11.771c0,0,22.589,9.396,22.605,9.369c0.267-0.427-17.564-10.976-17.564-10.976      c0.389-0.621,22.155,9.628,22.155,9.628c0.136-0.217-17.926-11.202-17.926-11.202c0.425-0.68,22.198,9.739,22.198,9.739      c0.385-0.614-18.464-11.3-18.357-11.471c0.048-0.077,22.117,8.755,22.117,8.755c0.134-0.215-17.185-10.131-16.911-10.567      c0.403-0.646,20.509,9.446,20.509,9.446s-18.09-10.71-17.823-11.138c0,0,22.341,9.377,22.41,9.266      c0.133-0.212-18.14-11.335-18.14-11.335l20.684,9.207c0.003-0.006-16.358-10.222-16.358-10.222      c0.047-0.076,20.935,7.972,20.935,7.972c0.126-0.201-17.65-10.627-17.47-10.916l21.011,8.733l-15.78-9.861      c0.174-0.278,17.392,7.521,17.496,7.352c0.071-0.113-15.783-9.862-15.783-9.862l19.463,7.777l-15.947-9.965      c0,0,18.772,8.265,18.993,7.911c0.131-0.209-15.819-9.885-15.819-9.885c0.09-0.144,18.48,8.078,18.48,8.078      c0.202-0.324-15.601-9.128-15.321-9.573c0,0,18.583,8.251,18.841,7.84c0,0-16.126-9.466-15.852-9.905l19.063,7.779      c0.203-0.325-15.637-9.16-15.362-9.599c0.017-0.027,18.147,7.123,18.268,6.931c0.161-0.259-16.379-10.234-16.379-10.234      c0.281-0.449,18.997,8.754,19.31,8.254c0.173-0.277-16.592-9.793-16.334-10.206c0.086-0.138,19.036,7.634,19.062,7.593      c0,0-15.816-9.819-15.787-9.865c0,0,17.634,7.841,17.806,7.565c0.328-0.525-15.861-9.911-15.861-9.911s17.797,6.747,17.852,6.66      c0.284-0.454-14.51-9.065-14.51-9.065c0.169-0.271,18.4,7.144,18.4,7.144c0.082-0.131-15.979-9.488-15.756-9.846l17.642,7.647      c0,0-15.216-8.775-14.887-9.302c0.006-0.009,16.535,6.094,16.634,5.936c0.299-0.479-14.765-8.998-14.662-9.162      c0.033-0.054,16.585,7.599,16.864,7.151c0.029-0.047-14.418-8.395-14.142-8.837c0.272-0.436,17.532,6.969,17.58,6.892      l-16.38-10.234c0.173-0.276,17.143,7.2,17.392,6.801l-14.457-9.034c0,0,18.022,7.271,18.244,6.917l-15.873-9.918      c0,0,17.29,7.922,17.396,7.754c0,0-15.154-8.842-14.872-9.293c0.095-0.151,16.396,5.807,16.396,5.807l-14.138-8.834      c0.251-0.401,16.205,5.496,16.205,5.496l-14.144-8.838l16.644,7.253c0.072-0.116-14.69-9.173-14.688-9.178      c0.332-0.53,17.217,5.972,17.355,5.749c0.27-0.431-15.357-9.056-15.113-9.444c0.256-0.41,16.033,4.914,16.033,4.914      s-14.363-8.526-14.161-8.849c0.098-0.156,16.837,5.474,16.837,5.474l-14.384-8.988l15.606,6.272      c0.167-0.267-14.924-9.326-14.924-9.326c0.302-0.482,15.974,6.762,16.175,6.44c0.042-0.066-13.244-8.276-13.244-8.276      c0.011-0.018,16.73,5.436,16.73,5.436c0.209-0.333-15.281-9.549-15.281-9.549c0.056-0.089,15.335,6.282,15.451,6.096      c0.139-0.222-13.616-8.508-13.616-8.508l16.015,6.62c0.201-0.322-15.411-9.631-15.411-9.631c0.2-0.32,15.764,6.632,15.764,6.632      l-15.227-9.515c0,0,17.182,7.515,17.446,7.092c0.159-0.255-16.39-9.571-16.089-10.054c0.088-0.141,17.031,7.122,17.031,7.122      l-15.327-9.577c0.135-0.216,15.775,6.358,15.775,6.358l-13.808-8.627c0,0,16.028,6.013,16.212,5.72      c0.221-0.354-16.295-10.183-16.295-10.183s16.356,5.931,16.559,5.607l-14.885-9.301l17.475,5.789      c0.091-0.145-16.248-9.881-16.126-10.076c0.26-0.415,17.352,7.143,17.633,6.692c0.053-0.085-16.316-9.604-16.051-10.029      c0.052-0.084,15.472,6.719,15.76,6.258c0.29-0.464-14.41-9.005-14.41-9.005s15.435,6.129,15.651,5.781      c0.116-0.186-15.885-9.67-15.77-9.854c0.18-0.288,17.748,6.639,17.748,6.639c0.122-0.195-15.843-9.9-15.843-9.9      c0.289-0.463,16.453,5.625,16.453,5.625l-15.685-9.801c0,0,16.511,6.704,16.626,6.52c0.196-0.314-15.791-9.39-15.576-9.733      c0.179-0.285,15.242,6.76,15.506,6.336l-15.123-9.45c0.259-0.414,16.142,6.104,16.142,6.104      c0.337-0.539-16.827-10.045-16.615-10.383c0.008-0.013,17.125,7.003,17.125,7.003s-15.478-9.396-15.354-9.595      c0.169-0.271,16.767,7.028,16.771,7.021c0.057-0.092-16.707-9.771-16.406-10.252c0.084-0.134,16.002,6.549,16.002,6.549      s-16.821-9.78-16.493-10.306c0,0,16.534,6.541,16.665,6.33c0.304-0.485-16.557-10.346-16.557-10.346l16.647,6.313      c0.088-0.142-15.496-8.857-15.125-9.451c0.195-0.312,16.564,6.471,16.747,6.179c0.135-0.217-16.765-10.445-16.751-10.467      c0.058-0.092,16.598,6.493,16.717,6.301c0.371-0.593-17.917-10.988-17.824-11.138l17.509,5.874      c0.134-0.215-17.723-11.05-17.712-11.067l19.071,8.54c0.37-0.591-18.323-11.449-18.323-11.449l17.555,6.611l-17.022-10.637      l16.503,7.173c0.128-0.205-17.356-10.845-17.356-10.845c0.106-0.17,17.196,6.687,17.196,6.687L468.05,224.32      c0.185-0.295,16.85,6.191,17.184,5.657c0.01-0.016-18.877-11.796-18.877-11.796s18.569,7.924,18.801,7.553      c0.145-0.232-18.782-10.96-18.433-11.519l17.225,6.338c0.227-0.363-18.496-11.07-18.277-11.421      c0.203-0.324,18.227,7.695,18.227,7.695c0.205-0.327-18.671-11.667-18.671-11.667c0.294-0.469,18.844,6.798,18.896,6.715      c0,0-22.239-12.892-21.788-13.615l20.27,9.174l-20.359-12.722l18.979,7.376c0.06-0.095-20.692-12.829-20.647-12.902      c0.338-0.54,21.042,9.07,21.042,9.07c0.079-0.127-22.81-13.172-22.324-13.949c0.188-0.302,20.377,9.749,20.666,9.287      l-22.482-14.049c0.43-0.688,21.131,9.716,21.131,9.716l-23.828-14.889l21.853,9.858c0,0-22.791-14.042-22.702-14.186      c0.112-0.18,21.121,10.643,21.551,9.956c0,0-24.253-14.46-23.941-14.959l22.162,9.004c0,0-26.074-15.688-25.803-16.124      l24.038,11.06c0.532-0.852-28.552-17.754-28.513-17.816l27.109,13.784l-29.332-18.329c0.201-0.322,24.515,11.453,24.974,10.717      l-31.555-19.718c0.018-0.027,28.725,15.576,29.194,14.825c0.431-0.69-32.66-20.409-32.66-20.409l29.896,14.748      c0,0-38.26-22.619-37.681-23.545c0.479-0.764,33.148,17.134,33.663,16.311l-44.309-27.688c0,0,39.87,21.473,40.346,20.712      c0,0-60.677-37.779-60.615-37.877c0.099-0.157,53.479,28.337,53.479,28.337c1.415-2.265-122.276-76.407-122.276-76.407      c0.446-0.714,117.265,69.783,117.265,69.783s-109.82-67.357-109.251-68.268c1.935-3.096,98.283,56.501,98.283,56.501      l-81.937-51.199c1.107-1.772,64.971,38.577,66.148,36.692l-46.604-29.122" style="fill:none;stroke:#231F20;stroke-width:2;stroke-linecap:round;stroke-linejoin:round;"/><path d="M124.428,294.688      l-3.089-1.93c0.098-0.156,11.034,2.178,11.034,2.178c0.087-0.14-12.778-7.984-12.778-7.984s14.742,5.647,14.965,5.29      c0,0-15.849-9.248-15.555-9.72c0.054-0.086,16.882,5.747,16.882,5.747c0.223-0.356-16.949-9.836-16.61-10.379l17.435,7.784      c0,0-18.55-11.531-18.523-11.574c0.238-0.381,17.805,7.149,17.805,7.149c0.33-0.528-18.023-11.132-17.965-11.226      c0.038-0.062,18.594,8.672,18.724,8.465l-17.229-10.767c0.109-0.175,17.254,6.705,17.324,6.593c0,0-15.295-9.264-15.163-9.475      l14.42,4.336c0.18-0.288-9.521-5.949-9.521-5.949" style="fill:none;stroke:#231F20;stroke-width:2;stroke-linecap:round;stroke-linejoin:round;"/><path d="M203.187,291.636      l-3.497-2.185c0.104-0.167,11.73,2.613,11.73,2.613c0.093-0.149-13.647-8.527-13.647-8.527s15.654,6.251,15.893,5.869      c0,0-16.685-9.736-16.375-10.232c0.057-0.091,17.852,6.354,17.852,6.354c0.233-0.373-17.808-10.338-17.453-10.905l18.334,8.347      c0,0-19.369-12.04-19.341-12.085c0.251-0.403,18.729,7.726,18.729,7.726c0.35-0.56-19.132-11.816-19.07-11.916      c0.041-0.065,19.777,9.432,19.915,9.21l-19.58-12.235c0.126-0.202,19.707,8.262,19.788,8.132c0,0-20.489-12.403-20.309-12.69      l19.948,7.79c0.392-0.627-20.064-12.538-20.064-12.538l19.287,8.277c0,0-18.399-11.216-18.272-11.418      c0.055-0.088,18.3,7.843,18.3,7.843c0.211-0.339-17.879-11.172-17.879-11.172c0.341-0.546,18.849,8.565,18.849,8.565      c0.033-0.054-20.024-12.28-19.92-12.447c0.354-0.567,19.419,7.804,19.459,7.739c0,0-18.899-11.177-18.615-11.632l17.813,6.746      L195.79,234.82c0.034-0.054,19.944,8.805,19.944,8.805l-18.518-11.571l17.963,7.681l-16.836-10.52      c0.063-0.101,16.9,5.985,16.9,5.985c0.037-0.058-13.002-7.534-12.736-7.959c0,0,12.069,4.042,12.185,3.856      c0,0-6.443-3.695-6.294-3.933" style="fill:none;stroke:#231F20;stroke-width:2;stroke-linecap:round;stroke-linejoin:round;"/><path d="M161.957,292.786      l-3.06-1.912c0.096-0.153,10.906,2.1,10.906,2.1c0.088-0.141-12.825-8.015-12.825-8.015s14.752,5.653,14.976,5.296      c0,0-15.808-9.224-15.514-9.694c0.054-0.085,16.81,5.703,16.81,5.703c0.221-0.354-16.813-9.757-16.477-10.296l17.316,7.711      c0,0-18.392-11.433-18.366-11.476c0.237-0.38,17.698,7.082,17.698,7.082c0.332-0.531-18.153-11.212-18.094-11.307      c0.039-0.062,18.763,8.781,18.894,8.571l-18.603-11.624c0.119-0.19,18.674,7.606,18.751,7.483c0,0-19.5-11.806-19.33-12.078      l18.902,7.137c0.372-0.595-19.083-11.924-19.083-11.924l18.253,7.63c0,0-17.229-10.501-17.11-10.691      c0.051-0.082,17.087,7.085,17.087,7.085c0.187-0.299-15.62-9.76-15.62-9.76c0.297-0.476,16.544,7.125,16.544,7.125      c0.026-0.042-15.818-9.702-15.736-9.833c0.271-0.433,15.149,5.115,15.18,5.065c0,0-10.489-6.189-10.325-6.452" style="fill:none;stroke:#231F20;stroke-width:2;stroke-linecap:round;stroke-linejoin:round;"/><path d="M239.752,291.793      l-2.847-1.778c0.091-0.146,10.373,1.765,10.373,1.765c0.09-0.144-13.133-8.206-13.133-8.206s14.638,5.578,14.859,5.224      c0,0-15.688-9.154-15.397-9.621c0.052-0.084,16.478,5.495,16.478,5.495c0.216-0.345-16.349-9.486-16.021-10.012l17.069,7.557      c0,0-18.064-11.229-18.038-11.271c0.234-0.375,17.489,6.951,17.489,6.951c0.327-0.522-17.841-11.02-17.783-11.111      c0.039-0.062,18.538,8.636,18.667,8.429l-18.291-11.43c0.118-0.188,18.474,7.479,18.549,7.357c0,0-19.187-11.615-19.019-11.884      l18.712,7.019c0.366-0.585-18.773-11.731-18.773-11.731l18.039,7.497c0,0-17.097-10.42-16.979-10.609      c0.051-0.082,17.048,7.061,17.048,7.061c0.197-0.316-16.584-10.363-16.584-10.363c0.317-0.508,17.592,7.78,17.592,7.78      c0.031-0.05-18.721-11.481-18.623-11.637c0.33-0.527,18.176,7.021,18.213,6.961c0,0-17.582-10.396-17.316-10.821l16.566,5.967      l-17.97-11.229c0.031-0.051,18.687,8.019,18.687,8.019l-18.057-11.283l17.543,7.418l-18.156-11.345      c0.068-0.109,18.273,6.844,18.273,6.844c0.05-0.08-18.162-10.533-17.795-11.12c0,0,17.966,7.866,18.144,7.581      c0,0-17.57-10.169-17.206-10.752c0.312-0.498,17.735,7.811,17.818,7.677c0.362-0.58-18.523-11.575-18.523-11.575      s18.4,7.11,18.586,6.813s-15.995-9.995-15.995-9.995l15.041,5.648l-12.943-8.088l12.085,4.127l-9.128-5.704" style="fill:none;stroke:#231F20;stroke-width:2;stroke-linecap:round;stroke-linejoin:round;"/><path d="M351.846,238.607      l-79.249-49.52l77.3,43.134c0,0-70.167-42.593-69.604-43.494c0,0,66.818,38.543,67.268,37.824      c1.046-1.674-61.956-38.715-61.956-38.715c0.827-1.323,60.006,34.397,60.006,34.397s-53.924-33.629-53.895-33.677l49.938,26.625      l-40.569-25.351c0.476-0.761,28.354,12.855,28.354,12.855c0.25-0.4-11.589-6.912-11.441-7.149" style="fill:none;stroke:#231F20;stroke-width:2;stroke-linecap:round;stroke-linejoin:round;"/><path d="M271.395,294.361      l-0.586-0.365c0.084-0.134,9.527,1.237,9.527,1.237c0.062-0.099-8.963-5.602-8.963-5.602s14.826,5.703,15.051,5.343      c0,0-15.727-9.176-15.435-9.644c0.075-0.12,23.097,9.63,23.097,9.63c0.295-0.473-23.031-13.391-22.581-14.109l28.664,14.802      c0,0-29.638-18.424-29.595-18.493c0.505-0.807,36.092,18.576,36.092,18.576c0.661-1.058-36.454-22.518-36.337-22.706      c0.091-0.146,42.656,24.108,42.966,23.613l-42.552-26.589c0.338-0.54,50.111,27.563,50.328,27.216      c0,0-51.207-30.973-50.746-31.71l58.847,32.097c1.17-1.873-58.85-36.773-58.85-36.773l65.015,36.851      c0,0-64.331-39.259-63.909-39.935c0.227-0.36,70.544,40.488,70.544,40.488c0.776-1.242-70.035-43.763-70.035-43.763      c1.472-2.354,77.04,44.927,77.04,44.927c0.133-0.212-78.446-48.098-78.032-48.76c1.674-2.68,85.695,49.556,85.888,49.248      c0,0-86.182-51.081-84.937-53.074l91.961,53.078l-93.313-58.308c0.179-0.285,99.134,58.288,99.134,58.288l-98.459-61.523      l102.074,60.239l-102.644-64.139c0.436-0.697,107.256,62.446,107.256,62.446c0.292-0.467-108.858-63.268-106.722-66.687      c0,0,109.12,67.017,110.283,65.156c0,0-111.484-64.801-109.299-68.298c2.1-3.361,111.962,67.759,112.525,66.857      c2.271-3.635-113.565-70.964-113.565-70.964s115.5,70.193,116.769,68.163c1.313-2.101-115.811-72.366-115.811-72.366      l116.9,69.297l-117.14-73.198l118.524,70.638L271.521,211.28c1.269-2.031,121.735,71.005,121.735,71.005l-120.995-75.606      l121.46,71.566c1.435-2.297-123.855-72.457-121.637-76.007c1.662-2.659,121.287,75.908,123.377,72.564      c0.4-0.641-125.803-76.016-124.637-77.882c0.504-0.806,124.344,73.776,124.344,73.776s-124.148-77.112-123.939-77.446      l124.289,73.435c1.876-3.003-124.532-77.817-124.532-77.817l122.445,71.822c0,0-35.427-21.075-34.95-21.839      c0,0,31.073,16.633,31.72,15.598c0,0-26.411-15.595-26.003-16.249l20.251,9.112c0.058-0.093-10.314-6.109-10.164-6.351" style="fill:none;stroke:#231F20;stroke-width:2;stroke-linecap:round;stroke-linejoin:round;"/></g><g><path d="M118.095,374.935      L55.5,335.821l37.277,18.126c0,0-42.786-25.963-42.439-26.519c0,0,31.7,16.059,31.908,15.727      c0.627-1.003-36.87-23.039-36.87-23.039c0.426-0.681,31.511,16.593,31.511,16.593s-33.253-20.738-33.235-20.768l27.355,12.514      L40.61,309.461c0.394-0.63,23.833,9.828,23.833,9.828c0.537-0.859-27.016-16.175-26.699-16.684l24.375,11.659      c0,0-27.072-16.035-26.676-16.669l23.142,9.737c0.372-0.595-26.449-15.663-26.061-16.285l22.623,9.006      c0.386-0.617-24.274-14.487-23.968-14.977l20.659,8.102c0,0-22.15-13.822-22.142-13.836c0.393-0.629,21.15,10.101,21.319,9.83      l-22.806-14.251c0.145-0.232,20.625,9.818,20.647,9.781c0.435-0.695-20.406-12.751-20.406-12.751      c0.064-0.103,19.875,9.276,19.875,9.276l-20.448-12.777l18.692,7.971c0.068-0.108-18.405-11.501-18.405-11.501l18.585,7.972      C47,272.49,27.412,260.81,27.412,260.81l17.479,6.408c0.25-0.399-19.114-11.944-19.114-11.944l18.768,8.355l-17.735-11.083      c0.197-0.316,17.379,6.849,17.587,6.517C44.435,259.002,27.01,248.2,27.01,248.2l16.989,5.538      c0.098-0.157-17.563-10.975-17.563-10.975c0.249-0.398,16.7,6.3,16.999,5.822L26.57,238.046l17.971,8.01l-17.456-10.907      l17.487,6.659l-17.619-11.009c0.238-0.38,16.539,5.469,16.539,5.469s-16.138-9.728-15.978-9.984      c0.097-0.156,16.91,7.304,17.12,6.968L28.421,223.12l16.855,7.017l-16.297-10.184c0,0,15.682,6.771,15.797,6.587      c0.198-0.316-16.014-10.006-16.014-10.006l16.841,5.765c0.229-0.367-15.28-9.472-15.246-9.526l16.658,7.03      c0.017-0.027-15.666-9.789-15.666-9.789c0.223-0.357,14.793,5.672,14.793,5.672c0.167-0.267-15.173-9.173-15.035-9.395      c0,0,16.877,7.636,17.122,7.245c0,0-16.136-9.424-15.84-9.897c0.275-0.44,15.335,5.828,15.335,5.828      c0.305-0.488-14.056-8.513-13.935-8.708c0,0,14.357,6.054,14.625,5.625l-13.411-8.38c0.154-0.247,15.15,5.003,15.359,4.668      c0.044-0.071-14.896-9.308-14.896-9.308l16.622,5.229c0,0-14.126-8.188-13.839-8.648c0.025-0.04,14.924,4.89,15.108,4.596      c0,0-14.414-8.552-14.209-8.879c0.277-0.443,14.732,6.522,14.944,6.184l-14.748-9.215c0.31-0.496,17.247,5.978,17.247,5.978      c0.309-0.495-15.406-9.29-15.254-9.532c0.014-0.023,15.108,5.498,15.276,5.229l-13.613-8.506l15.644,6.129l-13.645-8.526      c0,0,15.208,6.005,15.391,5.712l-13.312-8.318l13.872,5.012l-13.01-8.129c0.062-0.099,14.633,5.119,14.645,5.102      c0.19-0.304-13.567-8.478-13.567-8.478c0.086-0.138,14.981,5.323,15.007,5.281c0,0-12.908-8.035-12.894-8.057      c0.149-0.239,15.308,6.506,15.37,6.407c0,0-13.636-8.196-13.49-8.43l14.979,5.651c0.283-0.453-13.59-8.492-13.59-8.492      l15.677,4.713c0,0-13.022-7.585-12.774-7.982c0.21-0.336,13.541,5.548,13.773,5.175l-12.334-7.708      c0.013-0.02,14.663,4.644,14.792,4.437c0.03-0.048-12.471-7.793-12.471-7.793l14.149,5.219c0,0-13.033-7.663-12.816-8.009      c0.23-0.369,15.157,5.738,15.263,5.568c0.227-0.363-13.187-8.24-13.187-8.24s16.06,5.915,16.167,5.744      c0,0-14.575-9.058-14.553-9.094c0.314-0.502,16.545,5.253,16.545,5.253s-12.746-7.761-12.655-7.907l14.929,4.925l-13.622-8.512      l15.496,6.052c0,0-12.848-7.694-12.698-7.935c0.203-0.324,16.297,5.302,16.407,5.125l-14.313-8.944      c0,0,15.861,7.029,16.143,6.579c0.275-0.441-13.5-8.436-13.5-8.436c0.017-0.027,16.221,6.311,16.412,6.006l-13.901-8.687      l15.036,5.701c0,0-12.1-7.536-12.089-7.554c0.208-0.333,15.074,5.213,15.074,5.213l-12.764-7.976c0,0,15.397,5.402,15.502,5.235      c0,0-13.197-8.076-13.121-8.199c0.093-0.148,15.414,6.004,15.414,6.004c0.021-0.033-12.738-7.379-12.478-7.797      c0.041-0.064,16.327,5.504,16.418,5.358c0.099-0.159-14.369-8.334-14.079-8.797c0,0,16.79,6.342,16.813,6.304      c0.178-0.285-12.919-8.073-12.919-8.073c0.069-0.111,15.077,6.35,15.323,5.956l-13.018-8.134c0,0,15.634,5.456,15.836,5.131      c0,0-13.688-8.324-13.585-8.489c0,0,15.826,6.506,15.883,6.415l-13.011-8.13c0,0,17.433,5.985,17.499,5.88      c0.031-0.051-14.505-9.063-14.505-9.063c0.278-0.446,17.424,7.051,17.75,6.528c0.142-0.226-14.34-8.961-14.34-8.961      s15.89,6.891,16.074,6.597c0,0-13.741-8.242-13.586-8.49l16.568,6.728l-13.399-8.373c0.043-0.069,16.739,5.36,16.739,5.36      c0.101-0.161-13.524-8.451-13.524-8.451c0.146-0.232,17.051,7.438,17.206,7.19c0.192-0.307-14.269-8.916-14.269-8.916      c0.324-0.52,17.266,7.095,17.413,6.859c0.231-0.369-13.444-8.295-13.396-8.371c0.082-0.131,15.879,5.663,15.879,5.663      c0.205-0.328-12.334-7.708-12.334-7.708c0.262-0.42,16.707,6.172,16.707,6.172L133.76,80.1c0,0,16.167,7.639,16.45,7.186      c0.14-0.224-14.48-8.924-14.424-9.013l18.456,6.976c0.303-0.484-14.515-9.07-14.515-9.07l18.123,7.392      c0.235-0.375-15.159-8.849-14.879-9.297c0.269-0.431,18.2,6.854,18.27,6.743l-13.142-8.211      c0.271-0.433,18.625,6.664,18.625,6.664l-13.994-8.744c0,0,17.847,7.205,17.996,6.968c0.185-0.296-15.445-9.651-15.445-9.651      c0.057-0.091,19.796,7.307,19.796,7.307c0.214-0.343-15.139-9.46-15.139-9.46l20.787,8.005      c0.333-0.532-15.872-9.444-15.659-9.785c0.258-0.413,21.09,8.017,21.09,8.017c0.037-0.059-15.592-9.743-15.592-9.743      c0.094-0.151,19.145,8.392,19.145,8.392c0.044-0.07-16.008-10.003-16.008-10.003c0.221-0.354,18.715,8.124,18.761,8.051      c0.316-0.506-15.958-9.377-15.691-9.804c0.081-0.128,22.036,8.716,22.036,8.716s-17.444-10.142-17.104-10.687      c0,0,21.626,8.768,21.71,8.634c0.162-0.259-15.659-9.785-15.659-9.785c0.348-0.557,20.851,8.915,20.851,8.915      c0.05-0.08-18.199-11.213-18.127-11.328c0.333-0.532,22.819,10.306,22.819,10.306c0.271-0.434-17.699-10.882-17.619-11.01      c0.112-0.179,21.208,8.8,21.208,8.8c0.203-0.326-17.423-10.201-17.114-10.694c0,0,21.202,10.799,21.545,10.251      c0.348-0.557-17-9.846-16.65-10.404c0.133-0.214,22.075,9.518,22.357,9.067c0.165-0.264-18.486-11.552-18.486-11.552      c0.436-0.698,24.651,10.552,24.72,10.442c0.043-0.069-17.76-11.098-17.76-11.098l24.196,10.08      c0.313-0.5-17.944-11.212-17.944-11.212l23.567,10.928c0.154-0.246-19.241-12.023-19.241-12.023      c0.372-0.595,24.183,11.861,24.438,11.454c0,0-20.776-12.886-20.732-12.955l26.013,12.695l-19.798-12.371l24.62,12.063      c0.251-0.401-21.976-13.229-21.75-13.59l28.591,13.479c0.444-0.712-22.449-14.027-22.449-14.027s31.375,14.874,31.402,14.833      c0.365-0.585-23.462-14.634-23.45-14.653c0,0,30.204,14.806,30.423,14.458c0.434-0.695-24.423-15.261-24.423-15.261      s30.436,16.208,30.949,15.386l-25.895-16.181l33.179,17.438c0.309-0.496-26.856-16.782-26.856-16.782      s34.239,18.749,34.897,17.694c0.046-0.073-28.528-17.827-28.528-17.827c0.167-0.268,39.286,19.707,39.286,19.707      c0.027-0.043-32.623-19.575-32.259-20.157c0,0,43,23.157,43.157,22.905l-35.522-22.197c0.572-0.916,47.245,26.021,47.245,26.021      c0.119-0.19-39.557-24.718-39.557-24.718c0.838-1.341,57.536,32.665,58.197,31.606l-49.708-31.061" style="fill:none;stroke:#262626;stroke-width:2;stroke-linecap:round;stroke-linejoin:round;"/><path d="M133.724,402.984      l-25.395-15.868c0.57-0.912,57.765,31.38,57.765,31.38c0.567-0.907-83.451-52.146-83.451-52.146s97.183,60.247,98.792,57.671      c0,0-111.865-65.417-109.85-68.642c0.435-0.695,124.683,73.108,124.683,73.108c1.646-2.635-135.889-79.341-133.385-83.348      l142.547,85.963c0,0-148.294-92.186-148.079-92.53c2.285-3.656,157.708,94.571,157.708,94.571      c0.946-1.514-52.333-32.327-52.165-32.597c0.13-0.208,60.3,35.428,60.742,34.721l-45.139-28.206      c0.367-0.588,54.437,30.31,54.674,29.931c0,0-40.543-24.526-40.18-25.107l49.61,26.326c0.71-1.137-35.938-22.456-35.938-22.456      l42.475,22.766c0,0-31.77-19.379-31.557-19.719c0.121-0.193,38.414,20.411,38.414,20.411      c0.337-0.539-29.464-18.411-29.464-18.411c0.676-1.082,36.124,19.36,36.124,19.36c0.051-0.081-30.239-18.543-30.081-18.797      c0.707-1.131,37.204,19.008,37.285,18.878c0,0-27.479-16.267-27.073-16.917l33.463,16.524l-26.49-16.553      c0.058-0.092,32.969,16.944,32.969,16.944l-25.517-15.944l30.362,15.429l-24.79-15.49c0.123-0.197,31.653,15.204,31.653,15.204      c0.065-0.104-23.979-13.916-23.499-14.684c0,0,28.851,14.928,29.146,14.455c0,0-22.598-13.094-22.137-13.833      c0.495-0.792,27.452,13.992,27.585,13.78c0.46-0.736-23.361-14.598-23.361-14.598s29.443,14.28,29.751,13.788      c0.249-0.398-21.64-13.521-21.64-13.521l25.624,12.262l-20.624-12.888l24.62,11.959l-20.193-12.617      c0.27-0.431,27.367,12.037,27.367,12.037l-19.954-12.469l24.284,10.843c0.235-0.376-19.205-11.191-18.841-11.773      c0.317-0.509,24.644,11.76,25.044,11.119c0.064-0.103-20.978-12.691-20.79-12.99c0.095-0.152,24.661,11.488,24.661,11.488      s-19.525-12.129-19.493-12.181l24.817,11.276c0.291-0.466-20.207-12.627-20.207-12.627l24.576,10.666      c0,0-18.018-10.703-17.768-11.102c0,0,21.458,10.156,21.895,9.458c0,0-18.911-11.167-18.619-11.635l23.516,10.573      c0.11-0.177-19.125-11.313-18.839-11.771c0,0,22.589,9.396,22.605,9.369c0.267-0.427-17.564-10.976-17.564-10.976      c0.389-0.621,22.155,9.628,22.155,9.628c0.136-0.217-17.926-11.202-17.926-11.202c0.425-0.68,22.198,9.739,22.198,9.739      c0.385-0.614-18.464-11.3-18.357-11.471c0.048-0.077,22.117,8.755,22.117,8.755c0.134-0.215-17.185-10.131-16.911-10.567      c0.403-0.646,20.509,9.446,20.509,9.446s-18.09-10.71-17.823-11.138c0,0,22.341,9.377,22.41,9.266      c0.133-0.212-18.14-11.335-18.14-11.335l20.684,9.207c0.003-0.006-16.358-10.222-16.358-10.222      c0.047-0.076,20.935,7.972,20.935,7.972c0.126-0.201-17.65-10.627-17.47-10.916l21.011,8.733l-15.78-9.861      c0.174-0.278,17.392,7.521,17.496,7.352c0.071-0.113-15.783-9.862-15.783-9.862l19.463,7.777l-15.947-9.965      c0,0,18.772,8.265,18.993,7.911c0.131-0.209-15.819-9.885-15.819-9.885c0.09-0.144,18.48,8.078,18.48,8.078      c0.202-0.324-15.601-9.128-15.321-9.573c0,0,18.583,8.251,18.841,7.84c0,0-16.126-9.466-15.852-9.905l19.063,7.779      c0.203-0.325-15.637-9.16-15.362-9.599c0.017-0.027,18.147,7.123,18.268,6.931c0.161-0.259-16.379-10.234-16.379-10.234      c0.281-0.449,18.997,8.754,19.31,8.254c0.173-0.277-16.592-9.793-16.334-10.206c0.086-0.138,19.036,7.634,19.062,7.593      c0,0-15.816-9.819-15.787-9.865c0,0,17.634,7.841,17.806,7.565c0.328-0.525-15.861-9.911-15.861-9.911s17.797,6.747,17.852,6.66      c0.284-0.454-14.51-9.065-14.51-9.065c0.169-0.271,18.4,7.144,18.4,7.144c0.082-0.131-15.979-9.488-15.756-9.846l17.642,7.647      c0,0-15.216-8.775-14.887-9.302c0.006-0.009,16.535,6.094,16.634,5.936c0.299-0.479-14.765-8.998-14.662-9.162      c0.033-0.054,16.585,7.599,16.864,7.151c0.029-0.047-14.418-8.395-14.142-8.837c0.272-0.436,17.532,6.969,17.58,6.892      l-16.38-10.234c0.173-0.276,17.143,7.2,17.392,6.801l-14.457-9.034c0,0,18.022,7.271,18.244,6.917l-15.873-9.918      c0,0,17.29,7.922,17.396,7.754c0,0-15.154-8.842-14.872-9.293c0.095-0.151,16.396,5.807,16.396,5.807l-14.138-8.834      c0.251-0.401,16.205,5.496,16.205,5.496l-14.144-8.838l16.644,7.253c0.072-0.116-14.69-9.173-14.688-9.178      c0.332-0.53,17.217,5.972,17.355,5.749c0.27-0.431-15.357-9.056-15.113-9.444c0.256-0.41,16.033,4.914,16.033,4.914      s-14.363-8.526-14.161-8.849c0.098-0.156,16.837,5.474,16.837,5.474l-14.384-8.988l15.606,6.272      c0.167-0.267-14.924-9.326-14.924-9.326c0.302-0.482,15.974,6.762,16.175,6.44c0.042-0.066-13.244-8.276-13.244-8.276      c0.011-0.018,16.73,5.436,16.73,5.436c0.209-0.333-15.281-9.549-15.281-9.549c0.056-0.089,15.335,6.282,15.451,6.096      c0.139-0.222-13.616-8.508-13.616-8.508l16.015,6.62c0.201-0.322-15.411-9.631-15.411-9.631c0.2-0.32,15.764,6.632,15.764,6.632      l-15.227-9.515c0,0,17.182,7.515,17.446,7.092c0.159-0.255-16.39-9.571-16.089-10.054c0.088-0.141,17.031,7.122,17.031,7.122      l-15.327-9.577c0.135-0.216,15.775,6.358,15.775,6.358l-13.808-8.627c0,0,16.028,6.013,16.212,5.72      c0.221-0.354-16.295-10.183-16.295-10.183s16.356,5.931,16.559,5.607l-14.885-9.301l17.475,5.789      c0.091-0.145-16.248-9.881-16.126-10.076c0.26-0.415,17.352,7.143,17.633,6.692c0.053-0.085-16.316-9.604-16.051-10.029      c0.052-0.084,15.472,6.719,15.76,6.258c0.29-0.464-14.41-9.005-14.41-9.005s15.435,6.129,15.651,5.781      c0.116-0.186-15.885-9.67-15.77-9.854c0.18-0.288,17.748,6.639,17.748,6.639c0.122-0.195-15.843-9.9-15.843-9.9      c0.289-0.463,16.453,5.625,16.453,5.625l-15.685-9.801c0,0,16.511,6.704,16.626,6.52c0.196-0.314-15.791-9.39-15.576-9.733      c0.179-0.285,15.242,6.76,15.506,6.336l-15.123-9.45c0.259-0.414,16.142,6.104,16.142,6.104      c0.337-0.539-16.827-10.045-16.615-10.383c0.008-0.013,17.125,7.003,17.125,7.003s-15.478-9.396-15.354-9.595      c0.169-0.271,16.767,7.028,16.771,7.021c0.057-0.092-16.707-9.771-16.406-10.252c0.084-0.134,16.002,6.549,16.002,6.549      s-16.821-9.78-16.493-10.306c0,0,16.534,6.541,16.665,6.33c0.304-0.485-16.557-10.346-16.557-10.346l16.647,6.313      c0.088-0.142-15.496-8.857-15.125-9.451c0.195-0.312,16.564,6.471,16.747,6.179c0.135-0.217-16.765-10.445-16.751-10.467      c0.058-0.092,16.598,6.493,16.717,6.301c0.371-0.593-17.917-10.988-17.824-11.138l17.509,5.874      c0.134-0.215-17.723-11.05-17.712-11.067l19.071,8.54c0.37-0.591-18.323-11.449-18.323-11.449l17.555,6.611l-17.022-10.637      l16.503,7.173c0.128-0.205-17.356-10.845-17.356-10.845c0.106-0.17,17.196,6.687,17.196,6.687L468.05,224.32      c0.185-0.295,16.85,6.191,17.184,5.657c0.01-0.016-18.877-11.796-18.877-11.796s18.569,7.924,18.801,7.553      c0.145-0.232-18.782-10.96-18.433-11.519l17.225,6.338c0.227-0.363-18.496-11.07-18.277-11.421      c0.203-0.324,18.227,7.695,18.227,7.695c0.205-0.327-18.671-11.667-18.671-11.667c0.294-0.469,18.844,6.798,18.896,6.715      c0,0-22.239-12.892-21.788-13.615l20.27,9.174l-20.359-12.722l18.979,7.376c0.06-0.095-20.692-12.829-20.647-12.902      c0.338-0.54,21.042,9.07,21.042,9.07c0.079-0.127-22.81-13.172-22.324-13.949c0.188-0.302,20.377,9.749,20.666,9.287      l-22.482-14.049c0.43-0.688,21.131,9.716,21.131,9.716l-23.828-14.889l21.853,9.858c0,0-22.791-14.042-22.702-14.186      c0.112-0.18,21.121,10.643,21.551,9.956c0,0-24.253-14.46-23.941-14.959l22.162,9.004c0,0-26.074-15.688-25.803-16.124      l24.038,11.06c0.532-0.852-28.552-17.754-28.513-17.816l27.109,13.784l-29.332-18.329c0.201-0.322,24.515,11.453,24.974,10.717      l-31.555-19.718c0.018-0.027,28.725,15.576,29.194,14.825c0.431-0.69-32.66-20.409-32.66-20.409l29.896,14.748      c0,0-38.26-22.619-37.681-23.545c0.479-0.764,33.148,17.134,33.663,16.311l-44.309-27.688c0,0,39.87,21.473,40.346,20.712      c0,0-60.677-37.779-60.615-37.877c0.099-0.157,53.479,28.337,53.479,28.337c1.415-2.265-122.276-76.407-122.276-76.407      c0.446-0.714,117.265,69.783,117.265,69.783s-109.82-67.357-109.251-68.268c1.935-3.096,98.283,56.501,98.283,56.501      l-81.937-51.199c1.107-1.772,64.971,38.577,66.148,36.692l-46.604-29.122" style="fill:none;stroke:#262626;stroke-width:2;stroke-linecap:round;stroke-linejoin:round;"/><path d="M124.428,294.688      l-3.089-1.93c0.098-0.156,11.034,2.178,11.034,2.178c0.087-0.14-12.778-7.984-12.778-7.984s14.742,5.647,14.965,5.29      c0,0-15.849-9.248-15.555-9.72c0.054-0.086,16.882,5.747,16.882,5.747c0.223-0.356-16.949-9.836-16.61-10.379l17.435,7.784      c0,0-18.55-11.531-18.523-11.574c0.238-0.381,17.805,7.149,17.805,7.149c0.33-0.528-18.023-11.132-17.965-11.226      c0.038-0.062,18.594,8.672,18.724,8.465l-17.229-10.767c0.109-0.175,17.254,6.705,17.324,6.593c0,0-15.295-9.264-15.163-9.475      l14.42,4.336c0.18-0.288-9.521-5.949-9.521-5.949" style="fill:none;stroke:#262626;stroke-width:2;stroke-linecap:round;stroke-linejoin:round;"/><path d="M203.187,291.636      l-3.497-2.185c0.104-0.167,11.73,2.613,11.73,2.613c0.093-0.149-13.647-8.527-13.647-8.527s15.654,6.251,15.893,5.869      c0,0-16.685-9.736-16.375-10.232c0.057-0.091,17.852,6.354,17.852,6.354c0.233-0.373-17.808-10.338-17.453-10.905l18.334,8.347      c0,0-19.369-12.04-19.341-12.085c0.251-0.403,18.729,7.726,18.729,7.726c0.35-0.56-19.132-11.816-19.07-11.916      c0.041-0.065,19.777,9.432,19.915,9.21l-19.58-12.235c0.126-0.202,19.707,8.262,19.788,8.132c0,0-20.489-12.403-20.309-12.69      l19.948,7.79c0.392-0.627-20.064-12.538-20.064-12.538l19.287,8.277c0,0-18.399-11.216-18.272-11.418      c0.055-0.088,18.3,7.843,18.3,7.843c0.211-0.339-17.879-11.172-17.879-11.172c0.341-0.546,18.849,8.565,18.849,8.565      c0.033-0.054-20.024-12.28-19.92-12.447c0.354-0.567,19.419,7.804,19.459,7.739c0,0-18.899-11.177-18.615-11.632l17.813,6.746      L195.79,234.82c0.034-0.054,19.944,8.805,19.944,8.805l-18.518-11.571l17.963,7.681l-16.836-10.52      c0.063-0.101,16.9,5.985,16.9,5.985c0.037-0.058-13.002-7.534-12.736-7.959c0,0,12.069,4.042,12.185,3.856      c0,0-6.443-3.695-6.294-3.933" style="fill:none;stroke:#262626;stroke-width:2;stroke-linecap:round;stroke-linejoin:round;"/><path d="M161.957,292.786      l-3.06-1.912c0.096-0.153,10.906,2.1,10.906,2.1c0.088-0.141-12.825-8.015-12.825-8.015s14.752,5.653,14.976,5.296      c0,0-15.808-9.224-15.514-9.694c0.054-0.085,16.81,5.703,16.81,5.703c0.221-0.354-16.813-9.757-16.477-10.296l17.316,7.711      c0,0-18.392-11.433-18.366-11.476c0.237-0.38,17.698,7.082,17.698,7.082c0.332-0.531-18.153-11.212-18.094-11.307      c0.039-0.062,18.763,8.781,18.894,8.571l-18.603-11.624c0.119-0.19,18.674,7.606,18.751,7.483c0,0-19.5-11.806-19.33-12.078      l18.902,7.137c0.372-0.595-19.083-11.924-19.083-11.924l18.253,7.63c0,0-17.229-10.501-17.11-10.691      c0.051-0.082,17.087,7.085,17.087,7.085c0.187-0.299-15.62-9.76-15.62-9.76c0.297-0.476,16.544,7.125,16.544,7.125      c0.026-0.042-15.818-9.702-15.736-9.833c0.271-0.433,15.149,5.115,15.18,5.065c0,0-10.489-6.189-10.325-6.452" style="fill:none;stroke:#262626;stroke-width:2;stroke-linecap:round;stroke-linejoin:round;"/><path d="M239.752,291.793      l-2.847-1.778c0.091-0.146,10.373,1.765,10.373,1.765c0.09-0.144-13.133-8.206-13.133-8.206s14.638,5.578,14.859,5.224      c0,0-15.688-9.154-15.397-9.621c0.052-0.084,16.478,5.495,16.478,5.495c0.216-0.345-16.349-9.486-16.021-10.012l17.069,7.557      c0,0-18.064-11.229-18.038-11.271c0.234-0.375,17.489,6.951,17.489,6.951c0.327-0.522-17.841-11.02-17.783-11.111      c0.039-0.062,18.538,8.636,18.667,8.429l-18.291-11.43c0.118-0.188,18.474,7.479,18.549,7.357c0,0-19.187-11.615-19.019-11.884      l18.712,7.019c0.366-0.585-18.773-11.731-18.773-11.731l18.039,7.497c0,0-17.097-10.42-16.979-10.609      c0.051-0.082,17.048,7.061,17.048,7.061c0.197-0.316-16.584-10.363-16.584-10.363c0.317-0.508,17.592,7.78,17.592,7.78      c0.031-0.05-18.721-11.481-18.623-11.637c0.33-0.527,18.176,7.021,18.213,6.961c0,0-17.582-10.396-17.316-10.821l16.566,5.967      l-17.97-11.229c0.031-0.051,18.687,8.019,18.687,8.019l-18.057-11.283l17.543,7.418l-18.156-11.345      c0.068-0.109,18.273,6.844,18.273,6.844c0.05-0.08-18.162-10.533-17.795-11.12c0,0,17.966,7.866,18.144,7.581      c0,0-17.57-10.169-17.206-10.752c0.312-0.498,17.735,7.811,17.818,7.677c0.362-0.58-18.523-11.575-18.523-11.575      s18.4,7.11,18.586,6.813s-15.995-9.995-15.995-9.995l15.041,5.648l-12.943-8.088l12.085,4.127l-9.128-5.704" style="fill:none;stroke:#262626;stroke-width:2;stroke-linecap:round;stroke-linejoin:round;"/><path d="M351.846,238.607      l-79.249-49.52l77.3,43.134c0,0-70.167-42.593-69.604-43.494c0,0,66.818,38.543,67.268,37.824      c1.046-1.674-61.956-38.715-61.956-38.715c0.827-1.323,60.006,34.397,60.006,34.397s-53.924-33.629-53.895-33.677l49.938,26.625      l-40.569-25.351c0.476-0.761,28.354,12.855,28.354,12.855c0.25-0.4-11.589-6.912-11.441-7.149" style="fill:none;stroke:#262626;stroke-width:2;stroke-linecap:round;stroke-linejoin:round;"/><path d="M271.395,294.361      l-0.586-0.365c0.084-0.134,9.527,1.237,9.527,1.237c0.062-0.099-8.963-5.602-8.963-5.602s14.826,5.703,15.051,5.343      c0,0-15.727-9.176-15.435-9.644c0.075-0.12,23.097,9.63,23.097,9.63c0.295-0.473-23.031-13.391-22.581-14.109l28.664,14.802      c0,0-29.638-18.424-29.595-18.493c0.505-0.807,36.092,18.576,36.092,18.576c0.661-1.058-36.454-22.518-36.337-22.706      c0.091-0.146,42.656,24.108,42.966,23.613l-42.552-26.589c0.338-0.54,50.111,27.563,50.328,27.216      c0,0-51.207-30.973-50.746-31.71l58.847,32.097c1.17-1.873-58.85-36.773-58.85-36.773l65.015,36.851      c0,0-64.331-39.259-63.909-39.935c0.227-0.36,70.544,40.488,70.544,40.488c0.776-1.242-70.035-43.763-70.035-43.763      c1.472-2.354,77.04,44.927,77.04,44.927c0.133-0.212-78.446-48.098-78.032-48.76c1.674-2.68,85.695,49.556,85.888,49.248      c0,0-86.182-51.081-84.937-53.074l91.961,53.078l-93.313-58.308c0.179-0.285,99.134,58.288,99.134,58.288l-98.459-61.523      l102.074,60.239l-102.644-64.139c0.436-0.697,107.256,62.446,107.256,62.446c0.292-0.467-108.858-63.268-106.722-66.687      c0,0,109.12,67.017,110.283,65.156c0,0-111.484-64.801-109.299-68.298c2.1-3.361,111.962,67.759,112.525,66.857      c2.271-3.635-113.565-70.964-113.565-70.964s115.5,70.193,116.769,68.163c1.313-2.101-115.811-72.366-115.811-72.366      l116.9,69.297l-117.14-73.198l118.524,70.638L271.521,211.28c1.269-2.031,121.735,71.005,121.735,71.005l-120.995-75.606      l121.46,71.566c1.435-2.297-123.855-72.457-121.637-76.007c1.662-2.659,121.287,75.908,123.377,72.564      c0.4-0.641-125.803-76.016-124.637-77.882c0.504-0.806,124.344,73.776,124.344,73.776s-124.148-77.112-123.939-77.446      l124.289,73.435c1.876-3.003-124.532-77.817-124.532-77.817l122.445,71.822c0,0-35.427-21.075-34.95-21.839      c0,0,31.073,16.633,31.72,15.598c0,0-26.411-15.595-26.003-16.249l20.251,9.112c0.058-0.093-10.314-6.109-10.164-6.351" style="fill:none;stroke:#262626;stroke-width:2;stroke-linecap:round;stroke-linejoin:round;"/></g></g></g></g><g id="Layer_1"/></svg>