<?xml version="1.0" standalone="no"?>
<!DOCTYPE svg PUBLIC "-//W3C//DTD SVG 20010904//EN"
 "http://www.w3.org/TR/2001/REC-SVG-20010904/DTD/svg10.dtd">
<svg version="1.0" xmlns="http://www.w3.org/2000/svg"
 width="300.000000pt" height="416.000000pt" viewBox="0 0 300.000000 416.000000"
 preserveAspectRatio="xMidYMid meet">
<metadata>
Created by potrace 1.10, written by Peter Selinger 2001-2011
</metadata>
<g transform="translate(0.000000,416.000000) scale(0.050000,-0.050000)"
fill="#4a4a4a" stroke="none">
<path d="M3240 8289 c0 -19 14 -29 33 -25 51 9 57 56 9 56 -25 0 -42 -13 -42
-31z"/>
<path d="M3284 7507 c9 -33 0 -36 -72 -29 -63 6 -73 11 -42 22 76 28 -421 18
-580 -11 -238 -44 -416 -104 -397 -133 5 -9 -4 -16 -21 -16 -16 0 -59 -18 -96
-39 -36 -21 -138 -62 -226 -90 -159 -52 -540 -302 -540 -356 0 -12 -15 -23
-34 -26 -34 -5 -176 -105 -176 -124 0 -5 16 1 35 15 19 13 7 -1 -27 -33 -33
-31 -129 -142 -212 -247 -164 -205 -212 -282 -308 -490 -56 -121 -56 -125 -1
-60 29 33 52 50 52 37 1 -13 -7 -27 -16 -30 -65 -26 -173 -536 -120 -569 11
-7 3 -25 -17 -41 -20 -17 -26 -25 -13 -18 28 13 47 -207 20 -224 -29 -17 1
-167 46 -227 22 -31 42 -90 44 -132 l3 -76 9 69 8 68 45 -78 c25 -44 54 -77
65 -75 11 2 37 -30 58 -70 21 -41 45 -79 54 -85 20 -15 56 -386 48 -499 -5
-78 13 -146 47 -180 37 -37 137 -311 120 -328 -13 -13 -20 -12 -20 5 0 19 -10
19 -42 2 -44 -24 -59 -19 -65 24 -9 58 -35 80 -65 56 -87 -73 56 -337 203
-376 48 -13 55 -26 62 -114 21 -263 105 -566 229 -820 l78 -160 -1 -330 0
-329 -78 -48 c-87 -54 -146 -104 -380 -327 -89 -85 -179 -155 -199 -155 -20 0
-58 -17 -84 -37 -65 -51 -325 -163 -377 -163 -23 0 -87 -31 -142 -69 -56 -38
-114 -64 -130 -58 -20 8 -29 -2 -29 -31 0 -37 8 -41 55 -29 54 13 54 12 20
-27 -56 -63 -55 -63 105 -67 134 -3 137 -3 163 46 21 41 20 42 -10 18 -39 -33
-103 4 -78 44 8 13 15 29 15 36 0 26 30 43 30 18 0 -16 17 -22 47 -17 37 7 46
2 39 -24 -11 -39 76 -43 90 -3 4 12 19 23 33 23 14 0 38 14 52 31 14 17 49 28
77 25 47 -5 51 0 46 54 -3 33 8 78 25 100 30 38 30 37 11 -18 -26 -71 -10 -92
32 -41 27 34 30 34 20 4 -6 -19 -2 -35 8 -35 11 0 25 23 32 51 7 28 39 64 70
80 32 17 58 39 58 51 0 11 8 15 19 9 10 -6 24 7 31 29 7 22 22 40 33 40 10 0
14 -8 8 -19 -6 -10 -3 -24 9 -31 31 -19 24 -73 -15 -101 -30 -22 -32 -36 -10
-116 13 -50 19 -105 13 -122 -18 -45 74 -432 98 -417 11 7 14 3 7 -9 -29 -48
11 -85 91 -85 68 0 78 5 66 35 -80 203 -137 474 -125 602 14 150 84 360 143
429 26 30 58 97 71 148 13 52 45 114 72 139 35 32 49 67 49 121 1 56 6 68 20
46 17 -26 19 -26 20 1 0 17 -8 40 -17 50 -10 10 -23 73 -30 139 -9 88 -7 111
8 85 12 -19 33 -35 48 -35 15 0 32 -13 38 -30 7 -16 3 -30 -8 -30 -10 0 -19
10 -19 21 0 12 -8 16 -19 10 -10 -7 -17 -30 -15 -51 1 -26 9 -33 22 -20 26 26
86 26 102 0 7 -11 -2 -14 -22 -7 -23 10 -30 5 -23 -15 5 -15 21 -25 35 -22 29
7 100 -52 100 -83 0 -11 -19 0 -43 26 -58 62 -108 12 -70 -69 21 -44 24 -45
37 -10 12 33 23 36 73 18 67 -23 191 -168 177 -205 -5 -14 7 -47 28 -74 20
-27 37 -38 38 -25 0 13 -14 37 -31 55 -18 17 -22 31 -9 31 12 0 37 -27 56 -60
19 -33 48 -60 64 -60 17 0 55 -22 84 -50 30 -27 68 -50 84 -50 16 0 36 -10 43
-22 10 -15 0 -18 -31 -8 -32 10 -41 8 -30 -9 8 -14 34 -19 60 -13 25 6 71 3
103 -7 68 -23 149 -36 333 -54 146 -14 147 -15 161 -92 7 -38 0 -54 -29 -61
-39 -11 -54 -54 -18 -54 11 0 20 -18 20 -40 0 -27 -13 -40 -40 -40 -22 0 -40
-9 -40 -20 0 -11 10 -20 21 -20 12 0 16 -9 10 -19 -7 -11 -25 -14 -42 -8 -17
7 -29 -1 -29 -19 0 -16 15 -35 33 -42 18 -7 28 -18 22 -24 -6 -6 -39 4 -74 21
-34 18 -70 28 -79 22 -10 -6 -23 3 -29 19 -7 17 -26 30 -42 30 -17 0 -31 10
-31 21 0 12 -9 16 -20 9 -11 -7 -20 -1 -20 12 0 14 -5 19 -12 13 -30 -31 15
-92 62 -83 43 8 48 2 44 -52 -2 -34 -15 -60 -30 -60 -15 0 -21 -9 -14 -20 8
-13 25 -13 51 0 32 17 40 13 50 -26 6 -26 38 -63 71 -82 32 -19 54 -42 48 -52
-6 -9 16 -23 49 -30 44 -9 56 -21 47 -46 -7 -19 11 -7 40 25 32 37 44 65 32
72 -13 9 -16 48 -7 106 17 117 17 120 -12 130 -15 5 -19 -2 -10 -19 8 -16 -1
-10 -20 12 -33 39 -33 39 -19 -8 10 -32 7 -43 -8 -33 -25 15 -30 90 -7 93 8 0
31 4 50 8 19 3 35 -2 35 -12 0 -42 38 -14 57 43 23 64 -46 120 -104 85 -13 -7
-11 2 4 20 28 34 95 49 75 17 -6 -9 2 -16 18 -16 16 0 23 8 17 17 -16 27 33
76 75 76 21 0 38 14 38 30 0 32 -72 5 -103 -38 -17 -23 -105 48 -112 90 -4 24
8 29 55 22 61 -9 85 -44 30 -44 -16 0 -30 -10 -30 -22 0 -12 14 -17 32 -10 17
7 35 12 40 12 4 0 8 14 8 30 0 27 101 44 195 31 14 -1 25 9 26 23 0 16 11 11
29 -12 31 -41 90 -16 90 39 0 22 95 58 131 49 7 -1 28 16 48 39 20 22 45 41
57 41 11 0 24 7 27 15 26 60 126 107 154 71 25 -33 27 -32 16 16 -12 51 90
176 132 163 8 -3 15 5 15 17 0 12 45 76 100 142 55 66 94 129 87 141 -7 12 -4
15 9 8 11 -8 27 -4 35 8 7 12 -5 27 -29 33 -23 6 -42 20 -42 32 0 14 -9 13
-25 -3 -20 -20 -19 -29 5 -45 27 -19 27 -20 0 -13 -16 4 -33 28 -36 52 -4 24
-15 38 -25 32 -20 -12 12 -89 45 -111 10 -6 3 -24 -15 -39 -28 -23 -32 -22
-26 10 4 20 -6 41 -21 47 -17 6 -22 0 -13 -14 8 -13 4 -21 -10 -17 -13 3 -29
-8 -34 -23 -6 -16 -1 -22 11 -14 12 7 27 4 34 -8 22 -35 -54 -22 -82 15 -23
31 -25 30 -14 -15 7 -27 22 -57 34 -66 12 -8 -2 -10 -30 -3 -37 8 -56 3 -65
-20 -6 -17 -32 -32 -57 -33 -25 0 -35 -6 -21 -11 14 -6 25 -23 25 -38 0 -16
-12 -23 -28 -17 -32 12 -34 -53 -2 -77 11 -8 5 -15 -15 -15 -19 0 -35 -12 -35
-28 0 -48 -46 -71 -85 -43 -38 28 -128 19 -149 -15 -8 -13 0 -16 21 -8 19 8
33 3 33 -12 1 -17 5 -16 18 3 13 21 19 21 28 -3 15 -39 -64 -61 -104 -28 -24
20 -26 19 -11 -6 35 -58 26 -80 -31 -80 -55 0 -57 4 -54 90 1 50 8 90 15 90 7
0 34 18 59 40 45 39 32 53 -43 43 -7 -1 -9 18 -4 43 9 39 7 40 -13 9 -20 -32
-26 -32 -53 -5 -16 16 -45 29 -63 28 -29 -2 -29 -4 2 -12 26 -7 32 -21 23 -50
-8 -25 -3 -49 14 -60 20 -14 15 -17 -18 -10 -34 8 -45 1 -45 -28 0 -23 -14
-38 -35 -38 -22 0 -27 -6 -13 -15 40 -27 56 -107 18 -92 -47 18 -128 -31 -120
-72 12 -62 -19 -88 -67 -58 -24 15 -43 38 -43 52 0 14 -10 25 -21 25 -12 0
-17 -8 -11 -17 6 -10 -12 -13 -39 -8 -38 8 -47 3 -38 -21 6 -16 1 -37 -12 -45
-32 -19 -64 35 -33 56 18 11 14 23 -13 44 -56 43 -36 119 32 127 31 4 55 -1
53 -10 -13 -74 4 -129 32 -106 35 29 41 69 7 48 -15 -9 -18 -5 -8 10 8 13 31
18 50 12 22 -7 41 1 48 19 7 17 1 31 -13 32 -14 0 -9 11 11 27 46 34 44 52 -4
52 -35 0 -37 7 -18 61 13 37 32 58 48 51 14 -5 31 4 37 21 17 43 15 51 -8 37
-11 -7 -20 2 -20 19 0 17 -14 31 -30 31 -17 0 -45 36 -62 80 -18 44 -40 75
-48 70 -9 -6 -21 1 -27 15 -8 18 -19 15 -40 -12 -17 -20 -41 -31 -53 -23 -15
9 -14 -1 3 -27 18 -29 30 -34 40 -18 8 13 21 17 29 10 8 -8 29 -4 46 10 20 15
17 7 -6 -20 -24 -28 -29 -45 -14 -45 17 0 16 -9 -5 -30 -17 -16 -43 -25 -60
-18 -18 7 -34 -4 -42 -30 -20 -62 3 -82 92 -82 l82 0 -33 -49 c-30 -46 -30
-49 1 -37 26 10 31 5 21 -21 -7 -18 -4 -33 7 -33 10 0 19 -9 19 -20 0 -41 -51
-18 -75 34 -18 39 -19 58 -3 67 31 19 -3 37 -79 43 -35 2 -63 13 -63 24 0 10
-6 12 -14 5 -18 -19 -23 -93 -5 -93 7 0 11 -52 9 -115 -3 -63 5 -128 18 -143
19 -24 16 -25 -20 -2 -35 22 -52 21 -105 -6 -52 -26 -68 -26 -89 -5 -19 19
-37 21 -61 7 -24 -13 -44 -12 -64 5 -16 13 -46 19 -67 14 -29 -8 -36 -3 -27
21 8 20 4 26 -11 16 -31 -19 -131 82 -117 118 6 16 3 34 -8 41 -10 6 -19 3
-19 -7 0 -39 -76 -38 -109 1 -32 37 -32 41 8 68 45 32 38 72 -10 54 -16 -6
-24 -19 -18 -29 6 -10 2 -18 -10 -18 -11 0 -21 13 -21 29 0 18 -12 25 -30 18
-21 -8 -30 1 -30 29 0 23 11 45 25 50 14 4 9 6 -10 3 -23 -3 -35 8 -35 34 0
37 -2 37 -33 7 -37 -38 -72 -6 -52 46 9 23 1 28 -32 19 -23 -6 -49 -2 -56 10
-8 12 -4 15 10 7 32 -20 29 11 -7 62 -20 28 -45 40 -75 34 -25 -5 -35 -4 -23
2 33 17 9 107 -32 120 -37 12 -70 90 -39 90 10 0 13 14 6 30 -6 17 -24 30 -40
30 -19 0 -24 9 -14 25 24 39 26 75 3 75 -11 0 -16 18 -10 40 8 32 0 40 -38 40
-26 0 -48 9 -48 19 0 11 14 15 30 8 17 -6 30 -2 30 9 0 11 -14 25 -30 31 -16
7 -30 23 -30 37 1 20 4 20 18 -1 13 -21 19 -20 29 6 7 18 4 28 -6 22 -10 -7
-24 -3 -31 9 -7 11 -30 20 -51 20 -35 0 -44 22 -38 95 1 8 17 13 35 10 26 -5
25 -1 -6 17 -22 13 -41 25 -43 26 -37 30 -21 90 27 98 54 8 54 9 11 23 -24 9
-39 24 -33 34 6 10 4 17 -6 15 -54 -9 -114 4 -89 20 23 14 23 19 0 27 -57 20
-1 33 64 15 44 -13 74 -13 87 0 13 13 8 20 -14 20 -45 0 -46 91 -2 116 30 16
29 19 -1 31 -19 7 -28 4 -21 -7 7 -11 -3 -20 -21 -20 -26 0 -30 -12 -20 -53
11 -43 7 -50 -20 -40 -18 7 -36 13 -41 13 -4 0 -8 14 -8 30 0 17 -8 30 -18 30
-9 0 -22 18 -28 39 -5 22 -4 38 3 35 7 -2 13 5 13 16 0 11 -7 18 -15 15 -8 -3
-15 4 -15 15 0 11 11 20 25 21 14 0 8 13 -14 29 -21 16 -32 36 -25 43 8 7 30
-2 50 -20 51 -45 58 -42 68 27 5 33 2 60 -7 60 -10 0 -17 -16 -17 -35 -1 -22
-6 -27 -15 -12 -8 13 -37 27 -65 32 -50 10 -50 10 -5 25 25 8 45 23 45 34 0
10 -18 13 -40 6 -31 -10 -40 -4 -40 27 0 23 -8 45 -17 51 -10 6 -13 35 -7 65
8 45 4 51 -25 40 -19 -7 -43 -13 -53 -13 -10 0 -18 -15 -18 -34 0 -23 -6 -28
-21 -13 -27 27 -3 87 30 75 50 -19 102 55 60 85 -24 18 -29 33 -15 51 23 30
19 143 -12 362 -48 341 -22 603 110 1104 17 66 36 147 42 180 6 33 18 69 27
81 9 11 8 34 -2 50 -10 16 -13 88 -6 159 12 119 11 128 -20 103 -18 -15 -27
-36 -20 -47 6 -11 3 -39 -8 -63 -52 -114 -70 -198 -45 -213 18 -11 19 -18 1
-30 -13 -7 -29 -9 -35 -3 -6 7 -28 3 -48 -8 -28 -15 -35 -14 -27 7 6 15 -18
58 -52 95 l-63 69 13 -55 c7 -34 3 -55 -10 -55 -12 0 -17 -7 -12 -15 27 -45
64 -505 40 -506 -9 -1 -43 -5 -74 -9 -54 -7 -56 -5 -46 56 7 35 18 145 25 244
7 99 17 187 22 195 14 25 -64 17 -90 -9 -64 -64 -72 196 -7 265 48 52 50 58
24 97 -12 21 -3 40 32 68 30 23 45 51 38 69 -6 17 -2 42 10 57 13 14 17 36 10
47 -12 19 1 25 42 19 21 -3 46 49 47 97 0 96 -113 52 -142 -54 -32 -119 -148
-368 -185 -399 -35 -29 -58 -2 -32 39 10 16 19 20 19 9 0 -11 13 3 27 30 22
42 22 55 -1 83 -32 37 -3 70 39 45 14 -8 9 4 -11 27 -44 49 -13 131 76 201 27
22 50 47 50 55 0 9 15 32 33 52 32 35 30 37 -30 37 -35 0 -62 -7 -61 -15 9
-58 -6 -85 -47 -83 -36 2 -38 5 -9 12 23 6 33 21 26 39 -7 16 10 51 38 79 28
27 50 57 50 66 0 24 74 105 93 102 9 -2 19 7 23 19 4 12 -6 16 -27 8 -31 -12
-30 -9 2 29 31 36 69 43 69 12 0 -6 -9 -5 -20 2 -11 7 -20 3 -20 -9 0 -11 14
-21 30 -21 23 0 27 13 17 53 -12 49 -9 52 40 43 29 -6 53 -2 53 9 0 11 14 14
30 8 20 -8 30 1 30 26 0 36 110 121 157 121 46 0 22 -38 -28 -44 -50 -6 -50
-6 -8 -32 32 -20 39 -21 28 -2 -11 17 -6 21 18 12 18 -7 33 -4 33 7 0 10 9 19
20 19 11 0 20 -23 20 -51 0 -29 9 -46 20 -39 11 7 16 35 11 63 -6 33 5 66 30
92 25 28 34 57 26 88 -9 36 -3 47 26 49 23 1 27 5 11 12 -15 5 -43 -5 -63 -23
-20 -18 -56 -35 -79 -36 -43 -4 -61 -35 -20 -35 16 0 15 -10 -3 -31 -20 -25
-29 -26 -41 -5 -13 20 -23 17 -47 -14 -46 -61 -37 -14 10 52 23 32 33 58 22
58 -12 0 -26 -9 -33 -20 -16 -25 -50 -26 -50 -2 0 11 27 25 60 32 32 7 57 24
55 36 -3 13 11 23 30 21 19 -1 30 6 24 15 -6 10 11 27 38 37 27 10 57 32 66
48 22 38 119 53 112 17 -4 -15 3 -21 15 -14 11 7 15 21 9 31 -6 11 13 28 42
39 40 16 51 31 43 60 -6 25 0 40 16 40 15 0 43 6 63 14 33 12 34 9 10 -20 -16
-19 25 -2 89 36 65 39 131 70 148 68 56 -5 70 3 40 22 -25 16 -22 19 13 20 23
0 48 -14 55 -31 9 -25 20 -26 53 -8 24 12 37 27 31 33 -6 7 -26 -1 -45 -16
-29 -24 -32 -24 -24 1 6 17 32 36 58 43 27 8 36 15 21 16 -16 1 -24 7 -18 13
6 6 36 5 66 -3 41 -10 47 -18 27 -32 -19 -14 -14 -17 18 -10 49 11 56 -8 24
-67 -13 -25 -42 -39 -79 -39 -33 0 -80 -20 -109 -47 -72 -67 -64 -74 33 -26
47 23 118 42 160 42 42 1 76 8 76 17 0 49 118 109 141 72 9 -15 29 -18 52 -8
20 9 44 18 52 21 8 2 22 6 30 10 25 9 53 14 95 18 39 4 39 4 1 19 -36 14 -34
17 16 29 30 8 50 21 45 30 -6 9 29 13 77 8 48 -4 93 1 99 12 7 11 30 15 52 9
22 -6 40 -1 40 10 0 12 -47 27 -105 34 -94 12 -105 19 -108 63 l-3 50 44 -41
c25 -23 57 -42 73 -42 24 1 24 4 -1 20 -18 11 -20 20 -6 20 13 0 36 -12 51
-28 15 -15 56 -33 91 -41 36 -8 59 -22 53 -32 -6 -10 2 -13 18 -7 17 6 48 1
71 -11 34 -18 46 -15 66 19 14 22 37 40 51 40 14 0 25 16 25 36 0 35 -78 53
-100 23 -5 -7 -26 2 -46 22 -39 37 44 49 99 13 15 -9 27 -1 30 19 5 25 15 18
37 -25 16 -32 41 -65 55 -74 14 -9 25 -25 25 -36 0 -11 -9 -15 -20 -8 -23 14
-27 -30 -5 -60 32 -43 82 -33 70 15 l-11 45 38 -41 c37 -40 203 -115 313 -140
30 -8 55 -19 55 -27 0 -12 36 -19 124 -23 19 -1 84 -66 145 -145 61 -79 147
-180 191 -223 44 -44 80 -92 80 -106 0 -28 112 -205 175 -277 39 -44 109 -88
142 -88 42 0 6 70 -49 93 -36 16 -45 26 -23 26 55 2 43 25 -75 141 -110 109
-136 160 -80 160 17 0 30 10 30 21 0 12 10 15 23 7 16 -10 14 -20 -7 -36 -25
-19 -26 -27 -4 -47 33 -31 55 -32 36 -2 -8 14 -5 18 8 10 12 -8 18 -33 13 -56
-4 -23 -2 -37 5 -30 16 17 88 -47 76 -67 -5 -8 9 -31 30 -50 22 -20 40 -45 40
-57 0 -11 14 -36 32 -55 35 -39 23 -78 -24 -78 -17 0 -25 -9 -18 -19 6 -11
-15 -18 -49 -15 -34 2 -61 11 -61 20 0 9 -11 10 -25 1 -17 -10 -16 -4 2 19 16
19 19 34 9 34 -33 0 -106 73 -106 104 0 17 -25 56 -55 88 -29 32 -51 66 -48
76 3 10 -8 8 -24 -5 -28 -24 -131 106 -105 132 6 6 -2 35 -18 65 -30 59 -170
154 -170 116 0 -13 -14 -10 -35 8 -38 33 -37 33 -215 42 -66 4 -136 13 -155
20 -19 8 -50 19 -69 25 -28 9 -29 15 -8 28 16 10 56 5 97 -12 78 -33 111 -21
55 21 -39 28 -147 30 -275 3 -51 -10 -75 -8 -75 7 0 12 29 23 65 24 36 0 54 6
40 11 -14 6 -21 17 -16 25 5 8 -38 8 -95 0 -144 -21 -174 -21 -174 0 0 10 16
14 35 9 20 -5 58 0 85 11 43 17 35 20 -55 21 -58 0 -105 -7 -105 -17 0 -9 -20
-23 -45 -31 -53 -16 -38 -23 95 -42 100 -15 100 -15 33 -30 -37 -8 -96 -12
-130 -8 -35 3 -47 2 -28 -4 51 -15 42 -33 -35 -72 -57 -28 -70 -29 -70 -6 0
15 16 33 35 39 19 6 -10 5 -65 -1 -92 -10 -129 -31 -130 -73 0 -9 8 -11 18 -5
10 6 22 -1 28 -16 7 -19 -8 -25 -53 -22 -85 5 -118 -10 -104 -47 11 -27 -60
-152 -124 -220 -21 -22 -25 -22 -25 0 -1 20 -5 19 -19 -3 -10 -16 -14 -37 -8
-46 9 -14 -91 0 -110 16 -4 3 3 22 15 42 13 24 21 27 21 10 1 -22 7 -23 31 -3
16 13 25 31 20 40 -5 8 8 37 29 64 36 46 25 127 -12 89 -9 -8 -4 -23 11 -32
19 -12 20 -20 3 -31 -13 -7 -29 -9 -35 -2 -16 15 -85 -66 -109 -125 -20 -53
28 -108 77 -89 44 17 29 -24 -27 -76 -44 -39 -51 -41 -40 -11 10 29 6 35 -18
25 -18 -6 -41 -12 -51 -12 -10 0 -18 -14 -18 -32 0 -46 -50 -22 -52 26 -1 22
-9 52 -18 66 -11 17 -8 21 7 12 31 -19 31 72 -1 104 -19 19 -18 24 1 24 14 0
20 9 13 20 -7 11 0 15 14 10 15 -6 48 25 78 75 82 133 91 184 27 140 -20 -14
-53 -77 -57 -109 -1 -8 -14 -26 -29 -40 -23 -22 -25 -19 -14 17 11 38 -57 94
-76 64 -25 -38 -48 -117 -35 -117 10 0 24 24 31 54 10 40 18 47 31 27 9 -15 8
-49 -2 -76 -24 -63 -23 -130 2 -115 11 7 20 3 20 -9 0 -11 -8 -21 -19 -21 -10
0 -25 -20 -33 -45 -7 -25 -28 -56 -46 -70 -29 -23 -29 -27 3 -52 58 -45 45
-113 -20 -113 -30 0 -45 7 -34 15 34 23 50 82 26 97 -12 7 -27 5 -34 -5 -25
-36 -139 -107 -172 -107 -18 0 -28 -9 -21 -20 7 -11 0 -20 -14 -20 -15 0 -43
-18 -61 -40 -19 -22 -51 -40 -71 -40 -34 0 -77 -34 -139 -108 -14 -17 -25 -54
-25 -82 0 -34 -28 -79 -81 -131 -70 -69 -80 -89 -69 -138 13 -61 70 -66 70 -7
0 66 243 271 515 434 69 41 125 85 125 97 0 12 6 16 13 9 7 -7 30 -3 52 9 66
35 79 -6 42 -135 -58 -202 -11 -429 90 -427 30 0 30 2 -2 21 -19 11 -35 42
-35 68 0 26 -9 53 -20 60 -24 15 -26 169 -3 206 11 16 22 -29 29 -118 7 -79
20 -152 29 -161 10 -10 11 37 3 108 -9 73 -7 128 3 132 11 3 19 30 19 60 0 90
40 203 81 228 21 14 39 36 39 51 0 16 -10 20 -25 11 -16 -9 -15 -2 3 20 16 19
34 27 40 17 26 -39 132 48 126 103 -3 29 3 53 13 53 11 0 29 28 41 62 11 33
30 55 42 48 11 -7 26 1 32 19 29 75 366 304 419 283 15 -5 33 -1 40 10 8 13
30 9 60 -11 69 -45 143 -43 106 4 -15 19 1 12 35 -15 35 -28 59 -57 54 -65 -5
-9 19 -21 53 -28 78 -15 81 -51 3 -37 -56 9 -58 7 -49 -52 7 -41 3 -58 -11
-49 -12 7 -22 27 -22 43 0 21 -14 25 -55 16 -51 -12 -52 -11 -17 16 45 35 -57
127 -116 104 -24 -9 -29 -4 -21 19 13 32 -91 15 -174 -29 -52 -27 -24 -106 31
-87 23 8 71 15 106 15 35 1 59 8 54 18 -6 9 0 16 12 16 50 0 3 -51 -64 -70
-79 -22 -141 -67 -126 -90 13 -21 -86 -85 -110 -70 -11 7 -40 1 -65 -13 -25
-14 -52 -24 -60 -21 -8 2 -13 -7 -10 -21 3 -14 -7 -22 -22 -19 -18 4 -24 -6
-16 -25 6 -17 5 -30 -3 -28 -37 5 -44 -6 -24 -43 28 -53 56 -51 64 5 4 31 17
43 43 39 20 -4 32 2 25 13 -6 10 1 24 17 30 19 7 25 1 18 -18 -14 -37 40 -38
71 -2 12 16 17 43 10 60 -15 39 5 43 40 8 14 -14 22 -39 17 -55 -7 -25 -5 -25
11 -2 30 42 124 12 124 -41 0 -35 5 -38 30 -17 24 20 32 19 41 -6 7 -18 25
-27 41 -21 15 6 28 1 28 -12 0 -13 -9 -18 -20 -11 -25 15 -49 -40 -30 -70 9
-14 27 -6 52 22 38 45 138 31 138 -19 0 -24 104 -59 202 -68 29 -3 49 -15 45
-27 -5 -12 7 -34 27 -49 28 -21 31 -21 13 -1 -24 27 -14 89 11 73 8 -5 25 -1
40 8 18 11 14 18 -16 26 -23 6 -42 4 -42 -4 0 -39 -256 36 -298 87 -23 28 -21
32 21 34 34 2 37 5 12 12 -21 5 -30 19 -21 33 8 13 0 12 -20 -4 -28 -23 -46
-21 -120 15 -48 23 -96 42 -107 42 -12 0 -38 19 -58 41 -21 23 -29 40 -18 37
31 -7 129 39 129 62 0 11 19 20 41 20 23 0 37 -8 31 -17 -15 -24 80 -71 108
-53 18 11 18 19 -3 32 -17 11 11 17 77 18 57 0 109 -9 116 -20 7 -11 23 -20
36 -20 14 0 12 8 -6 20 -22 14 -23 19 -4 20 15 0 21 9 14 19 -16 26 77 48 138
33 30 -7 57 -1 72 18 25 31 102 42 98 15 -7 -43 5 -63 32 -52 17 6 30 1 30
-11 0 -12 10 -22 23 -22 13 0 38 -13 55 -29 18 -17 66 -58 107 -93 41 -34 75
-72 75 -83 0 -11 41 -64 90 -117 50 -53 90 -107 90 -120 0 -37 234 -9 281 33
45 41 54 6 10 -37 -16 -16 -23 -36 -15 -44 8 -8 -7 -8 -34 0 -26 8 -42 7 -36
-3 5 -9 -40 -14 -100 -10 -74 5 -116 -1 -127 -18 -11 -19 -32 -14 -87 20 -84
52 -89 60 -27 49 25 -5 32 -3 15 5 -16 7 -66 30 -110 51 -79 38 -80 38 -35 -1
36 -32 39 -41 15 -50 -17 -7 -30 -4 -30 6 0 10 -18 24 -40 31 -24 7 -35 23
-27 36 9 17 6 17 -13 0 -22 -20 -17 -32 22 -65 46 -38 56 -43 96 -48 10 -2 34
-24 55 -49 44 -55 106 -68 143 -30 20 19 55 23 125 14 53 -7 124 -3 158 9 68
23 79 11 26 -29 -31 -24 -27 -26 33 -21 103 11 295 193 203 193 -11 0 -15 13
-9 29 12 30 -56 83 -120 94 -49 9 -231 203 -296 317 -29 50 -73 108 -99 130
-32 27 -38 29 -20 6 27 -35 17 -76 -18 -76 -11 0 -19 11 -19 24 0 25 -158 176
-184 176 -37 0 -46 -5 -41 -23 4 -11 -3 -14 -15 -7 -11 7 -15 22 -8 33 6 10
-21 51 -60 89 -40 39 -72 82 -72 98 0 15 -18 41 -41 56 -22 16 -78 64 -125
106 -72 67 -316 226 -473 308 -88 46 -329 52 -317 7z m-755 -106 c-50 -49
-203 -69 -241 -32 -35 35 -35 36 3 25 21 -7 71 -5 109 5 99 24 152 25 129 2z
m342 -123 c13 -21 -36 -64 -127 -112 -31 -17 -59 -18 -90 -5 -40 18 -39 19 11
9 31 -6 55 -2 55 9 0 11 -45 19 -101 18 -55 -1 -106 3 -113 10 -7 7 11 13 41
13 30 0 53 11 53 26 0 19 30 25 110 22 113 -4 128 5 85 50 -21 22 -17 23 19 4
24 -12 50 -32 57 -44z m864 -418 c41 -22 86 -40 100 -40 14 0 25 -17 25 -38 0
-32 -9 -36 -55 -24 -30 8 -50 21 -45 29 6 7 -19 31 -55 53 -59 36 -81 60 -55
60 6 0 44 -18 85 -40z m194 -162 c-6 -10 14 -19 45 -21 47 -2 49 -4 11 -11
-25 -5 -42 -15 -37 -22 4 -8 -27 -14 -70 -15 -43 -1 -78 6 -78 15 0 9 19 16
42 16 35 0 38 5 20 28 -18 22 -18 30 2 37 36 13 78 -5 65 -27z m-3329 -1199
c0 -12 9 -16 21 -9 14 9 16 -6 6 -43 -9 -31 -14 -77 -13 -102 1 -25 -7 -45
-18 -45 -10 0 -17 -20 -15 -45 2 -25 2 -54 -1 -65 -2 -11 -3 -101 -2 -200 1
-174 -30 -199 -39 -30 -3 65 -4 66 -19 20 -13 -41 -16 -43 -17 -10 -1 22 11
56 26 76 17 23 23 64 17 111 -6 44 4 116 23 174 22 65 26 101 12 105 -27 9
-28 84 -1 84 11 0 20 -10 20 -21z m225 -477 c-3 -13 -7 -59 -8 -102 -2 -44
-12 -80 -21 -80 -10 0 -16 50 -14 111 3 69 13 107 26 102 12 -4 20 -18 17 -31z
m135 -483 c0 -58 -30 -139 -51 -139 -15 0 -21 15 -15 40 6 22 1 40 -11 40 -12
0 -17 13 -11 28 6 15 1 34 -11 41 -12 8 -17 22 -11 32 12 19 110 -18 110 -42z
m1906 -4119 c12 -46 6 -48 -48 -19 -21 12 -34 30 -27 40 20 33 64 21 75 -21z"/>
<path d="M3414 7227 c-23 -22 7 -47 57 -47 30 0 49 12 49 30 0 30 -80 43 -106
17z"/>
<path d="M3089 7099 c-7 -12 -66 -45 -131 -73 -64 -28 -112 -59 -106 -70 7
-10 27 -12 45 -5 60 26 204 43 215 26 6 -9 1 -17 -11 -17 -11 0 -21 -7 -21
-17 0 -23 118 -3 134 23 8 13 0 16 -22 8 -20 -8 -29 -6 -22 6 7 11 33 20 59
20 25 0 58 15 74 34 18 23 19 29 2 19 -37 -23 -30 9 8 37 28 21 20 24 -55 22
-52 -1 -97 -14 -111 -32 -13 -16 -30 -23 -39 -15 -8 8 -4 15 9 15 13 0 23 9
23 20 0 27 -34 26 -51 -1z"/>
<path d="M3674 7107 c13 -5 19 -23 13 -38 -12 -31 -9 -32 142 -40 91 -4 96 -2
60 24 -21 16 -59 24 -83 18 -25 -6 -56 2 -73 19 -17 16 -42 29 -57 28 -18 -1
-19 -4 -2 -11z"/>
<path d="M3386 7071 c4 -11 29 -24 56 -27 36 -4 41 -1 19 14 -21 14 -12 21 40
28 51 6 44 8 -26 8 -58 -1 -93 -10 -89 -23z"/>
<path d="M4317 6956 c34 -37 82 -69 106 -71 58 -4 -45 103 -120 125 -45 13
-45 11 14 -54z"/>
<path d="M4069 6927 c-20 -15 -28 -27 -18 -27 11 0 6 -9 -11 -20 -24 -16 -21
-19 16 -20 26 0 41 9 34 20 -7 11 1 20 18 20 18 0 26 -12 20 -27 -7 -20 4 -26
39 -22 28 3 68 -12 91 -34 62 -57 51 -17 -18 63 -65 76 -113 89 -171 47z"/>
<path d="M2038 6925 c-2 -8 -2 -22 0 -30 1 -8 -23 -15 -53 -15 -68 -1 -115
-28 -96 -58 9 -15 38 -9 93 19 48 25 74 49 65 63 -9 15 -2 18 20 10 18 -7 33
-4 33 7 0 22 -59 26 -62 4z"/>
<path d="M2455 6926 c-30 -5 -55 -17 -55 -27 0 -11 -25 -19 -55 -19 -98 -1
-122 -35 -35 -51 59 -11 82 -7 100 18 14 18 44 33 67 33 25 0 43 13 43 30 0
17 -2 29 -5 27 -3 -2 -30 -7 -60 -11z"/>
<path d="M2960 6920 c-16 -10 -77 -15 -135 -10 -66 6 -105 1 -105 -12 0 -12
19 -16 45 -9 25 7 14 -4 -23 -23 -89 -47 -123 -100 -82 -126 26 -17 25 -19 -5
-20 -19 0 -35 -14 -35 -31 0 -20 9 -26 25 -15 14 8 34 16 45 17 11 0 18 11 15
24 -2 13 8 19 25 12 17 -6 30 -1 30 11 0 12 10 22 22 22 12 0 17 -13 11 -30
-16 -40 5 -38 75 9 l58 38 -68 7 -68 8 60 15 c81 21 121 45 115 70 -2 12 10
16 29 9 21 -8 28 -5 19 9 -7 12 2 26 22 31 30 8 29 10 -5 11 -22 1 -53 -6 -70
-17z"/>
<path d="M1775 6848 c-7 -7 -7 -26 0 -43 9 -24 3 -29 -22 -19 -21 8 -33 3 -33
-16 0 -16 -22 -35 -50 -42 -27 -7 -50 -21 -50 -31 0 -10 -18 -38 -40 -62 -22
-23 -40 -57 -40 -75 0 -17 -11 -43 -24 -56 -19 -19 -18 -24 5 -23 34 1 337
279 304 279 -12 0 -21 18 -19 40 1 25 13 37 29 31 15 -6 22 -2 15 9 -14 22
-57 27 -75 8z"/>
<path d="M2011 6814 c-111 -62 -121 -70 -253 -202 -65 -64 -118 -130 -118
-146 0 -16 -10 -22 -23 -14 -16 10 -20 1 -12 -27 7 -28 -5 -55 -37 -83 -27
-23 -48 -54 -48 -70 0 -34 54 -58 71 -31 6 10 2 19 -10 19 -11 0 -21 9 -21 20
0 11 12 20 28 20 15 0 39 29 54 64 14 35 38 78 52 95 119 145 225 250 317 313
60 41 109 78 109 81 0 15 -34 3 -109 -39z"/>
<path d="M2180 6830 c0 -28 -10 -33 -78 -38 -16 -1 -33 -14 -38 -29 -6 -20 3
-23 39 -12 26 9 63 17 82 19 60 5 78 39 35 66 -33 20 -40 19 -40 -6z"/>
<path d="M2225 6743 c-15 -9 -13 -25 7 -52 17 -24 28 -28 28 -12 0 15 14 37
31 49 37 27 -24 41 -66 15z"/>
<path d="M3180 6694 c0 -16 -20 -36 -45 -44 -38 -12 -40 -16 -10 -24 19 -5 35
-18 35 -29 0 -10 -7 -15 -17 -9 -9 6 -16 -3 -16 -19 0 -40 14 -37 83 21 33 28
45 45 26 38 -25 -8 -31 -2 -23 28 6 22 1 46 -11 53 -12 7 -22 0 -22 -15z"/>
<path d="M2800 6640 c-22 -22 -40 -56 -40 -74 0 -26 15 -18 60 31 33 36 60 69
60 74 0 22 -44 5 -80 -31z"/>
<path d="M2204 6596 c-46 -36 -84 -72 -84 -81 0 -10 -9 -12 -20 -5 -11 7 -20
3 -20 -9 0 -11 -13 -21 -30 -21 -16 0 -30 -9 -30 -21 0 -11 -18 -40 -40 -64
-22 -24 -40 -32 -40 -18 0 14 -10 19 -22 12 -16 -10 -14 -19 5 -31 22 -15 22
-21 -2 -37 -20 -13 -36 -11 -47 5 -12 16 -14 13 -7 -10 8 -23 -24 -66 -101
-137 -62 -56 -131 -126 -153 -156 -22 -29 -28 -42 -12 -28 47 43 61 27 25 -29
-35 -53 -35 -54 4 -39 32 12 35 10 15 -10 -14 -14 -25 -34 -24 -46 0 -12 19 2
42 29 131 159 195 235 267 316 44 50 69 85 55 76 -40 -23 -29 23 12 52 21 14
44 46 51 70 10 30 25 40 48 33 29 -9 30 -8 4 13 -25 20 -23 22 15 14 29 -7 45
-1 45 17 0 34 34 55 61 38 13 -8 -16 -48 -70 -97 -51 -47 -85 -92 -76 -101 8
-10 4 -11 -9 -4 -13 8 -29 5 -36 -7 -7 -11 5 -20 27 -20 21 0 44 13 50 28 6
16 36 41 67 57 31 15 53 39 50 53 -8 36 36 84 62 68 13 -8 16 0 9 19 -7 18 -5
35 3 39 9 3 23 26 31 51 20 65 -25 58 -125 -19z"/>
<path d="M2973 6527 c-7 -8 -13 -28 -13 -47 0 -18 -18 -52 -40 -75 -22 -24
-40 -55 -40 -68 0 -35 24 -5 89 108 47 81 49 126 4 82z"/>
<path d="M5180 6516 c0 -18 -25 -42 -55 -53 -45 -16 -47 -20 -14 -21 65 -3
125 49 94 81 -20 20 -25 19 -25 -7z"/>
<path d="M1726 6415 c-32 -43 -66 -135 -50 -135 27 0 86 80 59 81 -15 0 -11
11 10 27 19 14 35 32 35 39 0 22 -34 14 -54 -12z"/>
<path d="M1436 6332 c-69 -86 -156 -241 -155 -276 0 -17 9 -14 27 9 14 19 33
35 41 35 18 0 -74 -117 -94 -119 -8 -1 -15 17 -15 39 0 53 60 200 82 200 9 0
12 14 5 30 -6 17 -19 30 -29 30 -9 0 -12 -12 -6 -28 7 -17 -9 -32 -42 -40 -28
-7 -46 -22 -40 -32 7 -11 -1 -15 -17 -8 -56 21 -53 -145 3 -175 58 -31 97 -97
68 -115 -32 -20 -39 -233 -7 -226 20 4 23 -11 13 -60 -12 -55 -10 -62 13 -40
18 18 26 69 23 160 -3 77 2 123 12 107 19 -31 41 10 44 84 2 39 3 39 17 -7 13
-43 17 -35 28 50 15 114 39 219 82 355 35 112 21 120 -53 27z"/>
<path d="M1369 6361 c6 -10 -8 -24 -31 -32 -33 -10 -37 -17 -16 -30 31 -19 78
13 78 53 0 16 -10 28 -21 28 -12 0 -16 -8 -10 -19z"/>
<path d="M3940 6330 c32 -17 79 -24 130 -17 44 6 91 12 105 12 35 2 31 35 -4
35 -15 0 -51 -9 -80 -20 -37 -14 -51 -13 -51 5 -1 18 -6 17 -18 -2 -13 -21
-26 -22 -58 -5 -61 32 -83 25 -24 -8z"/>
<path d="M417 6298 c-60 -37 77 -67 180 -39 47 12 41 16 -51 34 -57 12 -115
14 -129 5z"/>
<path d="M3284 6216 c-51 -66 -78 -84 -127 -85 -36 0 -68 -13 -73 -29 -7 -20
4 -25 43 -18 38 8 53 2 53 -20 0 -20 15 -13 49 23 46 50 151 75 151 36 0 -9
14 -16 30 -16 17 0 30 7 30 16 0 24 -78 61 -100 47 -11 -7 -20 3 -20 21 0 20
11 29 27 23 19 -7 24 3 18 38 -12 60 -5 63 -81 -36z"/>
<path d="M2925 6264 c-64 -10 -56 -44 10 -43 50 2 148 32 125 39 -26 8 -94 10
-135 4z"/>
<path d="M3140 6218 c0 -14 -19 -18 -50 -10 -53 14 -56 11 -40 -32 7 -18 36
-25 90 -19 89 8 99 22 40 58 -28 18 -40 19 -40 3z"/>
<path d="M1012 6203 c-14 -23 10 -103 30 -103 10 0 18 8 18 18 0 10 5 32 11
48 12 30 -43 64 -59 37z"/>
<path d="M2728 6184 c-11 -8 -27 -31 -35 -53 -14 -38 -14 -38 26 -2 31 28 41
30 42 9 0 -19 7 -16 21 9 12 20 16 41 10 48 -7 6 -12 -1 -12 -17 -1 -20 -5
-21 -16 -4 -8 13 -24 18 -36 10z"/>
<path d="M2853 6170 c-38 -28 -78 -126 -62 -152 6 -10 4 -18 -6 -18 -9 0 -16
-18 -16 -40 0 -26 13 -40 36 -40 21 0 32 8 26 18 -17 27 9 82 39 82 14 0 35
12 47 26 18 22 10 25 -37 18 -38 -5 -60 0 -60 15 0 13 9 18 20 11 31 -19 87 5
114 48 29 46 -47 71 -101 32z"/>
<path d="M3580 6143 c0 -19 -18 -25 -60 -19 -33 5 -60 2 -60 -7 0 -10 47 -16
105 -15 58 0 92 6 75 13 -16 6 -37 21 -45 33 -10 15 -14 13 -15 -5z"/>
<path d="M3361 6001 c-16 -10 -36 -14 -45 -8 -9 5 -16 -2 -16 -16 0 -14 -25
-52 -55 -86 -53 -59 -53 -59 16 4 40 36 77 60 84 54 6 -7 22 6 34 29 25 47 23
49 -18 23z"/>
<path d="M3080 5954 c-62 -29 -111 -74 -81 -74 25 0 201 81 201 92 0 16 -71 5
-120 -18z"/>
<path d="M5091 5950 c-45 -35 -48 -31 78 -90 81 -39 92 -49 60 -61 -22 -8 -57
-4 -79 10 -22 14 -66 31 -97 39 -50 12 -53 18 -30 47 23 28 23 30 -2 15 -43
-26 -247 -11 -283 22 -41 36 -71 36 -71 -2 0 -16 14 -30 32 -30 43 0 81 -39
81 -84 0 -20 12 -36 27 -36 47 0 153 43 153 62 0 10 9 18 20 18 11 0 20 -14
20 -30 0 -18 25 -36 60 -43 32 -6 55 -18 50 -27 -5 -8 13 -10 41 -5 33 7 49 1
49 -18 1 -23 3 -23 18 1 21 33 62 12 62 -32 0 -24 -15 -29 -69 -20 -57 9 -74
3 -99 -36 -31 -47 -31 -47 37 -36 49 8 79 1 101 -22 35 -35 38 -34 -104 -40
-74 -3 -104 -51 -88 -142 12 -74 15 -77 38 -40 24 39 25 39 19 1 -3 -22 -23
-58 -45 -80 -36 -37 -37 -41 -5 -47 19 -4 35 -15 35 -25 0 -11 9 -19 20 -19
11 0 20 23 20 50 0 28 11 50 25 50 17 1 16 7 -4 19 -17 10 -23 25 -15 33 20
20 32 4 53 -69 14 -48 11 -70 -12 -93 -16 -16 -22 -30 -12 -30 9 0 28 11 41
24 35 35 32 -65 -3 -113 -38 -52 -97 -27 -85 36 5 30 -6 59 -30 80 -37 32 -38
31 -27 -12 6 -26 -2 -71 -17 -101 -39 -75 -52 -25 -46 176 4 137 1 148 -36
144 -29 -3 -40 9 -42 51 -3 49 30 79 93 84 28 2 42 31 15 31 -15 1 -50 19 -78
41 l-50 40 60 -13 c33 -8 64 -17 68 -20 4 -4 25 13 46 37 43 50 37 55 -94 86
l-60 15 50 13 c44 11 46 15 13 27 -23 9 -55 0 -87 -26 -28 -22 -61 -40 -74
-40 -12 0 -8 10 8 22 25 18 24 20 -7 10 -20 -7 -42 -12 -50 -12 -7 0 -3 -7 10
-15 13 -9 27 -99 34 -216 6 -110 16 -214 22 -230 38 -100 82 -762 79 -1169 -2
-231 -10 -282 -64 -458 -34 -110 -58 -206 -52 -215 6 -10 0 -17 -12 -17 -12 0
-20 -11 -18 -25 2 -14 -2 -41 -9 -60 -7 -19 -19 -51 -26 -70 -8 -19 -15 -61
-17 -92 -3 -32 -15 -64 -27 -71 -17 -11 -15 -25 5 -53 27 -36 29 -33 42 41 7
44 22 99 34 123 11 24 15 52 9 62 -6 10 12 39 40 64 43 37 50 56 40 118 -12
80 47 276 81 269 11 -2 31 34 45 80 14 46 32 102 40 124 8 22 12 63 7 90 -4
28 -11 127 -16 220 -4 94 -12 199 -17 234 -10 70 30 347 70 480 22 75 31 83
72 73 32 -8 56 0 75 26 26 33 29 33 29 3 1 -57 -39 -143 -94 -201 -67 -70 -28
-73 42 -3 96 96 99 344 7 523 -40 77 -47 105 -27 105 16 0 39 14 53 30 35 42
50 38 76 -20 27 -58 11 -66 -31 -15 -15 19 -10 4 11 -35 61 -106 124 -316 124
-411 0 -100 -58 -293 -83 -277 -10 6 -17 4 -15 -6 8 -44 -7 -66 -69 -104 -37
-23 -94 -43 -125 -43 -50 -2 -52 -4 -18 -18 22 -8 51 -11 65 -6 46 17 26 -13
-28 -41 -33 -18 -44 -33 -30 -42 51 -32 262 210 304 348 12 39 16 27 17 -51 2
-113 -47 -302 -90 -351 -16 -18 -26 -45 -22 -60 4 -15 4 -22 -1 -14 -10 18
-85 -27 -85 -51 0 -10 14 -7 30 7 92 77 35 -50 -84 -185 -36 -41 -66 -86 -65
-100 2 -64 240 278 331 476 108 234 73 610 -90 951 l-56 117 42 29 c41 29 41
29 -6 17 -32 -7 -44 -4 -35 10 8 12 36 18 63 13 75 -13 68 79 -10 152 -37 34
-60 76 -60 108 0 41 -10 52 -45 52 -25 0 -63 5 -85 10 -22 6 -57 -3 -79 -20z
m399 -1165 c-6 -68 -20 -145 -30 -170 -15 -34 -16 -25 -6 35 7 44 13 146 14
228 0 113 4 134 17 90 9 -32 12 -114 5 -183z"/>
<path d="M3831 5929 c-21 -16 -40 -48 -42 -71 -3 -42 -2 -42 31 3 23 29 44 39
62 29 16 -9 21 -9 13 0 -8 9 -5 28 8 43 31 38 -21 35 -72 -4z"/>
<path d="M2690 5857 c-26 -55 -26 -60 -2 -29 40 49 238 71 220 24 -9 -23 -23
-25 -60 -11 -30 11 -48 11 -48 -1 0 -11 16 -20 35 -21 25 0 19 -9 -20 -30 -68
-37 -70 -50 -6 -45 26 3 47 14 45 25 -2 12 21 19 51 17 39 -2 51 4 41 20 -8
13 -12 40 -9 59 4 28 -9 35 -74 35 -44 0 -93 5 -110 12 -21 8 -41 -10 -63 -55z"/>
<path d="M3619 5862 c15 -28 14 -42 -4 -49 -19 -7 -19 -10 1 -11 37 -3 104 36
104 59 0 10 -10 19 -21 19 -12 0 -16 -9 -9 -20 7 -11 -2 -20 -19 -20 -17 0
-31 14 -31 30 0 17 -9 30 -21 30 -14 0 -14 -12 0 -38z"/>
<path d="M1682 5812 c-36 -37 -80 -66 -98 -65 -20 2 -41 -21 -53 -59 -12 -34
-31 -58 -43 -54 -12 4 -33 -6 -47 -23 -14 -17 -19 -31 -11 -31 8 0 3 -14 -12
-32 -24 -29 -27 -28 -40 5 -25 68 -44 -64 -24 -168 20 -105 55 -78 86 65 8 40
24 59 46 57 23 -2 34 13 34 46 0 27 9 44 19 37 11 -6 25 9 31 34 7 26 44 68
83 95 62 43 122 133 101 153 -4 4 -36 -23 -72 -60z"/>
<path d="M4281 5861 c-16 -10 -34 -16 -40 -13 -31 15 -73 -61 -47 -85 21 -20
26 -17 26 16 0 23 13 41 30 41 17 0 30 -10 30 -21 0 -12 -9 -16 -20 -9 -11 7
-20 3 -20 -9 0 -11 10 -21 21 -21 12 0 16 -17 10 -38 -13 -38 56 -82 84 -54 6
7 -2 12 -20 12 -21 0 -33 24 -38 80 -6 54 -1 78 14 72 12 -4 22 4 22 20 0 32
-12 35 -52 9z"/>
<path d="M3082 5822 c-49 -20 -79 -41 -69 -48 27 -16 107 6 107 30 0 10 8 13
18 7 10 -6 23 3 29 19 7 17 10 29 7 29 -2 -1 -44 -17 -92 -37z"/>
<path d="M3885 5829 c-33 -36 -32 -43 15 -55 41 -10 52 16 25 59 -11 16 -22
15 -40 -4z"/>
<path d="M3334 5788 c-20 -26 -49 -48 -65 -48 -16 0 -29 -10 -29 -21 0 -12 16
-17 35 -11 19 6 59 15 88 20 50 8 137 46 137 59 0 3 -26 2 -58 -2 -41 -6 -60
0 -65 21 -5 23 -16 19 -43 -18z"/>
<path d="M5549 5720 c44 -49 82 -88 85 -85 4 3 8 7 11 11 3 3 -35 41 -85 85
l-90 79 79 -90z"/>
<path d="M3017 5707 c42 -33 73 -33 99 -2 16 19 3 25 -56 26 -66 1 -72 -3 -43
-24z"/>
<path d="M3350 5680 c-12 -20 -9 -23 32 -27 12 -2 33 -30 47 -63 l24 -60 -1
72 c-1 50 -10 70 -27 63 -14 -5 -25 1 -25 13 0 27 -33 29 -50 2z"/>
<path d="M4084 5575 c-3 -44 2 -56 14 -37 9 15 25 22 35 17 9 -6 30 3 46 20
26 28 24 30 -17 20 -34 -9 -42 -5 -34 16 6 16 -1 29 -14 29 -14 0 -27 -28 -30
-65z"/>
<path d="M1792 5503 c-8 -13 -31 -23 -51 -23 -20 0 -42 -14 -49 -31 -6 -17
-21 -26 -32 -19 -11 7 -20 -7 -20 -31 0 -29 -9 -40 -29 -32 -15 6 -40 -3 -54
-20 -14 -17 -47 -39 -74 -50 -27 -10 -43 -24 -36 -31 7 -7 3 -24 -8 -37 -15
-18 -14 -30 1 -39 15 -9 10 -23 -14 -41 -29 -22 -30 -28 -6 -29 24 -1 23 -5
-5 -22 -19 -11 -35 -33 -35 -49 0 -16 -11 -29 -25 -30 -17 0 -14 -9 7 -25 42
-32 26 -74 -29 -75 -42 0 -42 -1 4 -27 26 -14 71 -21 100 -16 43 9 46 12 16
23 -34 12 -34 15 -4 40 30 25 28 31 -13 75 -34 37 -37 45 -11 35 20 -8 35 -4
35 8 0 12 11 18 25 13 77 -27 135 -26 135 3 0 20 -12 26 -38 18 -21 -7 -44 -3
-51 8 -8 13 0 15 21 7 25 -9 30 -5 19 12 -16 26 39 22 144 -9 34 -10 45 -5 45
19 0 38 42 42 76 8 17 -17 24 -18 24 -1 0 29 180 30 290 1 95 -24 178 -35 335
-45 63 -5 142 -21 175 -38 33 -16 60 -22 60 -13 0 9 -9 20 -20 23 -10 4 -24
39 -30 77 -9 66 -9 67 9 13 10 -32 32 -72 49 -91 17 -18 44 -67 62 -108 17
-41 39 -74 50 -74 24 0 26 -60 2 -97 -13 -22 -26 -22 -62 -3 -51 27 -104 -12
-130 -96 -20 -67 110 -57 140 11 11 25 26 45 34 45 8 0 5 -22 -8 -50 -12 -27
-31 -50 -42 -50 -10 0 -8 -13 5 -29 18 -21 18 -39 2 -70 -18 -33 -17 -41 8
-41 40 0 39 -6 -9 -85 -22 -36 -40 -81 -40 -100 0 -19 -7 -35 -16 -35 -8 0
-26 -28 -39 -62 -20 -55 -19 -60 11 -49 27 11 29 8 9 -12 -14 -14 -25 -62 -25
-107 0 -87 -78 -118 -121 -48 -14 21 -18 18 -19 -15 0 -24 11 -48 25 -54 19
-8 18 -15 -4 -30 -22 -16 -23 -26 -5 -48 13 -16 17 -35 9 -43 -7 -8 2 -8 21
-1 26 10 34 2 36 -34 l2 -47 16 50 c9 28 17 39 18 25 3 -39 50 -30 78 15 22
36 19 43 -26 64 -37 17 -44 27 -26 39 39 25 56 20 56 -14 0 -16 14 -35 30 -42
43 -16 37 -73 -10 -102 -23 -14 -40 -47 -40 -75 0 -37 11 -50 40 -50 31 0 40
13 40 58 0 33 13 63 30 69 18 7 24 24 16 46 -9 22 -5 29 10 19 16 -9 19 -3 12
17 -7 17 -3 31 8 31 10 0 19 45 19 100 0 55 10 112 21 125 22 27 20 134 -4
171 -9 15 -4 20 12 14 18 -7 27 10 30 55 12 222 27 344 44 361 10 10 14 33 7
50 -8 20 -4 26 12 16 15 -9 23 2 23 32 1 37 4 40 20 16 15 -24 19 -20 20 19 0
38 5 44 24 25 37 -37 56 -29 56 26 0 28 9 50 20 50 11 0 20 9 20 20 0 39 -53
19 -101 -39 -65 -79 -82 -76 -75 12 5 56 -2 74 -29 78 -19 3 -31 -1 -26 -9 4
-8 1 -26 -8 -40 -11 -18 -22 -7 -37 36 -28 80 -39 79 -28 -3 7 -54 4 -61 -18
-39 -18 16 -28 72 -28 155 0 71 -6 129 -14 129 -8 0 -25 36 -38 80 -20 64 -32
78 -61 69 -20 -6 -37 -2 -37 10 0 11 -12 21 -28 21 -15 0 -38 14 -52 30 -42
51 -57 34 -38 -45 24 -104 22 -114 -12 -85 -16 14 -30 37 -30 51 0 41 -104
115 -122 86 -8 -13 -9 -38 -2 -55 9 -25 5 -27 -17 -10 -36 28 -165 54 -150 30
14 -23 -69 -43 -122 -30 -23 6 -70 -3 -104 -20 -92 -48 -117 -29 -49 39 32 32
31 33 -15 18 -73 -23 -199 -22 -199 2 0 12 29 18 68 13 40 -5 74 2 83 17 11
18 3 22 -28 14 -27 -7 -49 0 -60 19 -12 22 -22 24 -31 9z m1068 -1543 c0 -39
-10 -60 -29 -60 -16 0 -27 17 -26 39 2 21 10 34 19 28 9 -5 16 5 16 22 0 17 5
31 10 31 6 0 10 -27 10 -60z"/>
<path d="M3600 5325 c-16 -6 -41 -23 -56 -38 -24 -24 -68 -36 -109 -29 -24 3
-17 -34 8 -42 15 -5 11 -19 -10 -41 -19 -18 -25 -38 -14 -44 11 -7 14 -26 7
-43 -9 -26 -15 -26 -30 -5 -12 18 -14 10 -5 -23 8 -27 15 -50 16 -51 2 0 28
-12 59 -25 32 -14 66 -19 77 -12 18 11 278 26 617 36 83 2 164 -3 182 -11 17
-8 56 -2 87 14 31 16 64 29 75 29 23 0 -24 -49 -64 -66 -17 -8 -9 -11 20 -8
28 2 55 11 62 20 7 9 43 8 80 -3 l68 -19 -60 -4 c-33 -2 -48 -8 -34 -14 19 -7
20 -17 4 -36 -24 -29 115 -27 195 3 l44 18 -50 59 c-44 50 -47 62 -22 81 20
14 24 31 12 50 -17 27 -28 12 -21 -28 2 -9 -16 -10 -40 -2 -33 10 -39 7 -28
-14 13 -21 10 -22 -10 -3 -31 29 10 95 45 73 13 -8 15 -3 6 11 -10 17 -22 18
-40 3 -13 -11 -29 -16 -35 -10 -6 5 -23 -5 -38 -24 -24 -30 -24 -32 0 -18 19
12 24 10 14 -6 -25 -39 -49 -25 -56 32 -5 45 -15 54 -56 50 -36 -3 -41 0 -16
10 30 13 28 20 -17 61 -33 28 -47 34 -40 15 15 -41 -5 -39 -54 4 -38 34 -39
33 -28 -9 12 -49 -32 -103 -55 -67 -7 12 -23 16 -34 8 -13 -8 -16 -4 -8 10 8
13 3 23 -12 24 -14 0 -71 6 -126 12 -55 6 -140 11 -190 10 l-90 0 60 29 c33
16 44 24 25 19 -19 -5 -55 -2 -80 7 -33 13 -61 6 -105 -25 -45 -31 -53 -33
-33 -7 16 19 19 34 7 34 -11 0 -33 4 -47 8 -15 5 -40 4 -57 -3z"/>
<path d="M4548 5324 c12 -19 2 -23 -41 -13 -43 9 -50 7 -27 -9 17 -11 30 -29
30 -40 0 -33 92 -100 122 -89 43 17 33 51 -36 117 -34 33 -56 48 -48 34z"/>
<path d="M1851 4918 c-43 -11 -84 -25 -90 -31 -6 -7 16 -6 49 3 33 9 155 22
270 30 l210 14 -180 1 c-99 0 -215 -7 -259 -17z"/>
<path d="M2355 4880 c73 -45 85 -80 25 -80 -22 0 -40 7 -40 15 0 17 -26 20
-255 24 -91 2 -174 -2 -185 -9 -12 -7 -48 -16 -81 -21 -79 -10 -170 -56 -165
-83 3 -13 -12 -17 -35 -12 -42 11 -49 -7 -21 -52 10 -15 32 -22 50 -16 18 7
32 3 32 -8 0 -11 11 -13 25 -5 29 18 133 24 130 8 -6 -43 38 -97 65 -80 26 17
25 23 -5 47 -19 14 -35 37 -35 49 0 13 -9 23 -21 23 -14 0 -14 12 0 38 26 48
121 51 121 3 0 -41 81 -121 123 -121 30 0 97 -60 97 -87 0 -7 -18 -13 -40 -13
-22 0 -40 13 -40 30 0 17 -9 30 -20 30 -11 0 -20 -13 -20 -30 0 -16 -13 -30
-29 -30 -20 0 -26 12 -17 35 9 26 0 23 -34 -12 -25 -26 -51 -39 -58 -30 -11
16 -29 17 -102 8 -16 -3 -3 -12 30 -22 101 -31 275 -26 385 11 116 38 140 62
43 43 -99 -20 -137 34 -57 81 37 22 66 58 73 91 13 65 43 70 102 14 58 -54 55
-75 -9 -83 -98 -11 -69 -46 43 -51 130 -7 150 42 58 142 -29 30 -48 60 -43 65
5 5 21 -5 35 -22 38 -46 65 -36 38 15 -34 62 -67 92 -128 115 -86 33 -105 23
-35 -20z"/>
<path d="M1652 4835 c-86 -49 -119 -98 -55 -82 33 9 166 128 142 127 -5 -1
-44 -21 -87 -45z"/>
<path d="M3501 4847 c-1 -12 -18 -27 -38 -32 -58 -15 -89 -236 -38 -269 54
-34 150 -58 255 -63 61 -3 128 -10 150 -17 36 -10 36 -6 -8 41 -26 28 -54 48
-63 43 -8 -5 -26 4 -39 20 -20 24 -20 30 1 30 14 0 42 14 61 32 61 55 98 6
100 -134 1 -43 8 -50 47 -43 26 5 52 0 59 -11 35 -58 232 51 232 128 0 35 8
35 82 -3 71 -37 65 -51 -40 -98 -60 -27 -74 -42 -57 -60 26 -27 115 -17 115
13 0 67 65 84 146 40 110 -61 133 -20 37 65 -171 152 -435 222 -648 173 -44
-11 -75 -10 -75 0 0 10 14 18 31 18 17 0 26 8 20 19 -6 10 -1 25 12 33 14 9
18 6 9 -9 -8 -13 -6 -23 5 -23 10 0 24 13 29 28 38 99 491 -6 602 -140 102
-121 186 -121 90 0 -127 162 -548 244 -802 158 -135 -46 -253 -40 -212 10 18
21 18 27 2 17 -13 -8 -33 2 -44 22 -12 19 -21 25 -21 12z"/>
<path d="M3787 4395 c-5 -8 1 -15 14 -15 13 0 19 -12 13 -27 -17 -44 411 -86
546 -54 l70 17 -70 4 c-38 3 -79 2 -90 -1 -89 -23 -266 13 -231 48 17 17 27
16 39 -4 13 -20 21 -21 32 -4 8 13 27 19 42 13 15 -6 28 -2 28 9 0 21 1 20
-98 26 -49 2 -71 -6 -77 -31 -5 -19 -21 -29 -37 -22 -21 8 -23 18 -8 36 16 19
1 24 -71 23 -51 -2 -97 -10 -102 -18z"/>
<path d="M3611 4361 c-13 -21 73 -121 105 -121 44 0 35 50 -17 94 -61 51 -71
54 -88 27z"/>
<path d="M3739 4236 c-28 -19 31 -116 70 -116 18 0 131 -119 131 -137 0 -12
14 -17 30 -10 17 6 30 2 30 -9 0 -11 18 -16 40 -10 43 11 52 -11 20 -50 -15
-17 -13 -19 4 -4 30 25 62 26 47 1 -6 -10 -3 -24 9 -31 11 -7 20 2 20 19 0 17
14 31 30 31 17 0 30 -7 30 -15 0 -9 18 -27 40 -40 30 -19 39 -20 35 -1 -3 13
13 27 35 31 34 6 35 4 10 -15 -27 -21 -27 -22 0 -15 44 12 49 68 6 68 -111 -1
-144 9 -156 47 -7 22 -26 40 -41 40 -36 0 -38 32 -4 48 14 6 5 7 -20 0 -33 -8
-45 -2 -45 22 0 18 -9 27 -21 19 -30 -18 -79 29 -80 78 -2 38 -3 39 -16 7 -13
-34 -19 -33 -70 15 -60 55 -86 60 -134 27z"/>
<path d="M3326 4068 c-3 -67 3 -108 17 -108 13 0 16 20 8 52 -7 28 -5 47 5 41
9 -6 13 16 8 48 -14 98 -34 82 -38 -33z"/>
<path d="M4388 3920 c1 -57 -4 -113 -12 -126 -9 -13 -16 -15 -16 -4 0 11 -34
22 -75 24 -41 2 -61 -1 -45 -7 83 -29 158 -70 169 -92 6 -14 7 -2 2 25 -5 28
-1 64 10 80 18 29 20 25 26 -38 2 -16 13 -32 25 -36 13 -4 20 9 18 28 -9 67
-35 126 -55 126 -11 0 -15 18 -9 39 5 22 -2 49 -16 61 -21 17 -25 1 -22 -80z"/>
<path d="M3754 3960 c9 -33 4 -38 -27 -27 -30 10 -32 8 -12 -14 14 -15 25 -36
25 -48 0 -12 -9 -8 -19 8 -20 31 -10 -124 10 -166 7 -12 -2 -6 -20 16 -27 34
-31 34 -31 5 0 -19 7 -35 15 -36 8 -1 35 -4 60 -6 51 -6 75 44 54 110 -11 37
-8 39 29 19 34 -18 42 -17 42 8 0 20 -18 31 -50 31 -44 0 -50 9 -50 70 0 39
-8 70 -18 70 -10 0 -14 -18 -8 -40z"/>
<path d="M3060 3840 c0 -11 9 -20 20 -20 11 0 20 -13 20 -30 0 -16 7 -30 15
-30 8 0 15 23 15 50 0 34 -11 50 -35 50 -19 0 -35 -9 -35 -20z"/>
<path d="M3426 3836 c-34 -45 -50 -88 -17 -47 17 21 31 28 31 16 0 -12 -9 -28
-20 -35 -12 -7 -15 -21 -9 -32 6 -10 20 -14 30 -7 10 6 13 -3 7 -20 -7 -17
-27 -32 -45 -32 -21 -1 -15 -9 16 -21 26 -11 60 -15 74 -10 14 6 40 -3 56 -20
72 -72 8 106 -71 196 -25 30 -36 32 -52 12z"/>
<path d="M3306 3761 c-2 -23 13 -44 37 -52 57 -18 66 0 24 49 -45 52 -58 53
-61 3z"/>
<path d="M4100 3770 c-14 -16 -19 -30 -12 -30 8 0 2 -13 -12 -28 -14 -15 -31
-20 -37 -11 -6 10 -22 -1 -36 -24 -14 -23 -17 -36 -6 -29 11 7 26 4 33 -8 19
-30 50 -24 50 10 0 17 9 30 20 30 11 0 20 -16 20 -35 1 -30 3 -31 20 -5 12 19
12 32 -1 37 -10 3 -19 20 -19 36 0 16 8 24 18 18 10 -6 14 7 8 29 -13 48 -14
48 -46 10z"/>
<path d="M2484 3756 c-37 -37 -28 -104 24 -182 44 -64 45 -72 15 -85 -26 -11
-21 -18 27 -34 33 -12 66 -30 72 -40 7 -10 35 -20 62 -22 57 -3 68 -52 13 -56
-20 -2 -48 -4 -62 -5 -14 -1 -23 9 -20 23 4 18 -10 22 -43 14 -29 -8 -85 4
-140 28 -99 44 -117 28 -61 -53 17 -24 26 -53 19 -64 -23 -38 13 -64 39 -28
31 43 77 18 61 -33 -7 -21 -5 -50 4 -64 19 -29 86 -39 86 -13 0 10 -11 19 -25
20 -14 1 -2 9 25 18 l50 16 -54 2 c-40 1 -52 10 -43 32 14 37 55 39 91 3 14
-14 36 -23 49 -19 12 4 22 -15 22 -43 0 -38 -11 -51 -42 -52 -40 -1 -39 -3 7
-21 50 -21 113 25 88 65 -18 30 14 19 67 -23 28 -22 40 -40 28 -40 -13 0 -23
-12 -23 -27 0 -51 59 -26 79 34 17 48 15 67 -12 96 -29 32 -29 37 -2 48 49 19
-38 138 -131 181 -160 74 -288 252 -214 298 11 7 20 21 20 31 0 27 -47 24 -76
-5z"/>
<path d="M3880 3762 c0 -12 8 -22 17 -22 9 0 27 -20 39 -45 12 -25 22 -33 23
-19 0 15 10 21 21 14 30 -19 24 9 -10 43 -16 16 -30 24 -30 16 0 -8 -13 -3
-30 11 -21 17 -30 18 -30 2z"/>
<path d="M1362 3715 c-21 -54 -18 -60 25 -43 36 13 46 88 12 88 -11 0 -28 -20
-37 -45z"/>
<path d="M882 3660 c-1 -87 0 -88 27 -40 15 27 21 54 12 60 -8 5 -20 24 -26
40 -7 17 -12 -10 -13 -60z"/>
<path d="M4961 3651 c-29 -35 -7 -267 29 -311 43 -51 53 -116 27 -164 -14 -25
-24 -53 -21 -61 2 -8 -4 -15 -15 -15 -10 0 -24 -18 -31 -39 -6 -21 -30 -45
-51 -51 -40 -13 -54 -79 -21 -99 10 -6 39 16 65 49 26 33 58 60 72 60 17 0 22
16 14 48 -9 36 -3 51 26 60 21 7 40 28 42 47 10 95 -1 177 -25 195 -15 12 -25
43 -24 70 2 28 -9 70 -24 94 -15 24 -22 62 -15 83 16 49 -16 72 -48 34z"/>
<path d="M4249 3639 c-18 -30 7 -119 35 -119 12 0 17 6 10 13 -8 7 -3 26 9 41
12 15 17 33 10 40 -7 7 -13 2 -13 -12 0 -13 -9 -19 -19 -13 -11 7 -14 25 -8
42 13 33 -4 39 -24 8z"/>
<path d="M3680 3592 c0 -16 -3 -41 -7 -55 -3 -15 -3 -20 2 -12 20 36 45 12 25
-25 -17 -31 -13 -44 20 -64 22 -14 40 -40 40 -58 0 -92 106 -263 128 -207 6
18 21 26 32 19 41 -25 18 13 -35 60 -30 27 -45 49 -32 49 18 1 18 16 1 60 -12
32 -29 54 -37 49 -25 -15 -97 39 -97 72 0 18 7 22 15 10 28 -38 145 -90 145
-64 1 15 7 13 19 -5 10 -16 13 -38 7 -48 -7 -11 -3 -13 8 -6 46 28 45 96 -1
90 -54 -7 -98 19 -80 47 8 13 4 16 -10 8 -14 -8 -23 -2 -23 16 0 20 -11 26
-33 18 -19 -7 -28 -5 -22 7 7 10 -5 30 -26 43 -32 20 -39 19 -39 -4z"/>
<path d="M3940 3587 c0 -13 -5 -38 -12 -55 -9 -22 -1 -32 25 -32 31 1 32 4 7
20 -24 16 -22 19 14 20 50 0 78 -32 41 -47 -20 -8 -20 -10 1 -11 37 -3 55 59
23 79 -15 9 -35 11 -45 5 -10 -6 -26 1 -36 16 -11 18 -18 19 -18 5z"/>
<path d="M3062 3471 c-1 -29 -8 -33 -24 -17 -17 17 -32 14 -58 -11 -54 -51
-67 -116 -27 -131 30 -12 66 15 67 52 0 7 14 27 31 45 18 17 28 47 23 66 -8
30 -10 30 -12 -4z"/>
<path d="M3239 3431 c-95 -50 -162 -111 -121 -111 12 0 22 7 22 16 0 39 111
23 130 -20 33 -73 125 -84 198 -22 82 69 79 88 -28 140 -109 54 -91 54 -201
-3z"/>
<path d="M4283 3415 c-13 -13 -23 -41 -23 -62 0 -22 6 -34 13 -27 7 8 28 3 45
-11 18 -14 15 -3 -8 24 -35 42 -36 46 -5 35 23 -8 35 -3 35 15 0 40 -29 54
-57 26z"/>
<path d="M3965 3362 c3 -15 26 -50 51 -78 25 -28 41 -64 35 -79 -6 -15 -2 -22
9 -15 11 7 20 1 20 -12 0 -14 6 -19 13 -12 7 7 -3 37 -22 66 -29 44 -30 56 -8
70 25 16 -5 28 -32 13 -5 -3 -23 13 -40 35 -18 22 -29 28 -26 12z"/>
<path d="M1380 3311 c0 -41 39 -60 67 -32 17 17 15 27 -7 42 -42 26 -60 23
-60 -10z"/>
<path d="M4394 3326 c90 -65 146 -226 69 -196 -27 10 -28 7 -8 -13 21 -21 37
-13 86 41 34 37 56 72 49 79 -7 6 -19 1 -28 -13 -31 -52 -93 1 -83 71 1 14 -6
25 -16 25 -11 0 -36 5 -56 12 -24 8 -28 6 -13 -6z"/>
<path d="M3198 3225 c9 -30 12 -66 7 -80 -10 -28 8 -30 65 -5 39 17 39 18 -5
31 -25 8 -45 30 -45 50 0 20 -8 42 -19 48 -11 7 -12 -10 -3 -44z"/>
<path d="M4880 3240 c0 -51 52 -110 70 -80 7 11 -1 25 -17 32 -17 6 -26 23
-20 38 5 14 0 32 -12 39 -12 8 -21 -4 -21 -29z"/>
<path d="M2985 3239 c-49 -19 -54 -34 -26 -78 12 -19 11 -39 -3 -56 -16 -19
-16 -40 1 -77 29 -63 29 -61 -9 -76 -23 -9 -29 -4 -21 16 12 34 -20 50 -72 36
-30 -7 -32 -14 -10 -40 15 -19 16 -26 2 -18 -13 8 -27 -3 -33 -26 -12 -47 11
-52 45 -11 19 23 30 24 51 5 41 -37 -21 -100 -73 -73 -23 13 -37 13 -37 1 0
-41 27 -84 65 -105 29 -15 36 -15 26 1 -7 12 -5 22 6 22 10 0 24 -14 30 -30 9
-22 35 -29 88 -25 l75 6 2 101 c0 55 8 111 16 124 10 16 -3 24 -37 24 -49 0
-104 73 -76 100 6 6 14 -1 19 -15 15 -40 83 -31 77 10 -3 19 6 49 22 67 33 38
-32 113 -75 87 -17 -11 -21 -5 -12 18 7 18 11 32 8 32 -2 -1 -24 -10 -49 -20z"/>
<path d="M2333 3207 c-26 -27 -12 -42 37 -42 56 0 67 24 18 43 -39 15 -38 15
-55 -1z"/>
<path d="M2137 3182 c21 -13 17 -24 -19 -49 -58 -41 -86 -42 -71 -3 7 19 0 30
-20 30 -20 0 -27 -11 -20 -30 8 -20 -1 -30 -27 -30 -48 0 -84 -61 -59 -101 30
-47 23 -85 -14 -71 -25 10 -28 7 -11 -14 17 -20 13 -35 -17 -60 -42 -36 -50
-65 -21 -83 10 -6 23 3 30 20 6 18 20 26 31 20 11 -7 14 -25 8 -42 -7 -18 1
-29 20 -29 26 0 28 10 13 49 -15 42 -12 49 26 55 24 3 44 20 44 36 0 17 -15
28 -35 24 -19 -3 -35 0 -35 8 0 7 16 26 35 42 19 16 23 23 8 15 -31 -16 -62
23 -63 76 0 28 17 35 80 35 53 0 96 14 129 43 53 46 51 77 -5 77 -27 -1 -28
-4 -7 -18z"/>
<path d="M2283 3050 c-26 -28 -60 -50 -75 -50 -20 0 -25 -15 -19 -45 6 -25 0
-59 -14 -77 -31 -39 -101 -43 -86 -5 5 15 1 27 -10 27 -10 0 -19 -22 -19 -50
0 -27 -9 -50 -19 -50 -11 0 -15 -12 -10 -27 6 -14 -10 -36 -35 -48 -43 -21
-44 -22 -5 -24 50 -1 89 35 89 83 0 23 15 36 40 36 22 0 40 -13 40 -30 0 -16
9 -30 20 -30 11 0 20 14 20 30 0 17 17 30 39 30 21 0 42 16 47 35 8 29 10 28
12 -6 1 -23 -8 -51 -20 -63 -15 -15 -15 -25 -1 -34 30 -19 105 33 94 63 -5 14
-1 25 10 25 11 0 28 -20 36 -43 11 -30 21 -36 31 -20 20 33 -18 76 -79 91 -27
7 -49 23 -49 35 0 15 10 14 30 -3 22 -18 30 -19 30 -1 0 13 -27 33 -61 44 -60
21 -72 65 -17 69 65 5 78 9 78 27 0 11 -14 15 -30 8 -22 -8 -27 -2 -18 21 17
44 6 40 -49 -18z"/>
<path d="M2403 3065 c15 -19 35 -41 44 -47 10 -7 2 -37 -17 -66 -28 -42 -30
-58 -10 -82 39 -47 54 -36 49 35 -2 36 5 76 16 90 24 30 -34 105 -81 105 -25
0 -25 -5 -1 -35z"/>
<path d="M3407 3050 c7 -18 0 -30 -16 -30 -16 0 -34 -9 -41 -19 -12 -21 165
27 187 50 7 8 -17 7 -55 -1 -47 -10 -63 -8 -53 8 7 12 3 22 -10 22 -13 0 -18
-13 -12 -30z"/>
<path d="M4412 3049 c-17 -46 -16 -49 20 -49 27 0 28 -5 8 -30 -20 -24 -19
-30 4 -30 20 0 28 20 26 64 -3 70 -38 97 -58 45z"/>
<path d="M2533 3044 c-11 -17 -4 -41 18 -65 34 -37 33 -39 -8 -39 -24 0 -43
-9 -43 -20 0 -11 11 -20 24 -20 19 0 19 -5 0 -24 -18 -18 -16 -32 9 -60 43
-47 67 -46 67 4 0 22 12 40 26 40 15 0 44 14 65 31 38 31 38 32 -4 23 -48 -10
-118 54 -131 119 -5 28 -11 31 -23 11z"/>
<path d="M3240 3018 c-51 -21 -49 -26 45 -79 27 -16 32 -13 23 10 -7 16 -18
29 -25 28 -42 -6 -46 7 -12 32 45 34 38 36 -31 9z"/>
<path d="M4709 2946 c0 -31 -8 -77 -17 -104 -11 -33 -10 -43 6 -33 27 17 27
10 -1 -104 -19 -76 -27 -86 -40 -54 -10 25 -12 12 -5 -34 9 -53 3 -78 -18 -90
-34 -19 -138 -297 -118 -316 6 -7 21 -122 33 -256 26 -297 53 -323 137 -134
30 67 54 132 54 143 0 11 13 44 30 73 47 83 170 383 170 414 0 16 -25 34 -55
40 -101 22 -108 28 -96 67 9 27 -2 49 -33 71 -43 31 -43 34 -11 53 20 12 30
31 21 44 -8 13 -15 37 -17 54 -1 16 -9 49 -16 72 -11 33 -2 50 41 77 l56 33
-48 -41 c-55 -48 -45 -75 16 -42 45 24 58 101 17 101 -14 0 -43 5 -65 11 -33
9 -40 1 -41 -45z m51 -355 c0 -16 -10 -35 -22 -42 -28 -18 -67 21 -49 49 20
32 71 27 71 -7z m42 -100 c26 -16 14 -21 -55 -21 -83 0 -102 9 -75 35 18 18
94 10 130 -14z m3 -164 c-15 -6 -20 -29 -13 -59 9 -33 4 -48 -15 -48 -15 0
-61 -6 -102 -13 -63 -10 -75 -7 -75 23 0 28 12 32 68 22 68 -13 113 12 70 39
-27 17 16 49 62 47 20 -1 22 -4 5 -11z m-94 -198 c-53 -42 -54 -46 -18 -66 35
-21 29 -26 -38 -31 -61 -5 -48 117 15 139 86 31 106 10 41 -42z"/>
<path d="M3600 2940 c24 -15 24 -19 3 -20 -22 0 -23 -6 -3 -30 13 -16 34 -24
45 -17 13 8 15 3 5 -13 -11 -17 -8 -21 7 -12 13 8 18 24 11 36 -8 12 -2 17 14
11 15 -5 26 -20 23 -32 -2 -12 9 -16 26 -10 44 17 -7 73 -55 60 -22 -6 -36 2
-36 19 0 15 -16 28 -35 28 -30 -1 -31 -3 -5 -20z"/>
<path d="M3149 2885 c-26 -63 -24 -102 6 -90 16 6 24 27 18 48 -5 22 4 45 24
56 30 18 30 20 0 20 -18 1 -39 -15 -48 -34z"/>
<path d="M3389 2893 c28 -20 31 -31 12 -43 -14 -8 -32 -5 -39 7 -9 14 -22 7
-38 -17 -21 -34 -18 -41 25 -52 57 -14 91 2 91 43 0 15 23 34 50 41 28 7 50
20 50 30 0 9 -23 7 -51 -6 -38 -17 -56 -17 -74 1 -12 12 -32 23 -43 23 -11 0
-3 -12 17 -27z"/>
<path d="M3946 2907 c6 -11 -15 -35 -47 -54 -32 -20 -59 -45 -59 -58 0 -12
-14 -37 -30 -55 -27 -30 -27 -33 0 -33 16 0 31 9 31 21 1 12 8 7 15 -11 12
-28 18 -29 40 -5 16 18 18 28 4 28 -12 0 -16 10 -9 22 8 12 3 29 -10 38 -17
10 -5 24 37 42 66 30 76 47 39 70 -13 8 -18 5 -11 -5z"/>
<path d="M3258 2895 c-24 -67 -14 -127 22 -129 37 -3 38 -1 9 28 -26 26 -27
35 -5 49 21 13 20 17 -4 17 -27 1 -27 3 0 20 20 13 22 19 5 20 -14 0 -26 -2
-27 -5z"/>
<path d="M3580 2863 c0 -13 9 -23 19 -23 11 0 15 -12 10 -27 -8 -20 6 -24 55
-16 47 8 55 13 26 19 -22 4 -56 22 -75 39 -22 20 -35 23 -35 8z"/>
<path d="M4426 2785 c-1 -52 3 -72 8 -45 13 71 43 96 68 60 17 -24 19 -24 13
-2 -24 91 -88 82 -89 -13z"/>
<path d="M3470 2780 c-7 -11 2 -20 19 -20 18 0 40 -20 49 -44 15 -43 16 -42
26 9 6 30 3 49 -6 44 -8 -5 -21 -1 -28 11 -16 26 -44 26 -60 0z"/>
<path d="M1764 2747 c9 -51 56 -57 56 -9 0 25 -13 42 -31 42 -19 0 -29 -14
-25 -33z"/>
<path d="M4207 2722 c1 -32 9 -54 18 -49 9 5 10 18 4 29 -6 10 2 24 20 30 35
14 22 48 -18 48 -16 0 -25 -22 -24 -58z"/>
<path d="M1772 2652 c6 -15 1 -34 -10 -41 -13 -8 -14 -29 -3 -60 10 -26 14
-51 9 -56 -5 -6 9 -15 31 -21 37 -9 38 -6 13 29 -19 27 -23 60 -12 108 12 53
9 69 -11 69 -16 0 -23 -12 -17 -28z"/>
<path d="M3101 2611 c-17 -20 -16 -30 3 -37 19 -8 19 -11 2 -12 -14 -1 -20
-14 -14 -30 7 -17 -12 -35 -51 -49 -75 -26 -114 -14 -128 40 -6 23 -22 37 -36
33 -14 -5 -44 7 -65 27 -22 21 -58 37 -81 37 -27 -1 -33 -6 -17 -16 13 -8 23
-33 21 -55 -3 -42 -155 -48 -155 -6 0 11 -8 14 -18 8 -27 -17 -442 13 -442 31
0 9 16 12 35 5 27 -8 29 -6 7 9 -34 24 -142 -9 -142 -43 0 -13 -9 -10 -20 7
-26 40 -25 7 1 -41 13 -26 42 -39 82 -39 40 0 86 -21 130 -60 65 -57 173 -38
135 24 -19 30 189 25 221 -6 10 -10 68 -18 128 -18 80 0 116 -9 135 -35 16
-20 27 -25 27 -11 1 14 15 20 32 13 18 -7 42 3 57 24 29 39 72 24 72 -24 0
-28 6 -27 52 3 29 18 74 30 100 25 26 -5 48 -1 48 9 0 10 41 13 95 6 157 -20
188 -30 173 -53 -10 -16 8 -18 59 -9 89 17 153 -14 154 -74 2 -42 3 -42 18 -4
16 38 18 38 32 3 8 -20 37 -44 64 -55 27 -10 53 -35 59 -56 6 -25 22 -34 48
-27 41 10 48 -8 20 -53 -10 -15 -27 -21 -38 -14 -41 25 -81 -11 -80 -72 1 -33
-10 -68 -26 -78 -15 -9 -19 -18 -8 -19 11 -1 34 -5 52 -8 17 -4 31 6 31 21 0
16 -7 28 -16 28 -9 0 -17 8 -17 19 0 10 18 15 40 11 22 -4 40 1 40 12 0 11 9
15 20 8 11 -7 14 2 7 21 -7 19 -1 41 15 51 35 22 64 23 51 2 -6 -8 8 -15 30
-15 35 0 34 3 -12 37 -28 21 -51 50 -51 66 0 15 -9 28 -20 28 -11 0 -20 19
-20 42 0 42 1 42 35 4 19 -21 27 -26 18 -12 -11 16 -9 26 5 26 12 0 22 14 22
31 0 17 -9 26 -20 19 -11 -7 -20 5 -20 26 0 44 -32 76 -88 87 -26 5 -39 27
-42 73 -6 69 -30 116 -30 57 0 -18 -10 -33 -23 -33 -13 0 -18 6 -11 12 7 7 -1
26 -17 42 -32 32 -89 22 -89 -16 0 -16 8 -16 30 2 17 14 30 16 30 6 0 -70
-248 -101 -273 -34 -6 15 -22 28 -36 28 -14 0 -51 13 -83 28 -89 43 -220 55
-247 23z"/>
<path d="M1560 2450 c0 -16 -9 -30 -20 -30 -11 0 -20 -8 -20 -18 0 -10 19 -13
41 -7 23 6 37 22 31 36 -5 15 1 31 14 36 13 5 8 11 -11 11 -19 1 -35 -11 -35
-28z"/>
<path d="M1820 2330 c-15 -27 -21 -56 -13 -63 7 -8 13 1 13 20 0 22 17 33 49
33 36 0 47 8 38 30 -17 45 -57 36 -87 -20z"/>
<path d="M4160 2312 c0 -15 -16 -34 -35 -42 -32 -13 -32 -16 5 -30 38 -15 38
-17 -10 -37 -27 -11 -36 -21 -20 -22 26 -1 27 -4 0 -20 -23 -15 -20 -19 14
-16 24 2 38 12 32 22 -7 11 3 30 22 44 19 14 26 30 15 37 -11 7 -15 30 -9 52
6 22 5 40 -2 40 -6 0 -12 -13 -12 -28z"/>
<path d="M1580 2300 c0 -12 27 -26 60 -33 33 -7 60 -24 60 -38 0 -15 11 -33
23 -41 16 -10 20 -4 12 17 -7 18 -2 37 11 42 17 7 16 16 -5 30 -16 11 -36 16
-44 11 -8 -5 -20 0 -27 12 -16 26 -90 26 -90 0z"/>
<path d="M2391 2144 c-23 -22 -10 -84 18 -84 16 0 34 -9 41 -20 7 -11 -1 -14
-19 -8 -20 8 -31 1 -31 -21 0 -18 9 -28 20 -21 11 7 20 3 20 -9 0 -11 7 -19
15 -17 26 7 105 -52 105 -79 0 -14 9 -25 20 -25 11 0 20 -8 20 -18 0 -10 -20
-14 -45 -8 -36 7 -39 5 -15 -12 28 -20 -78 -59 -125 -46 -22 6 -43 -98 -23
-113 26 -19 35 -90 9 -74 -11 7 -21 26 -21 42 0 16 -13 29 -30 29 -16 0 -30
-10 -30 -21 0 -12 -9 -16 -20 -9 -11 7 -36 3 -55 -8 -33 -18 -33 -20 -1 -32
19 -8 43 -8 53 -2 10 7 24 -1 30 -17 7 -18 -10 -35 -48 -48 -37 -13 -59 -35
-59 -58 0 -20 -11 -48 -24 -61 -19 -19 -10 -24 39 -24 65 0 101 28 65 50 -51
31 47 124 121 114 6 -1 12 18 14 42 2 24 13 47 24 50 12 4 21 21 21 37 0 21
12 26 40 17 24 -8 40 -4 40 10 0 12 -8 17 -18 11 -20 -12 -45 39 -27 57 25 25
61 10 71 -30 6 -24 21 -36 33 -29 12 8 17 21 11 30 -19 31 -28 161 -11 161 9
0 22 -13 28 -28 6 -17 27 -25 50 -18 32 8 38 2 30 -30 -13 -48 28 -78 60 -43
18 19 17 22 -2 11 -15 -9 -25 -2 -25 17 0 35 31 42 50 11 8 -13 25 -13 50 0
41 22 200 -15 200 -46 0 -9 8 -11 18 -5 24 15 69 -42 53 -68 -12 -19 14 -30
54 -23 8 1 15 -7 15 -18 0 -11 20 -19 45 -18 25 0 34 6 20 11 -14 6 -25 21
-24 34 0 13 20 0 45 -29 24 -28 60 -57 79 -64 19 -7 35 -31 35 -53 0 -42 31
-52 75 -25 17 11 6 27 -35 51 -33 19 -60 44 -60 55 0 11 10 14 22 7 16 -10 16
-3 0 27 -34 63 -27 88 19 74 38 -12 39 -10 15 28 -14 23 -42 42 -62 42 -20 0
-31 -9 -24 -20 18 -29 -88 -25 -118 5 -14 14 -21 37 -17 50 5 14 -6 25 -23 25
-18 0 -32 14 -32 30 0 17 -9 30 -20 30 -11 0 -20 9 -20 20 0 11 18 20 39 20
27 0 36 -10 28 -30 -6 -16 -1 -30 11 -30 12 0 23 11 24 25 1 14 9 -1 19 -33 9
-32 12 -68 5 -79 -7 -12 1 -15 19 -8 18 7 37 2 42 -11 5 -13 11 -8 11 11 1 19
-7 35 -18 35 -11 0 -20 9 -20 20 0 11 13 20 28 20 19 0 25 14 17 44 -11 41
-13 42 -25 5 -13 -36 -15 -36 -38 6 -20 38 -17 52 17 89 23 24 41 32 41 19 0
-14 8 -20 19 -14 10 6 24 -6 30 -27 20 -60 80 -65 84 -6 2 27 15 57 30 66 18
12 19 17 3 18 -13 0 -28 -8 -34 -17 -15 -24 -112 -4 -112 23 0 15 -8 14 -24
-2 -13 -13 -39 -24 -58 -24 -19 0 -38 -10 -42 -22 -5 -14 -36 -6 -86 22 -72
40 -278 61 -326 33 -8 -5 -57 -2 -110 6 -80 12 -99 9 -114 -19 -25 -47 -6 -61
52 -39 30 11 48 11 48 -1 0 -11 -12 -20 -28 -20 -15 0 -32 -19 -39 -43 -9 -36
-16 -39 -41 -19 -16 14 -25 37 -19 51 5 15 0 33 -13 41 -15 10 -16 21 -1 39
22 26 -123 80 -148 55z"/>
<path d="M1771 2081 c-8 -12 -21 -17 -29 -12 -9 5 -33 -3 -54 -19 -21 -16 -29
-29 -17 -29 12 -1 31 9 43 21 15 15 25 15 36 -1 9 -16 22 -12 42 13 27 34 28
34 16 0 -11 -30 -5 -34 36 -24 32 8 58 2 74 -18 22 -26 16 -29 -46 -18 -72 11
-91 -7 -51 -47 16 -16 6 -26 -35 -37 l-56 -16 50 -15 c75 -23 145 -22 90 0
-38 16 -37 18 13 38 30 11 63 37 75 57 19 33 21 33 21 -7 1 -23 -13 -48 -30
-55 -21 -8 -27 -25 -19 -52 9 -28 4 -40 -19 -40 -17 0 -31 -8 -31 -18 0 -10
-18 -14 -40 -8 -33 9 -39 2 -36 -39 3 -32 14 -47 30 -41 14 6 26 0 26 -12 0
-12 18 -7 39 12 21 18 34 41 28 50 -6 10 0 30 13 46 13 16 19 35 14 44 -6 9
25 16 68 16 43 0 78 -7 78 -15 0 -8 20 -15 45 -14 43 0 43 1 7 29 -21 16 -32
41 -25 59 11 28 7 28 -36 0 -56 -37 -119 31 -73 77 21 21 32 -3 24 -51 -1 -8
11 -15 28 -15 17 0 30 8 30 17 0 29 -76 88 -98 75 -11 -7 -27 -1 -36 13 -9 14
-34 27 -56 29 -22 2 -59 9 -83 16 -23 8 -49 4 -56 -9z"/>
<path d="M4383 2038 c12 -59 -125 -230 -153 -191 -13 18 -29 27 -35 21 -7 -6
7 -30 30 -53 40 -40 42 -40 68 -3 15 21 39 52 52 68 52 62 78 145 54 168 -16
16 -21 13 -16 -10z"/>
<path d="M4080 1948 c0 -25 -6 -28 -27 -11 -21 18 -36 13 -63 -18 -28 -30 -41
-34 -53 -14 -13 20 -16 19 -17 -3 0 -21 -22 -24 -99 -14 -112 15 -143 -9 -76
-59 26 -20 31 -29 12 -23 -36 12 -57 -21 -57 -89 0 -22 -9 -34 -19 -28 -11 7
-14 26 -8 42 8 20 2 26 -19 18 -24 -9 -28 -2 -20 29 6 25 1 42 -13 42 -13 0
-18 -8 -12 -18 13 -22 -38 -67 -56 -48 -7 7 -13 2 -13 -12 0 -13 -10 -18 -22
-11 -13 8 -19 1 -15 -20 4 -18 12 -30 19 -27 31 16 77 -51 66 -97 -11 -40 -7
-45 25 -34 31 11 30 6 -9 -37 -38 -42 -41 -53 -16 -62 19 -8 35 3 42 27 7 21
22 39 32 39 21 0 -29 102 -80 165 -42 52 27 48 72 -4 31 -36 35 -37 61 -5 15
19 22 22 14 6 -10 -18 -5 -24 13 -18 16 5 43 -15 63 -47 19 -31 44 -57 55 -57
11 0 2 18 -20 40 -50 50 -50 64 -2 99 41 29 36 67 -14 126 -27 31 -27 35 1 35
18 0 36 -11 42 -25 7 -19 10 -19 11 -1 1 14 14 20 29 14 16 -6 41 3 58 20 17
17 36 25 43 18 6 -7 12 4 12 24 0 35 1 35 40 0 22 -20 46 -30 53 -23 8 7 4 13
-8 13 -12 0 -17 18 -11 40 6 22 5 40 -2 40 -6 0 -12 -15 -12 -32z m-264 -207
c-17 -28 -29 -31 -48 -14 -21 19 -19 28 6 47 43 34 70 12 42 -33z"/>
<path d="M3671 1942 c-7 -12 -8 -31 -1 -42 17 -28 -17 -25 -46 4 -13 13 -24
17 -24 8 0 -9 -11 -8 -25 4 -18 15 -37 12 -65 -10 -38 -30 -38 -30 15 -18 42
10 55 5 55 -19 0 -23 11 -28 40 -19 23 7 40 4 40 -9 0 -11 10 -21 21 -21 12 0
16 9 8 21 -7 11 -3 32 8 46 12 13 13 36 4 51 -11 18 -20 20 -30 4z"/>
<path d="M3494 1820 c-6 -22 -2 -45 8 -51 10 -6 18 5 18 25 1 30 4 31 19 7 23
-37 50 -14 34 28 -17 44 -66 38 -79 -9z"/>
<path d="M2100 1803 c0 -10 -19 -23 -42 -29 -35 -9 -38 -16 -17 -39 33 -35
103 -40 123 -9 22 35 20 42 -24 69 -22 14 -40 17 -40 8z"/>
<path d="M4148 1774 c-16 -17 -11 -29 20 -45 35 -17 40 -34 32 -100 -30 -239
-12 -477 43 -549 236 -313 325 -688 246 -1035 -11 -49 113 -70 142 -23 62 99
-9 608 -101 730 -49 65 -33 104 17 42 37 -45 51 -51 68 -30 41 50 9 176 -45
176 -41 0 -59 42 -28 64 21 15 19 17 -9 8 -28 -9 -34 -5 -26 18 7 16 3 30 -8
30 -10 0 -19 19 -19 41 0 23 -9 36 -20 29 -24 -15 -6 -137 21 -147 10 -3 19
-20 19 -38 0 -57 -71 27 -98 115 -13 46 -36 80 -53 80 -16 0 -29 9 -29 20 0
11 -13 20 -29 20 -16 0 -34 9 -41 20 -13 22 46 5 83 -24 14 -11 28 -10 36 2 6
11 -20 35 -59 53 -81 39 -88 62 -25 90 40 19 44 33 38 130 -4 65 2 109 14 109
22 0 18 110 -6 164 -11 27 -20 29 -41 10 -14 -13 -22 -31 -17 -39 5 -8 -5 -9
-23 -2 -23 8 -26 19 -12 33 14 14 10 29 -14 47 -41 31 -48 31 -76 1z"/>
<path d="M1958 1715 c-25 -82 -2 -105 70 -72 l51 23 -52 27 c-51 27 -66 31
-69 22z"/>
<path d="M2516 1636 c35 -35 30 -66 -6 -36 -17 14 -30 16 -30 5 0 -11 14 -32
31 -46 25 -20 26 -29 5 -42 -19 -12 -17 -16 9 -17 19 0 35 -8 35 -18 0 -10 13
-23 28 -29 46 -17 52 39 10 85 -22 23 -34 42 -28 42 6 0 2 18 -10 40 -12 22
-32 40 -45 40 -17 0 -17 -6 1 -24z"/>
<path d="M2662 1648 c-1 -12 13 -52 31 -88 25 -50 28 -74 11 -101 -18 -29 -15
-33 15 -25 59 15 65 84 13 133 -25 24 -51 57 -57 73 -7 17 -13 20 -13 8z"/>
<path d="M3470 1460 c-57 -14 -57 -15 -10 -19 28 -2 39 -9 25 -14 -28 -12 -34
-47 -8 -47 9 0 27 23 39 50 13 28 21 49 19 48 -3 -2 -32 -10 -65 -18z"/>
<path d="M2430 1429 c-45 -22 -49 -27 -15 -21 37 7 45 -1 45 -43 0 -29 4 -48
8 -43 8 8 32 139 25 137 -2 0 -30 -14 -63 -30z"/>
<path d="M1669 1419 c-7 -12 -26 -17 -41 -11 -15 6 -28 1 -28 -11 0 -12 18
-17 40 -11 47 12 54 -16 9 -34 -17 -6 -26 -21 -18 -33 21 -35 69 19 64 73 -4
54 -7 57 -26 27z"/>
<path d="M3592 1354 c-18 -67 -15 -74 27 -74 43 0 49 58 9 95 -18 17 -27 12
-36 -21z"/>
<path d="M2339 1268 c-11 -30 -16 -66 -11 -80 13 -33 92 -12 92 24 0 16 10 28
21 28 12 0 15 10 8 21 -7 12 -26 17 -42 11 -16 -7 -24 -3 -18 7 7 10 2 24 -9
31 -11 7 -29 -12 -41 -42z"/>
<path d="M1707 1232 c28 -43 31 -61 13 -72 -17 -11 -18 -19 -2 -29 12 -7 30
-8 41 -2 10 6 24 3 31 -9 7 -11 1 -20 -14 -21 -19 0 -17 -7 6 -25 40 -31 88
-117 82 -147 -8 -38 32 -51 79 -25 48 25 108 -25 89 -74 -15 -40 34 -82 108
-95 54 -9 63 -6 38 11 -27 19 -24 29 27 81 64 66 51 109 -26 85 -34 -11 -38
-18 -17 -32 20 -13 14 -18 -22 -18 -34 0 -42 -6 -24 -17 20 -13 18 -23 -9 -45
-19 -15 -28 -17 -21 -4 8 13 5 29 -6 36 -11 7 -16 21 -10 31 17 27 -85 85
-130 73 -32 -8 -41 3 -52 61 -9 44 -27 74 -50 80 -21 5 -33 17 -27 26 5 9 1
21 -9 28 -10 6 -14 27 -9 46 6 24 -12 48 -57 74 l-66 39 37 -56z"/>
<path d="M2480 1259 c0 -12 9 -16 21 -9 13 9 16 -5 8 -38 -10 -39 -6 -52 18
-52 49 0 60 39 22 81 -39 43 -69 51 -69 18z"/>
<path d="M4640 974 c0 -8 13 -35 28 -60 17 -26 34 -125 41 -242 7 -108 17
-205 22 -214 17 -27 16 -278 0 -373 -14 -84 -14 -85 45 -85 l60 0 -5 165 c-3
91 -7 174 -10 185 -17 61 0 101 27 65 14 -19 33 -35 42 -35 9 0 28 -16 44 -35
16 -19 23 -24 16 -10 -7 14 -8 25 -2 25 25 0 112 -48 112 -62 0 -8 20 -18 44
-22 40 -5 59 -31 116 -156 8 -16 44 -40 81 -52 37 -13 71 -33 75 -45 12 -36
164 -29 164 7 0 17 -10 30 -21 30 -12 0 -7 15 11 33 43 43 131 16 160 -48 19
-45 110 -65 110 -25 0 11 -10 20 -23 20 -12 0 -57 32 -100 70 -42 39 -86 70
-96 70 -11 0 -15 14 -8 30 7 19 -1 30 -21 30 -18 0 -33 9 -34 20 -6 61 -4 115
7 150 36 122 36 123 -12 145 -64 29 -89 8 -105 -90 -20 -128 -62 -149 -78 -40
-18 115 -37 144 -83 126 -36 -13 -36 -15 2 -42 21 -16 28 -29 15 -29 -13 0
-23 -20 -22 -45 0 -25 6 -34 11 -20 6 14 19 25 30 25 11 0 14 -9 7 -20 -7 -11
-3 -20 9 -20 11 0 21 -9 21 -19 0 -11 -16 -15 -35 -9 -31 10 -31 8 2 -19 20
-17 31 -40 23 -53 -7 -12 -5 -33 5 -46 35 -45 43 -114 13 -114 -15 0 -28 19
-28 41 0 23 -9 36 -20 29 -12 -7 -15 -23 -7 -36 9 -18 7 -18 -11 -2 -13 12
-39 53 -58 90 -22 43 -69 87 -131 120 -69 37 -114 82 -155 150 -31 54 -57 86
-58 72 0 -14 14 -47 32 -74 17 -27 28 -60 24 -73 -5 -13 -28 13 -51 58 -24 45
-52 98 -64 119 -11 20 -34 86 -51 146 -27 95 -108 240 -110 194z"/>
<path d="M2400 923 c0 -11 -20 -24 -45 -29 -38 -7 -36 -9 11 -11 37 -2 51 -11
42 -26 -9 -14 -5 -18 9 -9 28 18 30 65 3 82 -11 7 -20 3 -20 -7z"/>
<path d="M3530 879 c8 -24 7 -39 -3 -33 -9 5 -18 -11 -20 -38 -2 -32 8 -48 30
-48 23 1 26 5 9 16 -14 9 -17 26 -7 42 9 15 27 21 39 13 36 -22 25 6 -20 51
l-42 42 14 -45z"/>
<path d="M4801 827 c4 -81 116 -216 152 -181 20 20 -61 157 -112 191 -37 25
-41 24 -40 -10z"/>
<path d="M2237 805 c14 -11 26 -25 26 -32 1 -39 25 -93 42 -93 11 0 15 -18 9
-40 -9 -34 0 -40 53 -40 43 -1 54 -6 36 -18 -19 -12 -21 -21 -5 -31 12 -7 31
-8 41 -2 29 18 1 71 -37 71 -37 0 -110 130 -91 161 6 11 3 19 -8 19 -11 0 -36
5 -56 12 -27 9 -30 7 -10 -7z"/>
<path d="M3748 700 c2 -66 32 -77 81 -29 42 43 39 54 -12 38 -34 -11 -41 -7
-31 19 8 19 2 32 -14 32 -16 0 -25 -22 -24 -60z"/>
<path d="M3383 689 c-33 -73 -29 -82 15 -31 35 40 40 41 70 11 29 -29 32 -29
32 0 0 17 -13 31 -30 31 -16 0 -30 9 -30 20 0 38 -34 20 -57 -31z"/>
<path d="M5090 676 c-22 -12 -43 -25 -47 -28 -16 -12 81 -128 107 -128 60 0
84 131 30 160 -45 24 -40 24 -90 -4z"/>
<path d="M900 620 c0 -11 -12 -20 -27 -20 -17 0 -26 -18 -23 -45 3 -25 6 -59
7 -76 10 -123 61 -100 58 26 -3 107 -15 200 -15 115z"/>
<path d="M750 520 c7 -11 -2 -20 -19 -20 -21 0 -31 -19 -31 -60 0 -33 9 -60
20 -60 11 0 27 -2 35 -5 8 -3 16 33 17 80 1 47 -6 85 -16 85 -10 0 -13 -9 -6
-20z"/>
<path d="M5640 387 c0 -49 18 -97 55 -145 103 -137 152 -183 166 -161 9 15 18
11 26 -9 7 -21 1 -32 -19 -32 -17 0 -25 -9 -18 -20 24 -39 87 -23 76 20 -15
55 31 51 53 -5 15 -36 19 -23 20 61 0 59 -7 101 -17 95 -36 -22 -138 32 -151
80 -6 27 -24 49 -39 49 -15 0 -42 32 -61 70 -44 94 -91 93 -91 -3z"/>
<path d="M5857 377 c13 -15 50 -58 83 -97 l59 -70 1 74 c0 59 -9 76 -45 86
-124 36 -122 36 -98 7z"/>
<path d="M577 354 c-15 -15 -48 -39 -74 -52 -36 -20 -41 -31 -23 -53 13 -15
18 -37 11 -48 -8 -12 4 -21 28 -21 49 0 54 31 8 49 -28 10 -22 22 35 70 37 31
62 63 55 70 -7 7 -25 0 -40 -15z"/>
<path d="M1709 358 c-10 -15 15 -50 68 -96 80 -69 107 -131 63 -145 -11 -4 -1
-19 22 -34 23 -14 36 -16 29 -4 -7 11 1 21 19 21 30 0 30 3 0 33 -18 18 -29
50 -23 70 5 20 -8 57 -28 82 -21 25 -38 37 -38 27 -1 -11 -23 1 -49 26 -35 33
-52 39 -63 20z"/>
<path d="M680 315 c0 -26 -10 -57 -23 -70 -17 -17 -14 -31 13 -57 33 -34 32
-36 -10 -52 -29 -11 -40 -27 -32 -48 7 -17 12 -41 12 -53 0 -12 6 -16 13 -9 7
7 30 3 52 -9 29 -15 45 -14 62 4 17 19 17 21 -2 11 -27 -15 -36 19 -9 35 25
16 28 155 3 184 -12 15 -17 36 -10 47 7 11 -6 30 -28 42 -36 19 -41 15 -41
-25z"/>
<path d="M875 291 c-5 -29 1 -53 16 -59 36 -13 45 2 34 58 -12 64 -38 64 -50
1z"/>
<path d="M4931 225 c3 -30 6 -93 7 -140 2 -83 3 -85 72 -85 81 0 88 22 27 83
-29 29 -33 40 -12 32 28 -11 28 -6 3 41 -15 30 -28 64 -28 77 0 18 -42 47 -69
47 -2 0 -3 -25 0 -55z"/>
<path d="M120 236 c0 -9 9 -16 20 -16 11 0 19 -7 18 -15 -10 -60 4 -94 24 -60
15 27 29 31 58 15 20 -11 48 -20 60 -20 34 0 12 50 -22 51 -15 0 -26 12 -23
25 3 13 -2 25 -10 26 -84 9 -125 7 -125 -6z"/>
<path d="M2980 212 c0 -26 20 -62 45 -80 25 -19 35 -29 22 -23 -40 19 -48 -47
-8 -69 65 -34 82 -25 60 32 -20 55 -9 96 22 77 11 -6 19 -6 19 1 0 7 -27 21
-60 33 -33 12 -60 34 -60 49 0 15 -9 28 -20 28 -11 0 -20 -21 -20 -48z"/>
<path d="M1880 15 c0 -8 32 -15 70 -15 39 0 70 8 70 19 0 10 -31 17 -70 15
-38 -2 -70 -11 -70 -19z"/>
</g>
</svg>
